<?xml version="1.0" encoding="UTF-8" standalone="no"?>
<svg
   xmlns:dc="http://purl.org/dc/elements/1.1/"
   xmlns:cc="http://creativecommons.org/ns#"
   xmlns:rdf="http://www.w3.org/1999/02/22-rdf-syntax-ns#"
   xmlns:svg="http://www.w3.org/2000/svg"
   xmlns="http://www.w3.org/2000/svg"
   xmlns:sodipodi="http://sodipodi.sourceforge.net/DTD/sodipodi-0.dtd"
   xmlns:inkscape="http://www.inkscape.org/namespaces/inkscape"
   width="259.12497"
   height="58.50882"
   viewBox="0 0 68.560152 15.480459"
   version="1.1"
   id="svg8"
   inkscape:version="1.0.1 (c497b03c, 2020-09-10)"
   sodipodi:docname="karolinska.svg">
  <defs
     id="defs2">
    <clipPath
       id="clip1">
      <path
         d="M 4,23 H 458.87109 V 80 H 4 Z m 0,0"
         id="path823" />
    </clipPath>
    <clipPath
       id="clip2">
      <path
         d="m 4,84 h 311 v 18.23047 H 4 Z m 0,0"
         id="path826" />
    </clipPath>
  </defs>
  <sodipodi:namedview
     id="base"
     pagecolor="#00ffff"
     bordercolor="#666666"
     borderopacity="1.0"
     inkscape:pageopacity="0"
     inkscape:pageshadow="2"
     inkscape:zoom="1.2370476"
     inkscape:cx="194.23024"
     inkscape:cy="80.088255"
     inkscape:document-units="px"
     inkscape:current-layer="layer1"
     inkscape:document-rotation="0"
     showgrid="false"
     units="px"
     lock-margins="true"
     fit-margin-top="0.5"
     fit-margin-left="0.5"
     fit-margin-right="0.5"
     fit-margin-bottom="0.5"
     inkscape:window-width="1440"
     inkscape:window-height="900"
     inkscape:window-x="0"
     inkscape:window-y="0"
     inkscape:window-maximized="0" />
  <metadata
     id="metadata5">
    <rdf:RDF>
      <cc:Work
         rdf:about="">
        <dc:format>image/svg+xml</dc:format>
        <dc:type
           rdf:resource="http://purl.org/dc/dcmitype/StillImage" />
        <dc:title></dc:title>
      </cc:Work>
    </rdf:RDF>
  </metadata>
  <g
     inkscape:label="Layer 1"
     inkscape:groupmode="layer"
     id="layer1"
     transform="translate(-118.13269,-111.5781)">
    <g
       id="g1163"
       transform="matrix(0.42190977,0,0,0.42190977,68.367829,64.578686)">
      <path
         style="fill:#8f8f8f;fill-opacity:1;fill-rule:nonzero;stroke:none;stroke-width:0.352778"
         d="m 122.24694,113.29754 c 0.0648,-0.011 0.12678,-0.0303 0.18466,-0.0606 l 0.0344,-0.022 0.001,-0.003 0.008,-0.004 0.001,-10e-4 0.006,-0.003 c 0.004,-0.006 0.008,-0.01 0.0138,-0.0124 0.0165,-0.0193 0.0345,-0.0372 0.0524,-0.0551 l 0.003,-0.004 0.008,-0.008 10e-4,-0.003 c 0.003,-0.001 0.004,-0.004 0.006,-0.006 0,-0.001 0.001,-0.004 0.003,-0.004 l 0.003,-0.006 0.003,-0.001 c 0.0165,-0.0248 0.0303,-0.051 0.0427,-0.0772 l 0.003,-0.004 c 0.0207,-0.0496 0.0331,-0.10335 0.0372,-0.1571 l 0.003,-0.0124 v -0.0524 l -0.003,-0.0124 c -0.007,-0.0772 -0.0317,-0.15158 -0.073,-0.21773 -10e-4,-10e-4 -0.003,-0.003 -0.004,-0.004 l -0.001,-0.004 c -0.0138,-0.0207 -0.0289,-0.0386 -0.0455,-0.0565 -0.004,-0.004 -0.007,-0.007 -0.011,-0.01 l -0.003,-0.003 c -0.007,-0.004 -0.0124,-0.01 -0.0179,-0.0152 l -0.003,-0.001 -0.003,-0.006 -0.004,-10e-4 -0.004,-0.004 c -0.0427,-0.0344 -0.0923,-0.062 -0.14332,-0.0813 -0.008,-0.004 -0.0165,-0.011 -0.022,-0.0179 l -0.007,-0.01 c -0.004,-0.0124 -0.008,-0.0262 -0.01,-0.0386 0,-0.01 0,-0.0165 0,-0.0248 l -0.001,-0.004 v -0.008 c -0.003,-0.0221 -0.006,-0.0441 -0.008,-0.0648 v -0.004 c 0,-0.006 0,-0.011 0,-0.0152 l 0.004,-0.011 0.006,-0.004 c 0.004,-0.003 0.01,-0.006 0.0152,-0.007 h 0.0138 c 0.0276,0.007 0.0551,0.011 0.0827,0.0165 h 0.011 l 0.0124,0.003 h 0.01 l 0.006,0.001 h 0.0386 l 0.004,-0.001 c 0.0138,0 0.0276,-0.003 0.0413,-0.008 0.0138,-0.006 0.0276,-0.0152 0.04,-0.0276 0.011,-0.0138 0.0179,-0.0317 0.0207,-0.0496 v -0.0262 c -0.004,-0.0234 -0.0138,-0.0455 -0.0317,-0.062 h -0.001 l -0.001,-0.003 c -0.008,-0.006 -0.0165,-0.01 -0.0248,-0.0138 -0.0634,-0.0124 -0.12953,-0.008 -0.19154,0.0138 h -0.01 l -0.003,0.001 c -0.008,-0.001 -0.0152,-0.004 -0.0234,-0.006 l -0.007,-0.007 -0.003,-0.006 -0.003,-0.011 c 0.0193,-0.0799 0.0165,-0.16123 -0.01,-0.23702 l -0.0152,-0.0165 c -0.011,-0.008 -0.0207,-0.0152 -0.0331,-0.0221 l -0.0179,-0.004 h -0.0262 l -0.0179,0.006 -0.0138,0.008 -0.004,0.006 h -0.004 c -0.011,0.0124 -0.0207,0.0262 -0.0276,0.04 -0.008,0.0234 -0.0138,0.0469 -0.0124,0.0703 v 0.006 c 0.001,0.008 0.001,0.0179 0.003,0.0262 v 0.011 l 0.003,0.004 c 0.006,0.0358 0.01,0.073 0.0124,0.10886 -10e-4,0.007 -0.004,0.0124 -0.008,0.0179 l -0.003,0.004 -0.004,0.001 -0.0124,0.001 h -0.01 l -0.005,-0.001 h -0.004 c -0.0482,-0.0124 -0.0965,-0.0193 -0.14607,-0.022 -0.0193,0.003 -0.0372,0.01 -0.0551,0.0165 l -0.0179,0.0124 c -0.003,0.003 -0.004,0.004 -0.006,0.006 l -0.001,0.001 -0.007,0.006 v 0.003 l -0.003,10e-4 c -0.007,0.008 -0.011,0.0179 -0.0138,0.0276 -0.003,0.0124 -0.004,0.0262 -0.003,0.04 10e-4,0.0124 0.004,0.0248 0.01,0.0358 0.007,0.011 0.0138,0.0207 0.0234,0.0289 l 0.0138,0.011 c 0.0193,0.008 0.0386,0.0138 0.0593,0.0138 0.006,0 0.011,0 0.0165,0 l 0.0124,-0.003 c 0.0441,-0.004 0.0868,-0.011 0.12954,-0.022 h 0.0165 c 0.007,0.003 0.0124,0.006 0.0179,0.008 l 10e-4,0.003 h 0.001 l 0.004,0.011 10e-4,0.0179 v 0.0138 l -10e-4,0.004 c -0.003,0.0482 -0.0124,0.0965 -0.0276,0.14056 l -0.007,0.008 c -0.0455,0.0207 -0.0896,0.0441 -0.13229,0.073 v 0.001 l -0.0124,0.007 -10e-4,0.003 c -0.003,0.001 -0.007,0.004 -0.01,0.006 l -0.003,0.006 h -0.003 c -0.0193,0.0165 -0.0372,0.0358 -0.0524,0.0551 l -0.003,0.003 -10e-4,0.003 -0.003,0.003 c -0.001,0.003 -0.004,0.006 -0.006,0.007 l -0.001,0.003 -10e-4,0.001 c -0.0152,0.0207 -0.0276,0.0427 -0.0386,0.0661 l -0.001,0.003 c -0.0303,0.0606 -0.0469,0.12678 -0.0524,0.1943 l -10e-4,0.004 c 0,0.10059 0.0289,0.19981 0.0827,0.28525 l 10e-4,0.001 0.004,0.006 0.003,0.003 0.001,0.003 c 10e-4,10e-4 0.003,0.004 0.004,0.007 l 0.001,0.001 c 0.004,0.006 0.008,0.011 0.0124,0.0165 0.003,0.003 0.006,0.006 0.007,0.01 l 0.003,0.001 0.0221,0.0234 c 0.001,0.001 0.003,0.001 0.004,0.003 l 0.003,0.001 0.004,0.004 c 0.001,0.001 0.004,0.003 0.006,0.004 0.001,0.001 0.004,0.004 0.006,0.006 l 0.003,0.003 c 0.001,0.001 0.003,0.003 0.004,0.003 l 10e-4,0.001 c 0.003,10e-4 0.006,0.004 0.007,0.007 l 0.003,0.001 h 0.001 c 0.0813,0.0579 0.17638,0.0882 0.2756,0.0882"
         id="path831" />
      <path
         style="fill:#8f8f8f;fill-opacity:1;fill-rule:nonzero;stroke:none;stroke-width:0.352778"
         d="m 123.8937,117.95807 c -0.17915,0 -0.32522,-0.0951 -0.32522,-0.2136 0,-0.11576 0.14607,-0.21222 0.32522,-0.21222 0.17777,0 0.32384,0.0965 0.32384,0.21222 0,0.11851 -0.14607,0.2136 -0.32384,0.2136 z m -1.67707,0 c -0.17915,0 -0.32384,-0.0951 -0.32384,-0.2136 0,-0.11576 0.14469,-0.21222 0.32384,-0.21222 0.17776,0 0.32383,0.0965 0.32383,0.21222 0,0.11851 -0.14607,0.2136 -0.32383,0.2136 z m -1.66605,0 c -0.17915,0 -0.32384,-0.0951 -0.32384,-0.2136 0,-0.11576 0.14469,-0.21222 0.32384,-0.21222 0.17914,0 0.32384,0.0965 0.32384,0.21222 0,0.11851 -0.1447,0.2136 -0.32384,0.2136 z m 5.63755,-2.14699 c 0,-0.011 0,-0.0207 -0.001,-0.0317 -0.007,-0.0358 -0.0193,-0.0717 -0.0386,-0.10335 l -0.003,-0.003 c -0.003,-0.006 -0.006,-0.011 -0.011,-0.0165 l -0.001,-0.004 -0.004,-0.004 -0.001,-0.003 -0.006,-0.004 h -10e-4 l -0.0152,-0.0193 -0.004,-0.003 -0.01,-0.011 -0.004,-0.003 c -0.003,-0.003 -0.004,-0.004 -0.007,-0.007 l -0.0207,-0.0152 c -0.01,-0.004 -0.0193,-0.008 -0.0276,-0.0138 l -0.0234,-0.008 -0.0358,-0.007 h -0.004 l -0.006,-0.001 -0.0441,-0.001 -0.0234,0.004 h -0.01 l -0.0193,0.006 c -0.0207,0.008 -0.0413,0.0179 -0.0606,0.0303 -0.0221,0.0179 -0.0427,0.0372 -0.062,0.0579 l -10e-4,0.003 -0.0165,0.0165 -10e-4,0.004 -0.008,0.011 -10e-4,0.003 -0.008,0.008 -10e-4,0.003 -0.006,0.004 c -0.0234,0.0358 -0.0441,0.073 -0.062,0.11162 -0.0662,0.15434 -0.10335,0.31695 -0.14745,0.4768 l -0.006,0.011 -0.006,0.004 -0.004,0.001 -0.004,-0.001 c -0.003,-0.003 -0.006,-0.006 -0.008,-0.008 -0.01,-0.0262 -0.0193,-0.0524 -0.0289,-0.0799 l -0.006,-0.008 -0.001,-0.007 -0.0138,-0.0248 -0.004,-0.003 -0.001,-0.004 c -0.0138,-0.0207 -0.0289,-0.0386 -0.0455,-0.0565 l -0.004,-0.001 -0.008,-0.0124 -0.004,-10e-4 -0.001,-0.001 -0.004,-0.001 -10e-4,-0.004 -0.022,-0.0152 -0.0358,-0.0165 c -0.0207,-0.006 -0.0427,-0.01 -0.0634,-0.0138 h -0.01 l -0.006,-0.001 h -0.008 l -0.004,0.001 h -0.008 l -0.004,0.003 c -0.0138,0 -0.0262,0 -0.0386,0 -0.0276,0.008 -0.0524,0.0193 -0.0758,0.0358 l -0.001,0.003 -0.006,0.003 -0.004,0.006 -0.003,0.001 -0.007,0.008 -0.004,0.001 -0.001,0.003 -0.0345,0.0345 -0.001,0.004 c -0.0124,0.0152 -0.022,0.0303 -0.0303,0.0469 -0.01,0.0165 -0.0152,0.0358 -0.0193,0.0537 0,0.008 -10e-4,0.0165 -0.004,0.0234 v 0.0234 c 0,0.0221 0,0.0455 0,0.0675 l 10e-4,0.006 v 0.007 c 0.006,0.04 0.0193,0.0772 0.0413,0.11024 l 0.003,0.003 0.004,0.008 c 0.007,0.011 0.0151,0.0221 0.0234,0.0331 l 0.004,0.003 c 0.0138,0.0124 0.0289,0.0234 0.0441,0.0345 0.007,0.003 0.0124,0.006 0.0179,0.01 0.0345,0.0138 0.0703,0.0234 0.10611,0.0276 h 0.0289 c 0.0138,-0.001 0.0276,-0.004 0.04,-0.007 h 0.011 l 0.006,-0.004 h 0.0193 l 0.011,0.007 0.008,0.008 0.004,0.008 0.006,0.0207 -0.003,0.0317 c -0.0124,0.0565 -0.0289,0.11162 -0.051,0.16537 l -0.004,0.004 c -0.0124,0.0303 -0.0276,0.0593 -0.0441,0.0868 l -10e-4,10e-4 -0.0124,0.0207 -0.003,0.001 -0.001,0.004 -0.003,0.003 -0.004,0.007 -10e-4,0.003 -0.003,0.003 -0.003,0.004 c -0.011,0.0165 -0.0234,0.0331 -0.0386,0.0469 l -0.003,0.003 -0.0152,0.0165 -0.004,0.003 -0.0124,0.0138 -0.003,0.003 -0.004,0.006 -0.004,0.003 -10e-4,0.001 -0.004,10e-4 -10e-4,0.003 -0.007,0.004 -0.003,0.003 c -0.007,0.006 -0.0138,0.011 -0.0207,0.0179 l -0.004,0.001 -0.003,0.001 -0.003,0.006 -0.004,10e-4 -0.001,0.003 c -0.091,0.0661 -0.19568,0.10749 -0.30592,0.12264 h -0.12954 c -0.0813,-0.011 -0.15847,-0.0413 -0.22738,-0.0854 l -0.004,-0.004 -0.003,-0.001 -0.0138,-0.01 -0.001,-0.004 c -0.003,-0.001 -0.007,-0.004 -0.01,-0.006 l -0.001,-0.001 -0.0193,-0.0138 -0.001,-10e-4 -0.01,-0.007 c -0.003,-0.003 -0.004,-0.006 -0.007,-0.007 l -0.008,-0.006 c -0.001,-10e-4 -0.003,-0.004 -0.006,-0.006 l -0.001,-10e-4 -0.004,-0.003 c -0.001,-0.001 -0.003,-0.003 -0.004,-0.004 l -0.003,-0.003 -0.004,-10e-4 c -10e-4,-0.001 -0.003,-0.003 -0.004,-0.004 l -0.003,-0.003 c -0.0152,-0.0165 -0.0317,-0.0331 -0.0482,-0.0496 l -10e-4,-0.003 -0.007,-0.008 -0.008,-0.008 -0.001,-0.003 -0.003,-0.004 -0.001,-0.006 h -0.003 l -10e-4,-0.004 c -0.001,-0.003 -0.004,-0.004 -0.006,-0.007 -0.006,-0.006 -0.01,-0.0124 -0.0138,-0.0193 l -0.004,-0.003 c -0.0138,-0.0207 -0.0262,-0.04 -0.0372,-0.062 l -0.04,-0.0868 -0.003,-0.006 c -0.0386,-0.0923 -0.0606,-0.18742 -0.0703,-0.28664 0,-0.01 0,-0.0179 0.003,-0.0276 l 0.004,-0.0124 0.006,-0.006 0.006,-0.001 h 0.006 l 0.0152,0.004 0.0179,0.011 0.001,0.001 0.008,0.006 0.001,10e-4 0.004,0.003 0.001,0.001 0.001,0.003 0.003,0.004 0.004,10e-4 0.001,0.001 c 0.003,0.003 0.006,0.004 0.008,0.006 l 0.003,0.004 c 0.0193,0.0124 0.0386,0.0262 0.0565,0.04 0.0344,0.0179 0.0703,0.0331 0.10749,0.0441 0.0152,0.004 0.0317,0.006 0.0468,0.004 l 0.006,0.004 h 0.0345 l 0.051,-0.008 c 0.022,-0.007 0.0441,-0.0152 0.0648,-0.0262 l 0.0262,-0.0179 10e-4,-0.003 0.004,-0.003 c 0.01,-0.008 0.0193,-0.0165 0.0276,-0.0262 l 10e-4,-0.003 0.01,-0.011 0.003,-0.004 c 0.0179,-0.0262 0.0317,-0.0551 0.0441,-0.0854 l 0.008,-0.0331 v -0.0358 l 0.003,-0.006 v -0.0262 l -0.003,-0.006 v -0.0331 c -0.006,-0.0386 -0.0193,-0.0758 -0.04,-0.10749 -0.0124,-0.0138 -0.0248,-0.0289 -0.0372,-0.0427 l -0.004,-0.001 -0.011,-0.0138 -0.003,-0.001 -0.004,-0.006 c -0.0234,-0.0179 -0.0482,-0.0317 -0.0758,-0.0427 l -0.0303,-0.006 h -0.0138 l -0.006,-0.001 c -0.0289,-0.001 -0.0579,0 -0.0868,0.003 -0.0358,0.008 -0.0703,0.0207 -0.10473,0.0358 l -0.004,0.003 c -0.0386,0.0234 -0.0772,0.0482 -0.11438,0.073 l -0.0179,0.007 -0.007,-0.001 -0.006,-0.004 -10e-4,-0.003 10e-4,-0.01 0.0124,-0.0248 0.003,-0.001 0.001,-0.003 0.003,-0.001 0.001,-0.004 c 0.051,-0.073 0.0854,-0.1571 0.1006,-0.24667 v -0.007 l 10e-4,-0.0165 c 0.001,-0.0193 0,-0.0386 -0.003,-0.0579 l -10e-4,-0.008 -0.001,-0.011 c -0.006,-0.0331 -0.0165,-0.0661 -0.0331,-0.0951 l -0.003,-0.003 -10e-4,-0.004 c -0.011,-0.0179 -0.0234,-0.0331 -0.0386,-0.0469 l -0.004,-0.003 -0.011,-0.0124 -0.003,-0.003 c -0.0124,-0.011 -0.0262,-0.0207 -0.04,-0.0289 l -0.004,-10e-4 -0.006,-0.004 c -0.0138,-0.007 -0.0276,-0.0124 -0.0413,-0.0166 l -0.0345,-0.007 h -0.006 l -0.006,-0.001 c -0.0221,-10e-4 -0.0441,0 -0.0662,0.003 l -0.0386,0.011 c -0.022,0.01 -0.0427,0.0221 -0.062,0.0345 -0.001,0.001 -0.003,0.003 -0.006,0.004 -0.001,10e-4 -0.004,10e-4 -0.006,0.003 -0.011,0.0124 -0.022,0.0262 -0.0331,0.0386 l -0.001,0.004 -0.004,0.004 -0.001,0.003 -0.003,0.003 c -0.0289,0.0427 -0.0468,0.0923 -0.0496,0.14332 l -0.001,0.006 v 0.0455 l 0.001,0.006 v 0.0124 c 0.0165,0.0992 0.0565,0.1943 0.113,0.27698 l 0.003,0.011 10e-4,0.0152 -0.003,0.006 h -10e-4 l -0.004,0.003 -0.006,10e-4 -0.008,-0.003 c -0.0427,-0.0289 -0.0855,-0.0565 -0.12816,-0.0854 -0.0303,-0.0138 -0.0606,-0.0262 -0.091,-0.0358 l -0.0524,-0.011 h -0.008 l -0.006,-0.001 h -0.0345 c -0.0179,0.003 -0.0358,0.007 -0.0524,0.0124 -0.0262,0.011 -0.051,0.0262 -0.073,0.0427 l -0.003,0.003 -0.003,10e-4 -0.001,0.004 -0.004,0.001 c -0.006,0.006 -0.011,0.011 -0.0165,0.0165 l -0.001,0.004 -0.0124,0.0124 -10e-4,0.004 -0.003,0.001 -0.003,0.004 -0.001,10e-4 -0.001,0.004 c -0.0276,0.0413 -0.0441,0.0882 -0.0496,0.1378 v 0.0138 l -0.001,0.006 v 0.0124 l 0.001,0.006 v 0.0138 c 0.003,0.022 0.007,0.0441 0.0138,0.0648 0.0152,0.0455 0.04,0.0868 0.073,0.12127 0.0207,0.0165 0.0441,0.0317 0.0675,0.0441 0.022,0.008 0.0455,0.0152 0.0703,0.0193 0.0262,10e-4 0.0524,0 0.0786,-0.004 l 0.0124,-0.003 0.0179,-0.001 c 0.0441,-0.011 0.0854,-0.0289 0.12402,-0.051 l 0.01,-0.007 c 0.0207,-0.011 0.04,-0.0221 0.0592,-0.0372 l 0.001,-0.003 0.0358,-0.0234 0.0124,-0.006 0.0124,0.001 0.008,0.004 c 10e-4,0.003 0.003,0.007 0.006,0.011 l 0.004,0.0152 v 0.0165 l -0.003,0.006 c -0.011,0.12678 -0.051,0.2508 -0.11575,0.36104 l -0.001,0.003 -0.007,0.0124 -0.003,10e-4 -10e-4,0.003 -0.004,0.003 c -0.003,0.006 -0.006,0.011 -0.01,0.0152 l -10e-4,0.001 -0.004,0.01 c -0.004,0.004 -0.007,0.008 -0.01,0.0138 l -10e-4,0.003 -0.007,0.007 c -0.004,0.007 -0.008,0.0138 -0.0138,0.0207 l -0.004,0.006 -0.001,0.003 c -0.0138,0.0179 -0.0289,0.0358 -0.0455,0.051 l -0.007,0.007 -0.003,10e-4 c -0.001,0.003 -0.004,0.004 -0.006,0.006 -0.004,0.004 -0.007,0.008 -0.011,0.011 l -0.004,10e-4 c -0.001,0.001 -0.003,0.003 -0.004,0.004 l -0.001,0.001 -0.004,0.003 v 0.003 l -0.004,10e-4 -0.003,0.003 -0.003,0.001 -0.003,0.003 c -10e-4,0.001 -0.003,0.003 -0.004,0.003 -0.001,0.003 -0.003,0.003 -0.004,0.004 l -0.004,0.003 -10e-4,10e-4 c -0.001,0.001 -0.003,0.004 -0.006,0.006 h -0.003 l -0.001,0.003 c -0.006,0.003 -0.01,0.007 -0.0124,0.011 l -0.004,10e-4 -10e-4,0.003 c -0.0924,0.0648 -0.19713,0.11169 -0.30737,0.12823 h -0.0152 l -0.006,0.001 h -0.0124 l -0.006,0.003 h -0.0138 l -0.0138,0.003 h -0.008 l -0.004,10e-4 h -0.008 l -0.006,0.001 h -0.0345 l -0.007,-0.001 h -0.008 l -0.0138,-0.003 h -0.008 l -0.0152,-0.004 h -0.008 l -0.004,-0.001 h -0.01 l -0.0138,-0.003 h -0.008 c -0.0276,-0.006 -0.0551,-0.011 -0.0827,-0.0193 l -0.01,-0.004 c -0.0413,-0.0124 -0.0799,-0.0303 -0.11851,-0.0524 l -0.011,-0.006 c -0.0234,-0.0138 -0.0468,-0.0289 -0.0689,-0.0441 -0.01,-0.007 -0.0193,-0.0152 -0.0289,-0.022 l -0.003,-0.003 -0.008,-0.004 c -0.0289,-0.0289 -0.0593,-0.0565 -0.0882,-0.0854 l -0.001,-0.006 -0.0138,-0.0138 -0.001,-0.004 c -0.007,-0.007 -0.0124,-0.0152 -0.0179,-0.0234 l -0.003,-10e-4 c -0.004,-0.006 -0.008,-0.011 -0.011,-0.0179 l -0.003,-0.001 -0.001,-0.003 -0.003,-0.004 c -0.0193,-0.0331 -0.0386,-0.0648 -0.0565,-0.0979 l -0.006,-0.0165 -0.004,-0.004 c -0.0317,-0.0689 -0.0524,-0.14195 -0.0634,-0.21636 v -0.0124 l -0.001,-0.007 c 0,-0.01 0,-0.0193 0,-0.0289 l 0.001,-0.0165 0.004,-0.008 0.004,-0.003 0.01,-0.003 h 0.008 c 0.0703,0.0455 0.14607,0.0799 0.226,0.10197 l 0.0179,0.001 0.004,10e-4 h 0.0193 c 0.0303,-0.003 0.0606,-0.01 0.0896,-0.0193 0.0138,-0.007 0.0276,-0.0138 0.0413,-0.0221 l 0.001,-0.001 0.0138,-0.01 0.001,-0.001 c 0.001,-0.001 0.003,-0.003 0.004,-0.004 l 0.003,-0.003 c 0.003,-10e-4 0.004,-0.004 0.007,-0.006 0.001,-10e-4 0.004,-0.003 0.007,-0.004 l 0.0221,-0.0248 0.001,-0.004 0.006,-0.006 0.001,-0.003 0.003,-0.003 c 0.004,-0.01 0.01,-0.0165 0.0152,-0.0248 0.011,-0.0221 0.0193,-0.0455 0.0248,-0.0689 l 0.004,-0.0289 v -0.0193 l 0.003,-0.006 c 0,-0.0248 0,-0.051 -0.003,-0.0758 -0.003,-0.0152 -0.007,-0.0303 -0.011,-0.0441 -0.007,-0.0152 -0.0138,-0.0289 -0.0221,-0.0441 -0.004,-0.006 -0.008,-0.0124 -0.011,-0.0193 l -0.001,-0.001 c -0.008,-0.011 -0.0165,-0.0221 -0.0234,-0.0331 l -0.003,-10e-4 -0.0124,-0.0124 c -0.001,-0.001 -0.004,-0.003 -0.006,-0.004 l -0.003,-0.003 c -0.006,-0.006 -0.0124,-0.011 -0.0193,-0.0165 l -0.007,-0.001 -0.004,-0.003 c -0.0248,-0.0138 -0.0524,-0.0235 -0.0813,-0.0276 h -0.0124 l -0.006,-10e-4 h -0.0317 l -0.006,10e-4 h -0.0152 c -0.0372,0.008 -0.073,0.0193 -0.10887,0.0345 -0.007,0.004 -0.0152,0.01 -0.022,0.0138 l -0.003,10e-4 c -0.0289,0.0179 -0.0579,0.0358 -0.0868,0.0551 l -0.008,0.006 -0.0165,0.007 h -0.011 l -0.006,-0.003 -0.003,-0.006 v -0.0138 l 0.006,-0.0221 c 0.0413,-0.0772 0.073,-0.15985 0.0909,-0.24529 v -0.0152 l 0.003,-0.006 c 0,-0.0138 0,-0.0276 0,-0.0413 v -0.0262 c -0.008,-0.0648 -0.0345,-0.12403 -0.0772,-0.17226 l -0.004,-0.001 -0.007,-0.007 -0.006,-0.003 -0.003,-0.004 -0.0276,-0.0207 -0.007,-0.001 -0.004,-0.004 c -0.0179,-0.008 -0.0358,-0.0165 -0.0537,-0.0248 l -0.0331,-0.004 h -0.008 l -0.004,-0.003 h -0.0262 l -0.006,0.003 h -0.011 l -0.0345,0.006 c -0.0248,0.011 -0.0496,0.022 -0.0744,0.0358 -0.003,0.004 -0.006,0.008 -0.01,0.01 l -10e-4,0.001 -0.004,0.003 -0.001,10e-4 c -0.004,0.003 -0.007,0.006 -0.01,0.01 l -0.007,0.004 -0.0221,0.0234 -0.001,0.003 -0.003,0.003 -0.001,0.004 h -10e-4 l -0.001,0.004 -0.003,0.001 c -0.0303,0.0468 -0.0482,0.1006 -0.0524,0.15709 0.004,0.11852 0.0551,0.22738 0.10611,0.33349 l -10e-4,0.01 -0.004,0.007 -0.006,0.004 -0.011,0.001 c -0.0152,-0.006 -0.0289,-0.0124 -0.04,-0.0207 l -0.01,-0.01 -0.022,-0.011 -0.0124,-0.011 -0.006,-0.001 c -0.051,-0.0331 -0.10752,-0.0537 -0.16677,-0.0648 h -0.04 c -0.0276,0.004 -0.0565,0.011 -0.0827,0.022 l -0.0303,0.0193 -10e-4,0.003 -0.003,0.001 -0.008,0.008 -0.003,0.001 -0.003,0.003 -0.006,0.003 -0.003,0.004 -0.007,0.006 -0.001,0.001 c -0.007,0.008 -0.0152,0.0165 -0.0221,0.0262 l -0.001,0.001 c -0.003,0.006 -0.006,0.01 -0.008,0.0152 -0.001,0.001 -0.001,0.004 -0.003,0.006 l -0.003,0.001 c -0.001,0.003 -0.004,0.006 -0.006,0.008 l -0.003,0.006 -0.003,0.001 -0.011,0.0193 c -0.004,0.011 -0.008,0.022 -0.0124,0.0331 l -0.004,0.0289 v 0.011 l -0.001,0.006 c -0.004,0.0524 0.004,0.10473 0.022,0.15296 0.0124,0.0317 0.0303,0.0593 0.0538,0.0841 l 0.003,0.001 0.007,0.007 c 0.0138,0.011 0.0276,0.0221 0.0413,0.0317 0.0317,0.0152 0.0648,0.0248 0.0992,0.0317 h 0.0138 l 0.006,0.001 h 0.011 l 0.004,-0.001 h 0.0138 c 0.0524,-0.008 0.10198,-0.0248 0.14883,-0.051 l 0.004,-0.003 c 0.0138,-0.007 0.0262,-0.0138 0.04,-0.0221 0.0138,-0.0124 0.0317,-0.022 0.0496,-0.0276 h 0.0138 l 0.007,0.004 0.007,0.01 0.003,0.0165 v 0.0276 l -0.003,0.0207 -0.003,0.006 c -0.0138,0.0951 -0.0455,0.18742 -0.0923,0.27148 -0.0124,0.0193 -0.0248,0.04 -0.0358,0.0606 l -0.008,0.0124 h -0.001 l -10e-4,0.004 c -0.0248,0.0345 -0.0524,0.0661 -0.0827,0.0965 l -0.004,0.001 -0.006,0.007 -0.003,10e-4 c -10e-4,0.001 -0.003,0.004 -0.004,0.006 l -0.003,0.003 -0.004,0.001 -0.001,0.001 -0.004,0.003 -0.006,0.008 -0.004,0.001 -0.003,0.004 -0.003,0.001 -0.007,0.007 h -10e-4 l -0.007,0.01 h -0.004 l -0.004,0.006 c -0.0414,0.0331 -0.0882,0.062 -0.13643,0.0827 l -0.004,0.004 c -0.062,0.0289 -0.12678,0.0482 -0.19431,0.0593 h -0.008 l -0.0317,0.006 c -0.0537,0.004 -0.10749,0.001 -0.15985,-0.006 h -0.008 v -0.006 h -0.0262 c -0.10336,-0.0207 -0.19844,-0.0675 -0.2825,-0.13092 -0.001,0 -0.003,-0.003 -0.006,-0.003 -0.001,-0.003 -0.004,-0.006 -0.007,-0.007 l -0.0138,-0.011 -0.003,-10e-4 -0.011,-0.007 -0.001,-0.003 -0.003,-10e-4 -10e-4,-0.001 c -0.0152,-0.0138 -0.0289,-0.0276 -0.0427,-0.0427 l -0.003,-0.004 -10e-4,-0.001 c -0.0165,-0.0193 -0.0344,-0.0372 -0.051,-0.0565 l -0.001,-0.004 -0.003,-0.001 -0.003,-0.006 -0.003,-0.004 c -0.003,-0.007 -0.008,-0.0124 -0.0124,-0.0193 l -0.001,-10e-4 c -0.006,-0.007 -0.01,-0.0152 -0.0138,-0.0221 h -0.001 c -0.0193,-0.0303 -0.0358,-0.0606 -0.051,-0.0909 -0.0345,-0.0717 -0.0579,-0.14745 -0.0703,-0.22462 v -0.011 l -10e-4,-0.007 c -0.003,-0.0152 -0.004,-0.0317 -0.004,-0.0482 l -0.001,-0.006 v -0.006 l 0.001,-0.006 v -0.008 l 0.001,-0.011 0.006,-0.0124 h 0.003 l 0.004,-0.004 h 0.011 l 0.0124,0.004 0.0207,0.0124 0.003,0.003 0.003,0.004 0.006,0.003 0.001,0.003 0.004,0.003 h 10e-4 c 0.0193,0.0138 0.04,0.0276 0.0606,0.04 0.0358,0.0193 0.073,0.0358 0.11162,0.0482 l 0.0331,0.004 h 0.0138 l 0.006,0.004 h 0.0744 c 0.0193,-0.003 0.0386,-0.007 0.0565,-0.011 0.0234,-0.007 0.0441,-0.0193 0.062,-0.0358 0.011,-0.007 0.0193,-0.0138 0.0289,-0.022 l 0.011,-0.0138 0.001,-0.003 0.003,-0.001 0.0221,-0.0358 0.003,-0.007 0.003,-0.006 c 0.0152,-0.0303 0.0262,-0.0648 0.0303,-0.0992 v -0.0372 l -10e-4,-0.006 v -0.007 h 0.003 v -0.008 l -0.006,-0.006 -0.001,-0.0193 -0.003,-0.01 v -0.0262 c -0.004,-0.0138 -0.008,-0.0289 -0.0138,-0.0427 l -0.0234,-0.04 -0.003,-0.001 -0.004,-0.008 -0.003,-0.003 -0.003,-0.004 -0.003,-0.003 -10e-4,-0.003 c -0.006,-0.006 -0.011,-0.011 -0.0152,-0.0179 l -0.0165,-0.0165 -0.003,-10e-4 -0.003,-0.006 -0.007,-0.003 -0.001,-0.003 -0.0152,-0.01 c -0.0331,-0.0152 -0.0675,-0.0262 -0.10336,-0.0331 -0.0179,-10e-4 -0.0358,0 -0.0537,0.003 -0.0469,0.011 -0.0923,0.0276 -0.13505,0.0468 -0.04,0.0262 -0.0785,0.0537 -0.11713,0.0813 l -0.0124,0.006 -0.008,0.001 -0.003,-0.001 -0.003,-0.004 -10e-4,-0.003 v -0.0124 l 0.003,-0.0138 c 0.0579,-0.0896 0.0992,-0.19293 0.11438,-0.29766 v -0.0303 c -0.006,-0.0262 -0.011,-0.0524 -0.0179,-0.0785 -0.01,-0.0262 -0.0207,-0.051 -0.0345,-0.0758 -0.011,-0.0165 -0.0234,-0.0303 -0.0386,-0.0441 -0.0138,-0.0124 -0.0276,-0.0234 -0.0427,-0.0344 l -0.006,-0.001 -0.004,-0.003 c -0.022,-0.01 -0.0441,-0.0193 -0.0661,-0.0262 l -0.0344,-0.004 h -0.0289 c -0.0303,0.004 -0.0579,0.0124 -0.0854,0.0248 -0.0179,0.011 -0.0345,0.0234 -0.051,0.0358 l -0.008,0.01 -0.004,10e-4 -0.003,0.004 -0.003,0.003 -0.003,0.004 -0.004,0.003 -0.001,0.003 c -0.003,0.004 -0.007,0.008 -0.011,0.0124 l -0.001,0.003 -10e-4,0.004 -0.003,0.001 -0.001,0.004 c -0.0138,0.0179 -0.0248,0.0372 -0.0331,0.0565 -0.008,0.0262 -0.0152,0.0524 -0.0193,0.0799 v 0.011 l -10e-4,0.006 v 0.0551 l 10e-4,0.006 v 0.007 c 0.008,0.0427 0.0207,0.0868 0.0372,0.12678 l 0.003,0.004 0.003,0.007 c 0.0152,0.0344 0.0344,0.0675 0.0551,0.0992 0.01,0.011 0.0165,0.0234 0.022,0.0358 l 0.003,0.011 v 0.007 l -10e-4,0.004 -0.004,0.003 -0.006,0.001 -0.0152,-0.008 c -0.0689,-0.0537 -0.14745,-0.0923 -0.23289,-0.11023 h -0.051 l -0.007,-0.003 -0.004,0.003 h -0.0455 c -0.0152,0.003 -0.0289,0.006 -0.0427,0.011 l -0.0276,0.0152 -0.004,0.004 c -0.0262,0.0165 -0.0482,0.0358 -0.0675,0.0579 v 0.004 c -0.0289,0.0345 -0.0469,0.0772 -0.0537,0.12127 0,0.01 -10e-4,0.0207 -0.003,0.0303 -10e-4,0.0345 0,0.0703 0.007,0.10473 0.01,0.0303 0.0234,0.0593 0.04,0.0868 l 0.003,0.003 0.001,0.004 0.006,0.006 0.004,0.006 0.003,0.004 c 0.01,0.01 0.0193,0.0207 0.0303,0.0303 l 0.004,0.003 10e-4,0.001 0.0221,0.0165 0.0344,0.0165 c 0.0262,0.008 0.0551,0.0152 0.0827,0.0179 h 0.0331 c 0.0496,-0.01 0.1006,-0.0248 0.14745,-0.0455 l 0.0262,-0.0179 0.001,-10e-4 0.0165,-0.011 0.001,-10e-4 c 0.004,-0.003 0.01,-0.006 0.0152,-0.01 l 0.001,-0.003 0.01,-0.007 0.003,-0.003 0.007,-0.004 0.001,-0.001 0.004,-0.003 c 0.003,-0.004 0.006,-0.007 0.01,-0.01 l 0.001,-0.003 0.004,-10e-4 c 10e-4,-0.001 0.004,-0.004 0.006,-0.006 0.004,-0.004 0.01,-0.008 0.0152,-0.011 l 0.01,-0.006 0.01,-0.004 h 0.008 l 0.008,0.004 c 0.003,0.007 0.006,0.0138 0.007,0.0221 0,0.0248 -0.001,0.051 -0.006,0.0758 l -0.001,0.007 c -0.0124,0.1006 -0.0427,0.19844 -0.091,0.28939 l -0.001,0.004 c -0.006,0.011 -0.011,0.0234 -0.0179,0.0345 l -0.003,0.006 -0.0207,0.0386 c -0.003,10e-4 -0.004,0.004 -0.007,0.007 -10e-4,0.003 -10e-4,0.004 -0.003,0.006 l -10e-4,0.001 -0.003,0.004 -0.003,0.003 -0.001,0.004 -0.004,0.003 -0.003,0.006 -10e-4,0.004 -0.007,0.007 c -0.022,0.0276 -0.0441,0.0537 -0.0689,0.0785 -0.006,0.006 -0.01,0.01 -0.0152,0.0138 -0.006,0.007 -0.0124,0.0124 -0.0193,0.0179 -0.001,0.001 -0.004,0.003 -0.006,0.003 l -0.003,0.004 -0.004,10e-4 -0.001,0.004 -0.007,0.004 -0.001,10e-4 -0.004,0.003 -0.003,0.003 -0.0179,0.0138 -10e-4,0.001 c -0.0179,0.011 -0.0358,0.0234 -0.0524,0.0359 -0.0689,0.0386 -0.14332,0.0648 -0.22049,0.0758 h -0.0937 c -0.0592,-0.01 -0.11575,-0.0234 -0.17225,-0.0427 -0.0331,-0.0179 -0.0675,-0.0344 -0.10198,-0.051 l -0.008,-0.007 h -0.004 l -0.0262,-0.0179 -10e-4,-0.001 -0.007,-0.003 v -0.004 l -0.004,-0.003 h -10e-4 l -0.007,-0.006 -0.001,-0.001 -0.004,-0.001 -0.001,-0.004 -0.006,-0.003 -0.006,-0.006 -0.004,-0.003 -10e-4,-0.001 -0.003,-0.001 c -0.004,-0.004 -0.008,-0.008 -0.0124,-0.0124 h -0.003 l -0.001,-0.003 -0.004,-0.003 -0.003,-10e-4 -0.003,-0.003 c -0.0124,-0.011 -0.0262,-0.0248 -0.0372,-0.0372 l -10e-4,-0.004 -0.011,-0.011 -10e-4,-0.004 -0.004,-0.006 -0.008,-0.008 -0.001,-0.004 -0.004,-0.004 -0.003,-0.004 -0.004,-0.004 -0.004,-0.01 -0.006,-0.003 -0.003,-0.007 c -0.0579,-0.0882 -0.0992,-0.18466 -0.11714,-0.28939 v -0.0248 l 0.003,-0.0152 0.007,-0.0138 0.008,-0.004 0.0165,-0.004 h 0.006 l 0.0524,0.008 h 0.008 l 0.006,0.001 c 0.04,0 0.0785,-0.008 0.11576,-0.022 0.0207,-0.011 0.04,-0.0248 0.0579,-0.0386 l 0.0289,-0.0317 0.003,-0.003 c 0.003,-0.004 0.006,-0.008 0.01,-0.0124 l 0.001,-0.004 0.003,-0.001 c 0.003,-0.004 0.004,-0.008 0.007,-0.0124 l 0.003,-0.001 0.007,-0.0124 0.001,-0.003 c 0.003,-0.008 0.008,-0.0152 0.0138,-0.022 0.0124,-0.0303 0.0207,-0.062 0.0248,-0.0951 v -0.01 l 0.001,-0.006 c -0.004,-0.0593 -0.022,-0.11713 -0.051,-0.1695 l -0.006,-0.006 c -0.008,-0.0138 -0.0207,-0.0276 -0.0331,-0.0386 l -0.003,-10e-4 -0.006,-0.01 -0.004,-0.001 -0.001,-10e-4 -0.004,-0.003 -0.001,-0.001 -0.004,-0.003 v -0.001 l -0.0262,-0.0179 c -0.0165,-0.01 -0.0345,-0.0165 -0.0524,-0.0207 l -0.0345,-0.007 h -0.0565 c -0.0262,0.004 -0.051,0.011 -0.0758,0.0207 l -0.004,0.004 -0.004,0.001 c -0.0138,0.01 -0.0262,0.0193 -0.04,0.0289 l -0.001,0.001 -0.003,0.001 -0.003,0.004 -0.004,0.003 -0.003,0.003 -0.003,0.001 c -0.008,0.007 -0.0152,0.0138 -0.0234,0.022 l -0.003,0.004 -0.01,0.011 -10e-4,0.003 -0.001,10e-4 c -0.0248,0.0469 -0.0455,0.0951 -0.062,0.14609 l -0.001,0.003 -10e-4,0.004 -0.003,0.001 h -0.01 l -0.007,-0.008 c -0.008,-0.0152 -0.0152,-0.0331 -0.0193,-0.0496 -0.0248,-0.13229 -0.0648,-0.26182 -0.11437,-0.38722 -0.022,-0.051 -0.0482,-0.10198 -0.0772,-0.15021 l -0.003,-0.003 -0.003,-0.004 c -0.0234,-0.0289 -0.0482,-0.0565 -0.0744,-0.0827 l -0.003,-0.001 c -0.003,-0.003 -0.006,-0.004 -0.007,-0.006 -0.0358,-0.0276 -0.0772,-0.0469 -0.12264,-0.0537 h -0.007 l -0.004,-0.003 h -0.0579 l -0.006,0.003 h -0.006 l -0.0289,0.006 c -0.0207,0.008 -0.04,0.0193 -0.0593,0.0317 -0.003,0.003 -0.007,0.006 -0.011,0.008 -0.004,10e-4 -0.006,0.004 -0.008,0.008 l -0.003,0.001 c -0.01,0.008 -0.0193,0.0165 -0.0276,0.0248 -0.003,0.004 -0.006,0.007 -0.008,0.01 -0.011,0.0179 -0.0207,0.0372 -0.0317,0.0551 -0.0124,0.0303 -0.0207,0.0634 -0.0234,0.0965 0,0.011 -0.001,0.0221 -0.001,0.0317 l 0.001,0.006 c 0.0152,0.1943 0.15434,0.38034 0.25218,0.5457 l 0.003,0.007 c 0.0386,0.0717 0.0786,0.14332 0.11576,0.21635 l 0.003,0.007 c 0.0207,0.0413 0.04,0.0813 0.0606,0.12127 l 0.003,0.006 0.011,0.0276 0.007,0.011 c 0.0551,0.11713 0.10749,0.23564 0.15985,0.35553 v 0.007 c 0.0124,0.0276 0.0234,0.0551 0.0344,0.0841 l 0.006,0.01 c 0.15297,0.38447 0.22876,0.77997 0.2949,1.18786 l 0.006,0.0124 0.007,0.01 0.01,0.007 0.011,0.004 0.0276,0.004 h 5.89662 l 0.004,-0.003 c 0.01,0 0.0179,0 0.0276,-0.001 l 0.0179,-0.004 0.011,-0.004 c 0.006,-0.006 0.01,-0.011 0.0152,-0.0165 l 0.007,-0.0193 c 0.007,-0.0413 0.011,-0.0841 0.0138,-0.12678 l 0.003,-0.007 c 0.0703,-0.54984 0.25494,-1.06936 0.49196,-1.56683 l 0.004,-0.0124 0.003,-0.006 c 0.0179,-0.0345 0.0358,-0.0689 0.0524,-0.10473 l 0.006,-0.01 c 0.004,-0.011 0.01,-0.0207 0.0165,-0.0317 l 0.001,-0.007 c 0.0124,-0.0179 0.022,-0.0386 0.0303,-0.0579 0.007,-0.0124 0.0138,-0.0248 0.0207,-0.0372 l 0.001,-0.006 c 0.0248,-0.0468 0.0496,-0.0923 0.0758,-0.13643 l 0.003,-0.008 c 0.0303,-0.0551 0.062,-0.10887 0.0923,-0.16399 l 0.003,-0.006 c 0.0234,-0.0372 0.0455,-0.0744 0.0648,-0.11438 l 10e-4,-0.004 0.007,-0.011 c 0.0303,-0.0593 0.0469,-0.12402 0.0482,-0.19017 l 0.001,-0.006 v -0.0165 l -0.001,-0.006"
         id="path833" />
      <path
         style="fill:#8f8f8f;fill-opacity:1;fill-rule:nonzero;stroke:none;stroke-width:0.352778"
         d="m 119.1436,115.09864 c 0,0.16812 -0.11989,0.30454 -0.26872,0.30454 -0.14882,0 -0.27009,-0.13642 -0.27009,-0.30454 0,-0.16675 0.12127,-0.30317 0.27009,-0.30317 0.14883,0 0.26872,0.13642 0.26872,0.30317"
         id="path835" />
      <path
         style="fill:#8f8f8f;fill-opacity:1;fill-rule:nonzero;stroke:none;stroke-width:0.352778"
         d="m 119.58871,114.41375 c 0,0.14883 -0.11025,0.2701 -0.24529,0.2701 -0.13505,0 -0.24392,-0.12127 -0.24392,-0.2701 0,-0.14883 0.10887,-0.27009 0.24392,-0.27009 0.13504,0 0.24529,0.12126 0.24529,0.27009"
         id="path837" />
      <path
         style="fill:#8f8f8f;fill-opacity:1;fill-rule:nonzero;stroke:none;stroke-width:0.352778"
         d="m 120.17575,113.94522 c 0,0.12678 -0.0951,0.22875 -0.21222,0.22875 -0.11713,0 -0.21084,-0.10197 -0.21084,-0.22875 0,-0.12816 0.0937,-0.23013 0.21084,-0.23013 0.11714,0 0.21222,0.10197 0.21222,0.23013"
         id="path839" />
      <path
         style="fill:#8f8f8f;fill-opacity:1;fill-rule:nonzero;stroke:none;stroke-width:0.352778"
         d="m 120.77933,113.61724 c 0,0.113 -0.0799,0.2012 -0.17776,0.2012 -0.0978,0 -0.17639,-0.0882 -0.17639,-0.2012 0,-0.11024 0.0785,-0.19981 0.17639,-0.19981 0.0978,0 0.17776,0.0896 0.17776,0.19981"
         id="path841" />
      <path
         style="fill:#8f8f8f;fill-opacity:1;fill-rule:nonzero;stroke:none;stroke-width:0.352778"
         d="m 121.39394,113.53318 c 0,0.10198 -0.0758,0.18466 -0.16812,0.18466 -0.0951,0 -0.17088,-0.0827 -0.17088,-0.18466 0,-0.0992 0.0758,-0.1819 0.17088,-0.1819 0.0923,0 0.16812,0.0827 0.16812,0.1819"
         id="path843" />
      <path
         style="fill:#8f8f8f;fill-opacity:1;fill-rule:nonzero;stroke:none;stroke-width:0.352778"
         d="m 121.89417,113.66272 c 0,0.0882 -0.0675,0.15985 -0.14746,0.15985 -0.0827,0 -0.14882,-0.0717 -0.14882,-0.15985 0,-0.0868 0.0661,-0.15847 0.14882,-0.15847 0.0799,0 0.14746,0.0717 0.14746,0.15847"
         id="path845" />
      <path
         style="fill:#8f8f8f;fill-opacity:1;fill-rule:nonzero;stroke:none;stroke-width:0.352778"
         d="m 121.52898,114.05822 c 0,0.0909 -0.0675,0.16398 -0.15158,0.16398 -0.0841,0 -0.15296,-0.073 -0.15296,-0.16398 0,-0.0896 0.0689,-0.16261 0.15296,-0.16261 0.0841,0 0.15158,0.073 0.15158,0.16261"
         id="path847" />
      <path
         style="fill:#8f8f8f;fill-opacity:1;fill-rule:nonzero;stroke:none;stroke-width:0.352778"
         d="m 120.89233,115.05867 c 0,0.15021 -0.113,0.27423 -0.2508,0.27423 -0.13781,0 -0.2508,-0.12402 -0.2508,-0.27423 0,-0.15158 0.11299,-0.27423 0.2508,-0.27423 0.1378,0 0.2508,0.12265 0.2508,0.27423"
         id="path849" />
      <path
         style="fill:#8f8f8f;fill-opacity:1;fill-rule:nonzero;stroke:none;stroke-width:0.352778"
         d="m 122.47432,115.04765 c 0,0.15158 -0.11162,0.27285 -0.2508,0.27285 -0.13781,0 -0.24943,-0.12127 -0.24943,-0.27285 0,-0.15021 0.11162,-0.27423 0.24943,-0.27423 0.13918,0 0.2508,0.12402 0.2508,0.27423"
         id="path851" />
      <path
         style="fill:#8f8f8f;fill-opacity:1;fill-rule:nonzero;stroke:none;stroke-width:0.352778"
         d="m 122.41506,114.35587 c 0,0.11576 -0.0854,0.20947 -0.19154,0.20947 -0.10611,0 -0.19017,-0.0937 -0.19017,-0.20947 0,-0.11575 0.0841,-0.21084 0.19017,-0.21084 0.1061,0 0.19154,0.0951 0.19154,0.21084"
         id="path853" />
      <path
         style="fill:#8f8f8f;fill-opacity:1;fill-rule:nonzero;stroke:none;stroke-width:0.352778"
         d="m 122.3627,113.80466 c 0,0.0841 -0.062,0.1502 -0.13918,0.1502 -0.0772,0 -0.13919,-0.0661 -0.13919,-0.1502 0,-0.0868 0.062,-0.15434 0.13919,-0.15434 0.0772,0 0.13918,0.0675 0.13918,0.15434"
         id="path855" />
      <path
         style="fill:#8f8f8f;fill-opacity:1;fill-rule:nonzero;stroke:none;stroke-width:0.352778"
         d="m 121.11144,114.44407 c 0,0.10749 -0.0813,0.1943 -0.1819,0.1943 -0.0992,0 -0.17915,-0.0868 -0.17915,-0.1943 0,-0.10749 0.0799,-0.19568 0.17915,-0.19568 0.10059,0 0.1819,0.0882 0.1819,0.19568"
         id="path857" />
      <path
         style="fill:#8f8f8f;fill-opacity:1;fill-rule:nonzero;stroke:none;stroke-width:0.352778"
         d="m 125.30481,115.09864 c 0,0.16812 0.11989,0.30454 0.26872,0.30454 0.1502,0 0.26871,-0.13642 0.26871,-0.30454 0,-0.16675 -0.11851,-0.30317 -0.26871,-0.30317 -0.14883,0 -0.26872,0.13642 -0.26872,0.30317"
         id="path859" />
      <path
         style="fill:#8f8f8f;fill-opacity:1;fill-rule:nonzero;stroke:none;stroke-width:0.352778"
         d="m 124.8597,114.41375 c 0,0.14883 0.11025,0.2701 0.24392,0.2701 0.13642,0 0.24529,-0.12127 0.24529,-0.2701 0,-0.14883 -0.10887,-0.27009 -0.24529,-0.27009 -0.13367,0 -0.24392,0.12126 -0.24392,0.27009"
         id="path861" />
      <path
         style="fill:#8f8f8f;fill-opacity:1;fill-rule:nonzero;stroke:none;stroke-width:0.352778"
         d="m 124.27266,113.94522 c 0,0.12678 0.0951,0.22875 0.21222,0.22875 0.11575,0 0.20946,-0.10197 0.20946,-0.22875 0,-0.12816 -0.0937,-0.23013 -0.20946,-0.23013 -0.11714,0 -0.21222,0.10197 -0.21222,0.23013"
         id="path863" />
      <path
         style="fill:#8f8f8f;fill-opacity:1;fill-rule:nonzero;stroke:none;stroke-width:0.352778"
         d="m 123.67046,113.61724 c 0,0.113 0.0785,0.2012 0.17501,0.2012 0.0992,0 0.17776,-0.0882 0.17776,-0.2012 0,-0.11024 -0.0785,-0.19981 -0.17776,-0.19981 -0.0965,0 -0.17501,0.0896 -0.17501,0.19981"
         id="path865" />
      <path
         style="fill:#8f8f8f;fill-opacity:1;fill-rule:nonzero;stroke:none;stroke-width:0.352778"
         d="m 123.05447,113.53318 c 0,0.10198 0.0758,0.18466 0.1695,0.18466 0.0923,0 0.16812,-0.0827 0.16812,-0.18466 0,-0.0992 -0.0758,-0.1819 -0.16812,-0.1819 -0.0937,0 -0.1695,0.0827 -0.1695,0.1819"
         id="path867" />
      <path
         style="fill:#8f8f8f;fill-opacity:1;fill-rule:nonzero;stroke:none;stroke-width:0.352778"
         d="m 122.55287,113.66272 c 0,0.0882 0.0675,0.15985 0.14883,0.15985 0.0827,0 0.14882,-0.0717 0.14882,-0.15985 0,-0.0868 -0.0661,-0.15847 -0.14882,-0.15847 -0.0813,0 -0.14883,0.0717 -0.14883,0.15847"
         id="path869" />
      <path
         style="fill:#8f8f8f;fill-opacity:1;fill-rule:nonzero;stroke:none;stroke-width:0.352778"
         d="m 122.91805,114.05822 c 0,0.0909 0.0689,0.16398 0.15296,0.16398 0.0841,0 0.15296,-0.073 0.15296,-0.16398 0,-0.0896 -0.0689,-0.16261 -0.15296,-0.16261 -0.0841,0 -0.15296,0.073 -0.15296,0.16261"
         id="path871" />
      <path
         style="fill:#8f8f8f;fill-opacity:1;fill-rule:nonzero;stroke:none;stroke-width:0.352778"
         d="m 123.55746,115.05867 c 0,0.15021 0.11024,0.27423 0.24942,0.27423 0.13781,0 0.24943,-0.12402 0.24943,-0.27423 0,-0.15158 -0.11162,-0.27423 -0.24943,-0.27423 -0.13918,0 -0.24942,0.12265 -0.24942,0.27423"
         id="path873" />
      <path
         style="fill:#8f8f8f;fill-opacity:1;fill-rule:nonzero;stroke:none;stroke-width:0.352778"
         d="m 123.33697,114.44407 c 0,0.10749 0.0813,0.1943 0.18052,0.1943 0.1006,0 0.1819,-0.0868 0.1819,-0.1943 0,-0.10749 -0.0813,-0.19568 -0.1819,-0.19568 -0.0992,0 -0.18052,0.0882 -0.18052,0.19568"
         id="path875" />
      <path
         style="fill:#8f8f8f;fill-opacity:1;fill-rule:nonzero;stroke:none;stroke-width:0.352778"
         d="m 134.02228,118.31084 c -0.001,0.0813 -0.0661,0.14608 -0.15158,0.14745 -0.0854,-0.001 -0.15021,-0.0648 -0.15159,-0.14745 0,-0.0827 0.0648,-0.14607 0.15159,-0.14607 0.0841,0 0.14882,0.0634 0.15158,0.14607"
         id="path877" />
      <path
         style="fill:#8f8f8f;fill-opacity:1;fill-rule:nonzero;stroke:none;stroke-width:0.352778"
         d="m 133.70946,118.0311 c -0.15158,0.10335 -0.42719,-0.062 -0.59393,-0.35967 -0.19293,-0.34864 -0.15434,-0.87643 -0.15434,-0.87643 0,0 0.44786,0.22049 0.66835,0.51539 0.21911,0.29352 0.24805,0.60358 0.0799,0.72071"
         id="path879" />
      <path
         style="fill:#8f8f8f;fill-opacity:1;fill-rule:nonzero;stroke:none;stroke-width:0.352778"
         d="m 132.59877,117.57773 c -0.18053,0.0358 -0.45062,-0.20947 -0.52366,-0.565 -0.0758,-0.35553 0.0606,-0.92053 0.0606,-0.92053 0,0 0.48782,0.42306 0.60495,0.77997 0.11989,0.35691 0.0386,0.6587 -0.14193,0.70556"
         id="path881" />
      <path
         style="fill:#8f8f8f;fill-opacity:1;fill-rule:nonzero;stroke:none;stroke-width:0.352778"
         d="m 132.9102,117.84093 c -0.0221,0.0565 -0.0841,0.0841 -0.14469,0.0648 -0.0579,-0.0207 -0.0882,-0.0813 -0.0675,-0.13918 0.0221,-0.0579 0.0841,-0.0854 0.1447,-0.0648 0.0592,0.0207 0.0896,0.0813 0.0675,0.13918"
         id="path883" />
      <path
         style="fill:#8f8f8f;fill-opacity:1;fill-rule:nonzero;stroke:none;stroke-width:0.352778"
         d="m 131.60244,116.93694 c -0.17776,0 -0.31143,-0.16399 -0.31143,-0.47129 0,-0.37207 0.31695,-0.81029 0.31695,-0.81029 0,0 0.30041,0.44787 0.30041,0.76481 0,0.31558 -0.12816,0.51677 -0.30593,0.51677"
         id="path885" />
      <path
         style="fill:#8f8f8f;fill-opacity:1;fill-rule:nonzero;stroke:none;stroke-width:0.352778"
         d="m 131.9814,117.42201 c -0.0427,0.0496 -0.11713,0.0565 -0.17087,0.0152 -0.051,-0.0427 -0.0579,-0.113 -0.0152,-0.16399 0.0455,-0.0482 0.11851,-0.0551 0.17225,-0.0138 0.051,0.0427 0.0579,0.11162 0.0138,0.16261"
         id="path887" />
      <path
         style="fill:#8f8f8f;fill-opacity:1;fill-rule:nonzero;stroke:none;stroke-width:0.352778"
         d="m 131.1973,116.78673 c -0.0441,0.0248 -0.0992,0.011 -0.1254,-0.0317 -0.0234,-0.0427 -0.008,-0.0937 0.0358,-0.11851 0.0455,-0.0234 0.0992,-0.0124 0.12402,0.0303 0.0248,0.0441 0.011,0.0951 -0.0344,0.11989"
         id="path889" />
      <path
         style="fill:#8f8f8f;fill-opacity:1;fill-rule:nonzero;stroke:none;stroke-width:0.352778"
         d="m 130.76598,115.73391 c -0.0772,0.0124 -0.1447,-0.0344 -0.1571,-0.10749 -0.01,-0.073 0.0413,-0.13918 0.11851,-0.15296 0.0772,-0.0124 0.14469,0.0331 0.15572,0.10749 0.011,0.0717 -0.04,0.13918 -0.11713,0.15296"
         id="path891" />
      <path
         style="fill:#8f8f8f;fill-opacity:1;fill-rule:nonzero;stroke:none;stroke-width:0.352778"
         d="m 131.02091,114.91811 c -0.0758,-0.0124 -0.12264,-0.0785 -0.10748,-0.15434 0.0165,-0.0758 0.0882,-0.12678 0.16536,-0.11713 0.0758,0.0124 0.12127,0.0799 0.10749,0.15434 -0.0179,0.0744 -0.0882,0.1254 -0.16537,0.11713"
         id="path893" />
      <path
         style="fill:#8f8f8f;fill-opacity:1;fill-rule:nonzero;stroke:none;stroke-width:0.352778"
         d="m 131.58315,117.45095 c -0.0592,0.18465 -0.27285,0.26871 -0.59393,0.16536 -0.38585,-0.12127 -0.73588,-0.59669 -0.73588,-0.59669 0,0 0.565,-0.16399 0.89297,-0.0593 0.32935,0.1061 0.49472,0.30454 0.43684,0.49058"
         id="path895" />
      <path
         style="fill:#8f8f8f;fill-opacity:1;fill-rule:nonzero;stroke:none;stroke-width:0.352778"
         d="m 132.49955,117.90846 c 0.0207,0.17225 -0.14056,0.32108 -0.47543,0.35553 -0.40238,0.04 -0.91639,-0.22049 -0.91639,-0.22049 0,0 0.452,-0.34313 0.79513,-0.37896 0.34451,-0.0345 0.57464,0.0689 0.59669,0.24392"
         id="path897" />
      <path
         style="fill:#8f8f8f;fill-opacity:1;fill-rule:nonzero;stroke:none;stroke-width:0.352778"
         d="m 133.34566,118.12619 c 0.0661,0.13918 -0.0262,0.30868 -0.2949,0.43132 -0.32521,0.14883 -0.82682,0.0758 -0.82682,0.0758 0,0 0.27974,-0.41479 0.55673,-0.54156 0.2756,-0.12541 0.49747,-0.10611 0.56499,0.0344"
         id="path899" />
      <path
         style="fill:#8f8f8f;fill-opacity:1;fill-rule:nonzero;stroke:none;stroke-width:0.352778"
         d="m 130.95063,116.569 c -0.11437,0.113 -0.31419,0.0813 -0.52779,-0.14056 -0.25907,-0.26871 -0.36104,-0.79099 -0.36104,-0.79099 0,0 0.50574,0.13229 0.72622,0.36242 0.22187,0.22876 0.27699,0.45476 0.16261,0.56913"
         id="path901" />
      <path
         style="fill:#8f8f8f;fill-opacity:1;fill-rule:nonzero;stroke:none;stroke-width:0.352778"
         d="m 131.08981,115.95026 c -0.11989,-0.022 -0.17776,-0.17363 -0.11989,-0.42719 0.0703,-0.30592 0.36794,-0.62563 0.36794,-0.62563 0,0 0.11713,0.4079 0.0551,0.66835 -0.0592,0.26183 -0.18328,0.40928 -0.30317,0.38447"
         id="path903" />
      <path
         style="fill:#8f8f8f;fill-opacity:1;fill-rule:nonzero;stroke:none;stroke-width:0.352778"
         d="m 130.92996,114.4923 c -0.11989,-0.004 -0.20257,-0.12954 -0.19155,-0.35829 0.0152,-0.27699 0.24667,-0.59669 0.24667,-0.59669 0,0 0.18466,0.34313 0.17088,0.5774 -0.0124,0.23564 -0.10611,0.38309 -0.226,0.37758"
         id="path905" />
      <path
         style="fill:#8f8f8f;fill-opacity:1;fill-rule:nonzero;stroke:none;stroke-width:0.352778"
         d="m 131.26896,114.42615 c -0.0675,-0.0634 -0.0482,-0.18052 0.0841,-0.31557 0.16123,-0.16123 0.46853,-0.24529 0.46853,-0.24529 0,0 -0.0799,0.30041 -0.21635,0.44097 -0.13643,0.13919 -0.26734,0.18053 -0.33624,0.11989"
         id="path907" />
      <path
         style="fill:#8f8f8f;fill-opacity:1;fill-rule:nonzero;stroke:none;stroke-width:0.352778"
         d="m 131.85876,113.39814 c -0.0593,-0.0537 -0.0427,-0.1571 0.0717,-0.27699 0.1378,-0.14469 0.40927,-0.21773 0.40927,-0.21773 0,0 -0.0689,0.26458 -0.18741,0.38723 -0.11851,0.12402 -0.23426,0.16123 -0.29352,0.10749"
         id="path909" />
      <path
         style="fill:#8f8f8f;fill-opacity:1;fill-rule:nonzero;stroke:none;stroke-width:0.352778"
         d="m 130.69983,115.33015 c -0.13091,0.0441 -0.27147,-0.0551 -0.35278,-0.30731 -0.1006,-0.30316 0.0165,-0.74414 0.0165,-0.74414 0,0 0.34175,0.29215 0.42443,0.5526 0.0841,0.25769 0.0441,0.45199 -0.0882,0.49885"
         id="path911" />
      <path
         style="fill:#8f8f8f;fill-opacity:1;fill-rule:nonzero;stroke:none;stroke-width:0.352778"
         d="m 131.29101,113.86391 c -0.1006,-0.0496 -0.12403,-0.18879 -0.0262,-0.38033 0.11851,-0.23289 0.43959,-0.42031 0.43959,-0.42031 0,0 0.0276,0.36381 -0.073,0.56362 -0.10059,0.19706 -0.2384,0.28801 -0.34037,0.23702"
         id="path913" />
      <path
         style="fill:#8f8f8f;fill-opacity:1;fill-rule:nonzero;stroke:none;stroke-width:0.352778"
         d="m 134.03193,118.0311 c 0.1502,0.10335 0.42719,-0.062 0.59255,-0.35967 0.19431,-0.34864 0.15572,-0.87643 0.15572,-0.87643 0,0 -0.44924,0.22049 -0.66835,0.51539 -0.21911,0.29352 -0.24942,0.60358 -0.0799,0.72071"
         id="path915" />
      <path
         style="fill:#8f8f8f;fill-opacity:1;fill-rule:nonzero;stroke:none;stroke-width:0.352778"
         d="m 135.14125,117.57773 c 0.1819,0.0358 0.45061,-0.20947 0.52503,-0.565 0.0744,-0.35553 -0.0606,-0.92053 -0.0606,-0.92053 0,0 -0.48783,0.42306 -0.60634,0.77997 -0.11851,0.35691 -0.0372,0.6587 0.14194,0.70556"
         id="path917" />
      <path
         style="fill:#8f8f8f;fill-opacity:1;fill-rule:nonzero;stroke:none;stroke-width:0.352778"
         d="m 134.82981,117.84093 c 0.022,0.0565 0.0841,0.0841 0.14469,0.0648 0.0606,-0.0207 0.0882,-0.0813 0.0689,-0.13918 -0.0221,-0.0579 -0.0854,-0.0854 -0.14608,-0.0648 -0.0579,0.0207 -0.0882,0.0813 -0.0675,0.13918"
         id="path919" />
      <path
         style="fill:#8f8f8f;fill-opacity:1;fill-rule:nonzero;stroke:none;stroke-width:0.352778"
         d="m 136.13895,116.93694 c 0.17776,0 0.31005,-0.16399 0.31005,-0.47129 0,-0.37207 -0.31694,-0.81029 -0.31694,-0.81029 0,0 -0.30042,0.44787 -0.30042,0.76481 0,0.31558 0.12816,0.51677 0.30731,0.51677"
         id="path921" />
      <path
         style="fill:#8f8f8f;fill-opacity:1;fill-rule:nonzero;stroke:none;stroke-width:0.352778"
         d="m 135.75861,117.42201 c 0.0427,0.0496 0.11851,0.0565 0.17225,0.0152 0.051,-0.0427 0.0579,-0.113 0.0138,-0.16399 -0.0441,-0.0482 -0.11851,-0.0551 -0.17087,-0.0138 -0.0524,0.0427 -0.0579,0.11162 -0.0152,0.16261"
         id="path923" />
      <path
         style="fill:#8f8f8f;fill-opacity:1;fill-rule:nonzero;stroke:none;stroke-width:0.352778"
         d="m 136.54271,116.78673 c 0.0455,0.0248 0.0992,0.011 0.1254,-0.0317 0.0248,-0.0427 0.01,-0.0937 -0.0345,-0.11851 -0.0455,-0.0234 -0.0992,-0.0124 -0.1254,0.0303 -0.0248,0.0441 -0.01,0.0951 0.0344,0.11989"
         id="path925" />
      <path
         style="fill:#8f8f8f;fill-opacity:1;fill-rule:nonzero;stroke:none;stroke-width:0.352778"
         d="m 136.97542,115.73391 c 0.0772,0.0124 0.14469,-0.0344 0.15571,-0.10749 0.01,-0.073 -0.0413,-0.13918 -0.11713,-0.15296 -0.0772,-0.0124 -0.14469,0.0331 -0.15572,0.10749 -0.011,0.0717 0.04,0.13918 0.11714,0.15296"
         id="path927" />
      <path
         style="fill:#8f8f8f;fill-opacity:1;fill-rule:nonzero;stroke:none;stroke-width:0.352778"
         d="m 136.7191,114.91811 c 0.0758,-0.0124 0.12265,-0.0785 0.10887,-0.15434 -0.0179,-0.0758 -0.0882,-0.12678 -0.16537,-0.11713 -0.0772,0.0124 -0.12264,0.0799 -0.10886,0.15434 0.0179,0.0744 0.0882,0.1254 0.16536,0.11713"
         id="path929" />
      <path
         style="fill:#8f8f8f;fill-opacity:1;fill-rule:nonzero;stroke:none;stroke-width:0.352778"
         d="m 136.15824,117.45095 c 0.0592,0.18465 0.27285,0.26871 0.59256,0.16536 0.38585,-0.12127 0.73862,-0.59669 0.73862,-0.59669 0,0 -0.56637,-0.16399 -0.8971,-0.0593 -0.32797,0.1061 -0.49196,0.30454 -0.43408,0.49058"
         id="path931" />
      <path
         style="fill:#8f8f8f;fill-opacity:1;fill-rule:nonzero;stroke:none;stroke-width:0.352778"
         d="m 135.24184,117.90846 c -0.0221,0.17225 0.14056,0.32108 0.47405,0.35553 0.40376,0.04 0.91777,-0.22049 0.91777,-0.22049 0,0 -0.45337,-0.34313 -0.79513,-0.37896 -0.34451,-0.0345 -0.57464,0.0689 -0.59669,0.24392"
         id="path933" />
      <path
         style="fill:#8f8f8f;fill-opacity:1;fill-rule:nonzero;stroke:none;stroke-width:0.352778"
         d="m 134.39435,118.12619 c -0.0661,0.13918 0.0276,0.30868 0.29628,0.43132 0.32384,0.14883 0.82682,0.0758 0.82682,0.0758 0,0 -0.27974,-0.41479 -0.55673,-0.54156 -0.27698,-0.12541 -0.49885,-0.10611 -0.56637,0.0344"
         id="path935" />
      <path
         style="fill:#8f8f8f;fill-opacity:1;fill-rule:nonzero;stroke:none;stroke-width:0.352778"
         d="m 136.79076,116.569 c 0.113,0.113 0.31281,0.0813 0.52779,-0.14056 0.25907,-0.26871 0.36104,-0.79099 0.36104,-0.79099 0,0 -0.50574,0.13229 -0.72622,0.36242 -0.22187,0.22876 -0.27837,0.45476 -0.16261,0.56913"
         id="path937" />
      <path
         style="fill:#8f8f8f;fill-opacity:1;fill-rule:nonzero;stroke:none;stroke-width:0.352778"
         d="m 136.6502,115.95026 c 0.11989,-0.022 0.17777,-0.17363 0.11989,-0.42719 -0.0703,-0.30592 -0.36656,-0.62563 -0.36656,-0.62563 0,0 -0.11851,0.4079 -0.0565,0.66835 0.0593,0.26183 0.18328,0.40928 0.30317,0.38447"
         id="path939" />
      <path
         style="fill:#8f8f8f;fill-opacity:1;fill-rule:nonzero;stroke:none;stroke-width:0.352778"
         d="m 136.81143,114.4923 c 0.11851,-0.004 0.20257,-0.12954 0.19017,-0.35829 -0.0152,-0.27699 -0.24667,-0.59669 -0.24667,-0.59669 0,0 -0.18328,0.34313 -0.17088,0.5774 0.0124,0.23564 0.10611,0.38309 0.22738,0.37758"
         id="path941" />
      <path
         style="fill:#8f8f8f;fill-opacity:1;fill-rule:nonzero;stroke:none;stroke-width:0.352778"
         d="m 136.47105,114.42615 c 0.0689,-0.0634 0.0482,-0.18052 -0.0841,-0.31557 -0.15985,-0.16123 -0.46853,-0.24529 -0.46853,-0.24529 0,0 0.0799,0.30041 0.21635,0.44097 0.13505,0.13919 0.26872,0.18053 0.33624,0.11989"
         id="path943" />
      <path
         style="fill:#8f8f8f;fill-opacity:1;fill-rule:nonzero;stroke:none;stroke-width:0.352778"
         d="m 135.88263,113.39814 c 0.0593,-0.0537 0.0427,-0.1571 -0.0717,-0.27699 -0.13918,-0.14469 -0.40927,-0.21773 -0.40927,-0.21773 0,0 0.0675,0.26458 0.18603,0.38723 0.11851,0.12402 0.23427,0.16123 0.2949,0.10749"
         id="path945" />
      <path
         style="fill:#8f8f8f;fill-opacity:1;fill-rule:nonzero;stroke:none;stroke-width:0.352778"
         d="m 137.04156,115.33015 c 0.12954,0.0441 0.27147,-0.0551 0.35278,-0.30731 0.0992,-0.30316 -0.0179,-0.74414 -0.0179,-0.74414 0,0 -0.34038,0.29215 -0.42306,0.5526 -0.0854,0.25769 -0.0441,0.45199 0.0882,0.49885"
         id="path947" />
      <path
         style="fill:#8f8f8f;fill-opacity:1;fill-rule:nonzero;stroke:none;stroke-width:0.352778"
         d="m 136.449,113.86391 c 0.1006,-0.0496 0.12541,-0.18879 0.0276,-0.38033 -0.11851,-0.23289 -0.4396,-0.42031 -0.4396,-0.42031 0,0 -0.0276,0.36381 0.073,0.56362 0.10059,0.19706 0.23702,0.28801 0.33899,0.23702"
         id="path949" />
      <path
         style="clip-rule:nonzero;fill:#26abe8;fill-opacity:1;fill-rule:nonzero;stroke:none;stroke-width:0.352778"
         d="m 239.518,127.85514 -1.2237,-0.36656 c -0.83234,-0.2701 -2.12907,-0.68627 -2.12907,-1.76251 0,-1.02802 1.17409,-1.54203 2.05603,-1.54203 0.93707,0 1.84106,0.31557 2.6169,0.81442 l 2.32061,-3.38859 c -1.62746,-0.88333 -3.81854,-1.43868 -5.62377,-1.43868 -3.69452,0 -6.3624,2.44602 -6.3624,6.19153 0,3.57188 1.983,4.35598 4.99263,5.21174 1.02802,0.29352 2.91179,0.7593 2.91179,2.10427 0,1.29811 -1.19889,1.86035 -2.32475,1.86035 -1.40973,0 -2.65548,-0.6339 -3.73999,-1.48002 l -2.42122,3.53605 c 1.85485,1.25953 4.06797,2.00642 6.33209,2.00642 1.86035,0 3.79374,-0.514 5.23792,-1.7377 1.46762,-1.2485 1.90859,-3.13228 1.90859,-4.96783 0,-2.98483 -1.98162,-4.28294 -4.55166,-5.04086 z m 29.01872,4.38078 1.983,-5.8732 h 0.0482 l 1.95819,5.8732 z m 4.64951,-11.57552 h -5.23655 l -6.57186,17.08492 -6.18326,-7.85758 6.91637,-9.22045 h -5.7533 l -6.12401,8.93933 v -8.93933 h -4.81211 v 18.44228 h 4.81211 v -8.95449 l 6.46576,8.95449 h 4.15478 l -10e-4,0.003 h 5.09048 l 1.27193,-3.2067 h 6.60769 l 1.19889,3.2067 h 5.11528 z m -48.93965,11.282 h -0.0482 l -8.78638,-11.282 h -4.79557 v 18.45193 h 4.79557 v -11.3068 h 0.0496 l 8.785,11.3068 h 4.79695 V 120.6604 h -4.79695 z m -20.40461,7.16993 h 4.79695 V 120.6604 h -4.79695 z m -7.56819,-18.45193 h -4.79557 v 18.45193 h 10.5475 v -4.06246 h -5.75193 z m -16.2953,14.41428 c -2.86219,0 -5.21174,-2.32475 -5.21174,-5.50664 0,-2.54524 2.34955,-4.86999 5.21174,-4.86999 2.86356,0 5.21312,2.32475 5.21312,4.86999 0,3.18189 -2.34956,5.50664 -5.21312,5.50664 z m 0,-15.02613 c -5.31096,0 -10.20438,3.91501 -10.20438,9.49468 0,5.97104 4.28157,10.18095 10.20438,10.18095 5.92281,0 10.20575,-4.20991 10.20575,-10.18095 0,-5.57967 -4.89479,-9.49468 -10.20575,-9.49468 z m -19.51716,8.88283 h -0.4644 v -4.60127 h 0.4644 c 1.56683,0 3.32796,0.2949 3.32796,2.30133 0,2.00642 -1.76113,2.29994 -3.32796,2.29994 z m 8.32059,-2.59346 c 0,-3.93982 -2.76572,-5.67752 -6.41201,-5.67752 h -7.16993 v 18.45193 h 4.79695 v -7.0969 h 0.0482 l 5.10977,7.0969 h 5.38951 l -5.80017,-7.56267 c 2.61828,-0.4644 4.03765,-2.66651 4.03765,-5.21174 z m -25.90849,5.898 1.98162,-5.8732 h 0.0496 l 1.95819,5.8732 z m -0.58705,-11.57552 -6.55257,17.03393 -6.14329,-7.80659 6.91637,-9.22045 h -5.75331 l -6.124,8.93933 v -8.93933 h -4.81073 v 18.44228 h 4.81073 v -8.95449 l 6.46576,8.95449 h 4.09415 v 0.003 h 5.08909 l 1.27331,-3.2067 h 6.60769 l 1.1989,3.2067 h 5.1139 l -6.94945,-18.45193 h -5.23655"
         id="path951" />
      <g
         clip-path="url(#clip2)"
         clip-rule="nonzero"
         id="g957"
         transform="matrix(0.35277779,0,0,0.35277779,118.2589,111.71004)">
        <path
           style="fill:#8f8f8f;fill-opacity:1;fill-rule:nonzero;stroke:none"
           d="m 88.417969,92.265625 h -0.433594 v -4.292969 h 0.433594 c 1.464843,0 3.109375,0.273438 3.109375,2.148438 0,1.871094 -1.644532,2.144531 -3.109375,2.144531 z M 96.1875,89.847656 c 0,-3.679687 -2.582031,-5.300781 -5.984375,-5.300781 h -6.695313 v 17.226565 h 4.476563 v -6.628909 h 0.04687 l 4.769531,6.628909 h 5.03125 L 92.417969,94.710938 C 94.863281,94.277344 96.1875,92.222656 96.1875,89.847656 Z m 11.03516,1.371094 -1.14063,-0.339844 c -0.77734,-0.253906 -1.98437,-0.640625 -1.98437,-1.644531 0,-0.960937 1.09375,-1.4375 1.91797,-1.4375 0.875,0 1.71484,0.292969 2.4375,0.757813 l 2.16796,-3.160157 c -1.51953,-0.824219 -3.5625,-1.34375 -5.24609,-1.34375 -3.44531,0 -5.933594,2.285157 -5.933594,5.777344 0,3.332031 1.847654,4.0625 4.656254,4.863281 0.95703,0.273438 2.71484,0.707032 2.71484,1.960938 0,1.210937 -1.11719,1.734375 -2.16797,1.734375 -1.3164,0 -2.47656,-0.589844 -3.48828,-1.378907 l -2.257812,3.296878 c 1.726562,1.17578 3.792972,1.87109 5.906252,1.87109 1.73437,0 3.53906,-0.47656 4.88281,-1.61719 1.37109,-1.167965 1.78125,-2.925778 1.78125,-4.636715 0,-2.785156 -1.84766,-3.996094 -4.24609,-4.703125 z m 61.85937,0 -1.14062,-0.339844 c -0.77735,-0.253906 -1.98829,-0.640625 -1.98829,-1.644531 0,-0.960937 1.09766,-1.4375 1.91797,-1.4375 0.875,0 1.71875,0.292969 2.44141,0.757813 l 2.16406,-3.160157 c -1.51562,-0.824219 -3.5625,-1.34375 -5.24219,-1.34375 -3.44921,0 -5.9375,2.285157 -5.9375,5.777344 0,3.332031 1.85157,4.0625 4.65625,4.863281 0.96094,0.273438 2.71875,0.707032 2.71875,1.960938 0,1.210937 -1.12109,1.734375 -2.16796,1.734375 -1.31641,0 -2.48047,-0.589844 -3.48829,-1.378907 l -2.26171,3.296878 c 1.73046,1.17578 3.79687,1.87109 5.90625,1.87109 1.73828,0 3.53906,-0.47656 4.88671,-1.61719 1.3711,-1.167965 1.78125,-2.925778 1.78125,-4.636715 0,-2.785156 -1.84765,-3.996094 -4.24609,-4.703125 z m 14.17969,0 -1.14453,-0.339844 c -0.77344,-0.253906 -1.98438,-0.640625 -1.98438,-1.644531 0,-0.960937 1.09375,-1.4375 1.91797,-1.4375 0.875,0 1.71875,0.292969 2.44141,0.757813 l 2.16406,-3.160157 c -1.51563,-0.824219 -3.5625,-1.34375 -5.24609,-1.34375 -3.44532,0 -5.9336,2.285157 -5.9336,5.777344 0,3.332031 1.84766,4.0625 4.65625,4.863281 0.95703,0.273438 2.71485,0.707032 2.71485,1.960938 0,1.210937 -1.11719,1.734375 -2.16797,1.734375 -1.3125,0 -2.47657,-0.589844 -3.48828,-1.378907 l -2.25782,3.296878 c 1.73047,1.17578 3.79297,1.87109 5.90625,1.87109 1.73438,0 3.53907,-0.47656 4.88672,-1.61719 1.36719,-1.167965 1.78125,-2.925778 1.78125,-4.636715 0,-2.785156 -1.85156,-3.996094 -4.24609,-4.703125 z m 99.875,0 -1.14453,-0.339844 c -0.77344,-0.253906 -1.98438,-0.640625 -1.98438,-1.644531 0,-0.960937 1.09375,-1.4375 1.91797,-1.4375 0.875,0 1.71484,0.292969 2.44141,0.757813 l 2.16406,-3.160157 c -1.51953,-0.824219 -3.5625,-1.34375 -5.24609,-1.34375 -3.44532,0 -5.9336,2.285157 -5.9336,5.777344 0,3.332031 1.84766,4.0625 4.65625,4.863281 0.95703,0.273438 2.71485,0.707032 2.71485,1.960938 0,1.210937 -1.11719,1.734375 -2.16797,1.734375 -1.31641,0 -2.47657,-0.589844 -3.48828,-1.378907 l -2.25782,3.296878 c 1.72657,1.17578 3.79297,1.87109 5.90625,1.87109 1.73438,0 3.53907,-0.47656 4.88672,-1.61719 1.36719,-1.167965 1.77735,-2.925778 1.77735,-4.636715 0,-2.785156 -1.84766,-3.996094 -4.24219,-4.703125 z m -47.10938,-6.703125 h -5.36718 l -5.71094,8.339844 v -8.339844 h -4.48828 v 17.203125 h 4.48828 v -8.351562 l 6.03125,8.351562 h 5.36719 l -6.77344,-8.601562 z m 66.14063,0.01953 v 3.792969 h 3.70312 v 13.445316 h 4.48047 V 88.328125 h 3.70313 v -3.792969 z m -12.19922,17.238285 h 9.80859 v -3.796879 h -5.32422 v -2.972656 h 5.05079 v -3.792968 h -5.05079 v -2.882813 h 5.32422 v -3.792969 h -9.80859 z m -22.07422,-8.164066 c 0,2.242187 -0.16016,4.6875 -3.03906,4.6875 -2.88281,0 -3.04297,-2.445313 -3.04297,-4.6875 v -9.074219 h -4.48047 v 9.691406 c 0,2.21875 0.0937,4.414063 1.80859,6.082029 1.4375,1.41797 3.70313,1.92188 5.71485,1.92188 2.01172,0 4.27344,-0.50391 5.71484,-1.92188 1.71485,-1.667966 1.8086,-3.863279 1.8086,-6.082029 v -9.691406 h -4.48438 z M 249.46094,91.1875 h -6.47266 v -6.652344 h -4.48047 v 17.238284 h 4.48047 v -7.066409 h 6.47266 v 7.066409 h 4.48047 V 84.535156 h -4.48047 z m -37.01563,2.421875 c 0,2.242187 -0.16015,4.6875 -3.03906,4.6875 -2.88281,0 -3.04297,-2.445313 -3.04297,-4.6875 v -9.074219 h -4.48047 v 9.691406 c 0,2.21875 0.0937,4.414063 1.8086,6.082028 1.4414,1.41797 3.70312,1.92188 5.71484,1.92188 2.01172,0 4.27734,-0.50391 5.71484,-1.92188 1.71485,-1.667965 1.8086,-3.863278 1.8086,-6.082028 v -9.691406 h -4.48438 z m -18.33203,2.285156 c 0,0.960938 0.0469,2.539063 -1.27734,2.539063 -0.59766,0 -1.30469,-0.777344 -1.8086,-1.464844 l -2.58203,2.722656 c 1.02735,1.578124 2.51563,2.539064 4.4375,2.539064 3.81641,0 5.71485,-2.425782 5.71485,-6.058595 V 84.535156 h -4.48438 z m -46.52734,-7.566406 h 3.69922 v 13.445315 h 4.48437 V 88.328125 h 3.70313 v -3.792969 h -11.88672 z m -12.19922,13.445315 h 9.80859 v -3.796878 h -5.32812 v -2.972656 h 5.05468 v -3.792968 h -5.05468 v -2.882813 h 5.32812 v -3.792969 h -9.80859 z M 121.01953,88.328125 h 3.70313 v 13.445315 h 4.48046 V 88.328125 h 3.70704 v -3.792969 h -11.89063 z m -6.92578,13.445315 h 4.48047 V 84.535156 h -4.48047 z m -43.691406,0 h 9.808594 v -3.796878 h -5.328126 v -2.972656 h 5.050782 v -3.792968 h -5.050782 v -2.882813 h 5.328126 V 84.535156 H 70.402344 Z M 59.191406,95.003906 55.027344,84.535156 H 50.15625 l 7.25,17.238284 h 3.476562 L 68.242188,84.535156 H 63.375 Z M 43.5625,101.77344 h 4.480469 V 84.535156 H 43.5625 Z m -7.972656,-6.699221 h -0.04687 L 27.335938,84.535156 h -4.480469 v 17.238284 h 4.480469 V 91.210938 h 0.04687 l 8.207032,10.562502 h 4.480468 V 84.535156 H 35.589844 Z M 14.984375,93.609375 c 0,2.242187 -0.160156,4.6875 -3.042969,4.6875 -2.878906,0 -3.039062,-2.445313 -3.039062,-4.6875 V 84.535156 H 4.421875 v 9.691406 c 0,2.21875 0.089844,4.414063 1.804687,6.082028 1.441407,1.41797 3.703126,1.92188 5.714844,1.92188 2.015625,0 4.277344,-0.50391 5.71875,-1.92188 1.714844,-1.667965 1.804688,-3.863278 1.804688,-6.082028 v -9.691406 h -4.480469 v 9.074219"
           id="path955" />
      </g>
    </g>
  </g>
  <style
     type="text/css"
     id="style167">
	.st0{fill:#97999B;}
	.st1{fill:#00A3E0;}
</style>
</svg>
