<svg xmlns="http://www.w3.org/2000/svg" width="259.125" height="58.509" viewBox="0 0 68.56 15.48"><defs><clipPath id="a"><path d="M4 84h311v18.23H4Zm0 0"/></clipPath></defs><path d="M122.247 113.298a.6.6 0 0 0 .185-.061l.034-.022.001-.003.008-.004.001-.001.006-.003a.03.03 0 0 1 .014-.012q.025-.03.052-.056l.003-.004.008-.008.001-.003q.004-.002.006-.006s.001-.004.003-.004l.003-.006h.003l.043-.078.003-.004a.5.5 0 0 0 .037-.157l.003-.012v-.053l-.003-.012a.5.5 0 0 0-.073-.218l-.004-.004v-.004l-.046-.056-.011-.01-.003-.003q-.01-.007-.018-.015l-.003-.001-.003-.006-.004-.001-.004-.004a.5.5 0 0 0-.144-.082.1.1 0 0 1-.022-.018l-.007-.01-.01-.038v-.037l-.009-.065v-.019l.004-.011.006-.004.016-.007h.013l.083.016h.011l.012.003h.01l.006.001h.043a.1.1 0 0 0 .041-.009.1.1 0 0 0 .04-.027.1.1 0 0 0 .021-.05v-.026a.1.1 0 0 0-.032-.062l-.002-.003-.024-.014a.4.4 0 0 0-.192.014h-.01l-.003.001q-.012-.002-.023-.006l-.007-.007-.003-.006-.003-.011a.4.4 0 0 0-.01-.237l-.016-.017q-.014-.012-.033-.022l-.018-.004h-.026l-.018.006-.013.008-.004.006h-.004a.2.2 0 0 0-.028.04.2.2 0 0 0-.012.07v.007q0 .013.003.026v.01l.003.005q.009.054.012.109a.04.04 0 0 1-.008.018l-.003.004h-.004l-.012.002h-.01l-.005-.001h-.004a1 1 0 0 0-.147-.022q-.028.006-.055.016l-.018.013-.006.006-.008.007v.003h-.003a.1.1 0 0 0-.013.028q-.004.02-.003.04a.1.1 0 0 0 .033.065l.014.01q.028.014.06.015h.016l.012-.003a1 1 0 0 0 .13-.022h.016l.018.008.001.003h.001l.004.01.001.019v.013l-.001.004a.5.5 0 0 1-.028.14l-.007.009a1 1 0 0 0-.132.073l-.012.008-.001.003-.01.006-.003.006h-.003a.4.4 0 0 0-.053.055l-.003.003v.003l-.004.003-.006.007v.003l-.002.001a.4.4 0 0 0-.038.066l-.001.003a.5.5 0 0 0-.053.194v.004c0 .101.028.2.082.286h.001l.004.007.003.003.001.003.004.007h.001l.012.017q.005.004.007.01l.003.001.023.024.004.003h.003l.004.005.006.004.006.006.003.003.004.003a.01.01 0 0 1 .008.008h.003a.47.47 0 0 0 .276.089m1.646 4.659c-.18 0-.326-.095-.326-.214 0-.115.147-.212.326-.212.177 0 .324.097.324.212 0 .119-.147.214-.324.214m-1.677 0c-.18 0-.324-.095-.324-.214 0-.115.144-.212.324-.212.177 0 .323.097.323.212 0 .119-.146.214-.323.214m-1.666 0c-.18 0-.324-.095-.324-.214 0-.115.144-.212.324-.212.179 0 .323.097.323.212 0 .119-.144.214-.323.214m5.637-2.147v-.032a.3.3 0 0 0-.04-.103l-.002-.003-.011-.016-.001-.004-.004-.004-.001-.003-.006-.004h-.001l-.016-.02-.004-.003-.01-.01-.004-.004-.007-.007-.02-.015-.028-.014-.023-.008-.036-.007h-.01l-.044-.002-.024.004h-.01l-.019.006a.3.3 0 0 0-.06.03l-.063.058v.003l-.017.017-.001.004-.008.01-.001.004-.008.008-.001.003-.006.004a1 1 0 0 0-.062.112c-.066.154-.103.316-.148.476l-.006.011-.006.004-.004.001h-.004l-.008-.009-.028-.08-.006-.008-.001-.007-.014-.024-.004-.003-.001-.004-.046-.057h-.004l-.008-.013-.004-.001v-.001l-.005-.001v-.004l-.023-.015-.036-.017q-.03-.009-.063-.014h-.036l-.004.003h-.039a.3.3 0 0 0-.075.036l-.001.003-.006.003-.004.006-.003.001-.007.008-.004.001-.001.003-.035.035v.004a.25.25 0 0 0-.05.1l-.004.024v.103q.01.061.042.11l.003.004.004.008.023.033.004.003.044.034.018.01q.052.021.106.028h.03l.04-.007h.01l.006-.004h.02l.01.007.009.008.004.008.006.02-.003.032a1 1 0 0 1-.051.166l-.004.004a1 1 0 0 1-.045.086v.001l-.013.021-.003.001v.004l-.004.003-.004.007v.003l-.004.003-.003.004a.3.3 0 0 1-.039.047l-.003.003-.015.017-.004.003-.012.013-.003.003-.004.006-.004.003-.001.001-.004.001-.001.003-.007.004-.003.003-.02.018-.005.001-.003.001-.003.006-.004.001v.003a.7.7 0 0 1-.307.123h-.13a.6.6 0 0 1-.227-.085l-.004-.004-.003-.002-.013-.01-.001-.004q-.005-.001-.01-.006h-.001l-.02-.014v-.001l-.01-.007-.008-.007-.008-.006-.006-.006v-.001l-.005-.003-.004-.004-.003-.003-.004-.001-.004-.004-.003-.003-.048-.05-.001-.003-.007-.008-.008-.008-.001-.003-.003-.004-.001-.006h-.003l-.001-.004q-.002-.004-.006-.007l-.014-.02-.004-.002-.037-.062-.04-.087-.003-.006a1 1 0 0 1-.07-.287q0-.014.003-.027l.004-.013.006-.006h.012l.015.003.018.011v.001l.009.006v.001l.005.003v.001l.002.003.003.004.004.001v.001l.009.006.003.004q.03.02.056.04.052.027.108.044.023.007.047.004l.006.004h.034l.051-.008a.4.4 0 0 0 .065-.026l.026-.018.001-.003.004-.003.028-.026v-.003l.01-.01.004-.005a.5.5 0 0 0 .044-.085l.008-.033v-.036l.003-.006v-.026l-.003-.006v-.033a.3.3 0 0 0-.04-.108l-.037-.043h-.004l-.011-.014-.003-.001-.004-.006a.3.3 0 0 0-.076-.043l-.03-.006h-.014l-.006-.001-.087.003a.6.6 0 0 0-.105.036l-.004.003-.114.073-.018.007-.007-.001-.006-.004-.001-.003v-.01l.013-.025.003-.001.001-.003.003-.001.001-.004a.6.6 0 0 0 .1-.247v-.007l.002-.016a.3.3 0 0 0-.003-.058l-.001-.008-.001-.011a.3.3 0 0 0-.033-.095l-.003-.003-.001-.004a.2.2 0 0 0-.039-.047l-.004-.003-.01-.013-.004-.003a.3.3 0 0 0-.04-.029h-.004l-.006-.005-.041-.016-.035-.007h-.006l-.006-.001a.4.4 0 0 0-.066.003l-.038.01-.062.035-.006.004-.006.003-.033.039-.001.004-.004.004-.001.003-.003.003a.3.3 0 0 0-.05.143l-.001.006v.064q.027.152.114.277l.003.011v.015l-.002.006h-.001l-.004.003-.006.001-.008-.003-.128-.085a1 1 0 0 0-.091-.036l-.053-.01h-.008l-.006-.002h-.034l-.053.013a.4.4 0 0 0-.073.042l-.003.003-.003.001v.004l-.005.001-.016.017-.001.004-.012.012-.001.004-.003.001-.003.004-.001.001-.001.004a.3.3 0 0 0-.05.138v.014l-.001.006v.012l.001.006v.014a.32.32 0 0 0 .087.186q.031.026.067.044a.4.4 0 0 0 .07.02q.04.001.08-.005l.012-.003h.017a.5.5 0 0 0 .124-.052l.01-.007a.4.4 0 0 0 .06-.037v-.003l.036-.023.013-.006h.012l.008.005.006.01.004.016v.017l-.003.006a.9.9 0 0 1-.115.36l-.001.004-.007.012-.003.001-.001.003-.004.003-.01.015-.001.001-.004.01-.01.014-.001.003-.007.007-.014.02-.004.007-.001.003a.4.4 0 0 1-.046.05l-.007.008h-.003q-.001.005-.006.007l-.01.01-.005.002-.004.004-.005.004v.003h-.004l-.003.004h-.003l-.003.004-.004.003q-.001.003-.004.004l-.004.003-.007.007h-.003v.003a.03.03 0 0 0-.013.01l-.004.002-.001.003a.7.7 0 0 1-.308.128h-.033l-.006.004h-.014l-.014.003h-.02l-.006.002h-.034l-.007-.001h-.008l-.014-.003h-.008l-.015-.004h-.008l-.004-.001H123l-.014-.003h-.008q-.041-.008-.083-.02l-.01-.003a.6.6 0 0 1-.118-.053l-.011-.006-.07-.044-.028-.022-.003-.003-.008-.004q-.045-.042-.088-.085l-.001-.006-.014-.014-.001-.004q-.01-.01-.018-.023l-.003-.001q-.006-.008-.01-.018l-.004-.001v-.003l-.004-.004q-.03-.049-.056-.098l-.006-.017-.004-.004a.8.8 0 0 1-.064-.216v-.065l.004-.008.004-.003.01-.003h.008q.106.069.226.102l.018.001.004.001h.02q.045-.005.089-.02.021-.009.041-.021l.001-.001.014-.01.001-.001.004-.004.003-.003q.004-.002.007-.006l.007-.004.022-.025.001-.004.006-.006.001-.003.003-.003q.007-.014.015-.025a.3.3 0 0 0 .025-.069l.004-.029v-.02l.003-.005q0-.038-.003-.076l-.01-.044-.034-.063v-.001l-.024-.033-.003-.001-.013-.013-.006-.004-.003-.003-.019-.016-.007-.001-.004-.003a.2.2 0 0 0-.081-.028h-.013l-.006-.001h-.031l-.006.001h-.016a.6.6 0 0 0-.109.035l-.022.013-.003.001-.086.055-.008.006-.017.007h-.01l-.007-.003-.003-.006v-.013l.006-.022a1 1 0 0 0 .091-.246v-.015l.003-.006v-.067a.3.3 0 0 0-.077-.173h-.004l-.007-.008-.006-.003-.003-.004-.028-.02-.007-.001-.004-.004-.053-.025-.034-.004h-.008l-.004-.003h-.026l-.006.003h-.01l-.035.006-.075.036-.01.01-.005.004-.01.01-.008.005-.022.023v.003l-.004.003v.004h-.002v.004l-.004.001a.33.33 0 0 0-.052.157.85.85 0 0 0 .106.334l-.001.01-.004.007-.006.004h-.011a.2.2 0 0 1-.04-.02l-.01-.01-.022-.011-.012-.011-.006-.001a.5.5 0 0 0-.167-.065h-.04a.3.3 0 0 0-.083.022l-.03.02-.001.002-.003.001-.008.008-.003.001-.003.003-.006.003-.003.004-.007.006-.001.001-.022.027h-.001l-.008.016-.003.006h-.003q-.002.006-.006.009l-.003.006h-.003l-.011.02-.013.033-.004.03v.016a.4.4 0 0 0 .021.153q.019.048.054.084l.003.001.007.007.041.032a.4.4 0 0 0 .1.032h.048a.4.4 0 0 0 .15-.051l.003-.003.04-.023a.14.14 0 0 1 .05-.027h.013l.007.004.007.01.003.016v.028l-.003.02-.003.007a.8.8 0 0 1-.128.332l-.008.012-.002.004a1 1 0 0 1-.082.097h-.004l-.006.008h-.003l-.004.007-.003.003h-.004l-.001.002-.004.003-.006.008h-.004l-.003.005h-.003l-.007.008h-.001l-.007.01h-.004l-.004.006a.6.6 0 0 1-.137.082l-.004.004a.7.7 0 0 1-.194.06h-.008l-.032.006a1 1 0 0 1-.16-.006h-.008v-.006h-.026a.7.7 0 0 1-.282-.131l-.006-.003a.01.01 0 0 0-.007-.007l-.014-.011-.003-.001-.011-.007-.001-.003-.003-.001-.001-.001-.043-.043-.003-.004v-.001l-.052-.056v-.004l-.004-.001-.003-.006-.003-.004-.012-.02h-.001l-.014-.023h-.001q-.03-.045-.051-.09a.8.8 0 0 1-.07-.225v-.011l-.001-.007a.3.3 0 0 1-.004-.049l-.001-.006v-.02l.002-.01.006-.013h.003l.004-.004h.01l.013.004.02.012.004.003.003.004.006.003v.003l.005.003q.03.022.061.04.054.03.112.049l.033.004h.014l.006.004h.074l.057-.011a.2.2 0 0 0 .062-.036l.029-.022.01-.014.002-.003.003-.001.022-.036.003-.007.003-.006a.3.3 0 0 0 .03-.099v-.05h.002v-.008l-.006-.006v-.02l-.004-.01v-.026q-.006-.022-.014-.042l-.023-.04-.003-.001-.004-.008-.003-.003-.003-.004-.003-.003-.001-.003q-.009-.008-.015-.018l-.017-.017h-.003l-.003-.007-.007-.003v-.003l-.016-.01a.5.5 0 0 0-.103-.033.2.2 0 0 0-.054.003 1 1 0 0 0-.135.047l-.117.081-.013.006-.008.001h-.003l-.003-.005v-.015l.002-.014c.058-.09.1-.193.115-.298v-.03l-.018-.078-.035-.076a.2.2 0 0 0-.038-.044l-.043-.035h-.006l-.004-.004-.066-.026-.034-.004h-.03a.3.3 0 0 0-.085.025l-.05.036-.009.01h-.004l-.003.005-.003.003-.003.004-.004.003v.003l-.012.012v.003l-.002.004-.003.001v.004a.3.3 0 0 0-.034.057l-.02.08v.085q.014.065.038.126l.003.004.003.007a1 1 0 0 0 .055.1.1.1 0 0 1 .022.035l.003.011v.011l-.005.003-.006.001-.015-.008a.6.6 0 0 0-.233-.11h-.051l-.007-.003-.004.003h-.045l-.043.011-.028.015-.004.004a.3.3 0 0 0-.067.058v.004a.25.25 0 0 0-.057.152q-.002.052.007.104.015.046.04.087l.003.003.001.004.006.006.004.006.003.004.03.03.004.004h.001l.022.017.035.017a.4.4 0 0 0 .083.017h.033q.076-.014.147-.045l.026-.018h.001l.017-.012.016-.01.001-.004.01-.007.003-.003.007-.004h.001l.004-.004.01-.01.001-.003h.004l.006-.007.015-.01.01-.007.01-.004h.008l.008.004q.005.01.007.022a.4.4 0 0 1-.006.076v.007a.8.8 0 0 1-.092.29v.003l-.019.035-.003.006-.02.038q-.004.002-.007.007l-.003.006-.001.001-.003.004-.003.003-.001.004-.004.003-.003.006-.001.004-.007.007a1 1 0 0 1-.07.079l-.015.014-.019.018-.006.003-.003.004h-.004v.005l-.008.004-.005.004-.003.003-.018.013v.001l-.053.036a.6.6 0 0 1-.22.076h-.094a1 1 0 0 1-.173-.043q-.05-.026-.102-.05l-.008-.008h-.004l-.026-.017v-.001l-.008-.003v-.004l-.004-.003-.008-.006v-.001l-.005-.001v-.004l-.007-.003-.006-.006-.004-.003v-.001l-.004-.001-.012-.013h-.003l-.001-.003-.004-.003h-.003l-.003-.004-.037-.037-.001-.004-.011-.011-.001-.004-.004-.006-.008-.008-.001-.004-.004-.004-.003-.004-.004-.004-.004-.01-.006-.003-.003-.007a.8.8 0 0 1-.117-.29v-.024l.003-.015.007-.014.008-.004.016-.004h.006l.052.008h.014q.06 0 .116-.021a.4.4 0 0 0 .058-.039l.029-.032.003-.003.01-.012.001-.004h.003l.007-.013.003-.001.007-.013.001-.003.014-.022a.4.4 0 0 0 .025-.095v-.016a.4.4 0 0 0-.05-.17l-.006-.005a.2.2 0 0 0-.034-.039h-.003l-.006-.01-.004-.002-.005-.004-.005-.004-.026-.019a.2.2 0 0 0-.052-.02l-.035-.008h-.056a.4.4 0 0 0-.076.021l-.004.004-.004.001-.04.03-.004.001-.003.004-.004.003-.003.003-.003.001-.023.022-.003.004-.01.011-.001.003-.001.001a1 1 0 0 0-.062.146l-.001.003-.001.004-.003.001h-.01l-.007-.008a.2.2 0 0 1-.02-.05 2 2 0 0 0-.114-.387 1 1 0 0 0-.077-.15l-.003-.003-.003-.004a1 1 0 0 0-.075-.083h-.003l-.007-.007a.3.3 0 0 0-.122-.053h-.007l-.004-.003h-.058l-.006.003h-.006l-.029.006a.3.3 0 0 0-.07.04q-.005 0-.008.007l-.003.001-.028.025-.008.01-.032.055a.3.3 0 0 0-.023.097l-.001.032.001.006c.015.194.154.38.252.545l.003.007q.06.108.116.217l.003.007.06.12.004.007.01.027.008.011q.082.176.16.356v.007l.034.084.006.01c.153.385.229.78.295 1.188l.006.012.007.01.01.007.01.004.028.004h5.897l.004-.003h.027l.018-.005.011-.004.016-.016.007-.02q.01-.062.013-.126l.003-.007c.07-.55.255-1.07.492-1.567l.004-.012.003-.006.053-.105.006-.01.016-.032.001-.007a.3.3 0 0 0 .03-.058l.021-.037.001-.006q.037-.07.076-.136l.003-.008.092-.164.003-.006q.036-.056.065-.115l.001-.004.007-.01a.44.44 0 0 0 .048-.191l.001-.006v-.022m-7.053-.711c0 .168-.12.304-.27.304-.148 0-.27-.136-.27-.304s.122-.304.27-.304c.15 0 .27.137.27.304m.445-.685c0 .149-.11.27-.246.27-.135 0-.243-.121-.243-.27s.108-.27.243-.27.246.12.246.27m.587-.469c0 .127-.095.229-.212.229-.118 0-.211-.102-.211-.229 0-.128.093-.23.21-.23.118 0 .213.102.213.23m.604-.328c0 .113-.08.201-.178.201s-.177-.088-.177-.2c0-.111.079-.2.177-.2s.177.089.177.2m.615-.085c0 .102-.076.185-.168.185-.095 0-.171-.083-.171-.185 0-.099.076-.182.17-.182.093 0 .169.083.169.182m.5.13c0 .088-.067.16-.147.16-.083 0-.15-.072-.15-.16 0-.087.067-.159.15-.159.08 0 .147.072.147.159m-.365.395c0 .091-.068.164-.152.164s-.153-.073-.153-.164c0-.09.07-.162.153-.162.085 0 .152.073.152.162m-.637 1.001c0 .15-.113.274-.25.274-.138 0-.251-.124-.251-.274 0-.152.113-.275.25-.275.138 0 .251.123.251.275m1.582-.011c0 .151-.111.273-.25.273-.138 0-.25-.122-.25-.273 0-.15.112-.275.25-.275.139 0 .25.124.25.275m-.059-.692c0 .116-.085.21-.191.21-.107 0-.19-.094-.19-.21s.083-.211.19-.211c.106 0 .191.095.191.21m-.052-.55c0 .084-.062.15-.14.15-.077 0-.139-.066-.139-.15 0-.087.062-.155.14-.155.077 0 .139.068.139.155m-1.252.639c0 .108-.08.194-.181.194s-.18-.086-.18-.194c0-.107.08-.196.18-.196s.181.089.181.196m4.194.655c0 .168.12.304.269.304s.268-.136.268-.304-.118-.304-.268-.304-.27.137-.27.304m-.444-.685c0 .149.11.27.244.27.136 0 .245-.121.245-.27s-.109-.27-.245-.27c-.134 0-.244.12-.244.27m-.587-.469c0 .127.095.229.212.229s.21-.102.21-.229c0-.128-.094-.23-.21-.23-.117 0-.212.102-.212.23m-.603-.328c0 .113.079.201.175.201.1 0 .178-.088.178-.2 0-.111-.078-.2-.178-.2-.096 0-.175.089-.175.2m-.616-.085c0 .102.076.185.17.185.092 0 .168-.083.168-.185 0-.099-.076-.182-.168-.182-.094 0-.17.083-.17.182m-.501.13c0 .088.067.16.149.16s.149-.072.149-.16c0-.087-.067-.159-.15-.159-.08 0-.148.072-.148.159m.365.395c0 .091.069.164.153.164s.153-.073.153-.164c0-.09-.069-.162-.153-.162s-.153.073-.153.162m.639 1.001c0 .15.11.274.25.274.138 0 .25-.124.25-.274 0-.152-.112-.275-.25-.275-.14 0-.25.123-.25.275m-.22-.615c0 .108.081.194.18.194.101 0 .182-.086.182-.194 0-.107-.08-.196-.182-.196-.099 0-.18.089-.18.196m10.685 3.866a.15.15 0 0 1-.151.148.15.15 0 0 1-.152-.147c0-.083.065-.146.152-.146a.15.15 0 0 1 .151.146m-.312-.28c-.152.103-.428-.062-.594-.36-.193-.348-.155-.876-.155-.876s.448.22.669.515c.219.294.248.604.08.721m-1.111-.453c-.18.036-.45-.21-.524-.565-.076-.356.06-.92.06-.92s.489.422.606.78c.12.356.038.658-.142.705m.311.262a.115.115 0 0 1-.144.066.11.11 0 0 1-.068-.14.11.11 0 0 1 .145-.064c.059.02.09.081.067.139m-1.308-.904c-.177 0-.311-.164-.311-.471 0-.372.317-.81.317-.81s.3.447.3.764c0 .316-.128.517-.306.517m.379.485a.124.124 0 0 1-.17.015.114.114 0 0 1-.016-.164.13.13 0 0 1 .173-.014.11.11 0 0 1 .013.163m-.784-.635a.093.093 0 0 1-.125-.032.087.087 0 0 1 .036-.118c.045-.024.099-.013.124.03a.085.085 0 0 1-.035.12m-.431-1.053c-.077.012-.145-.034-.157-.108-.01-.073.041-.139.118-.153.078-.012.145.034.156.108a.137.137 0 0 1-.117.153m.254-.816a.127.127 0 0 1-.107-.154.15.15 0 0 1 .166-.117c.076.012.121.08.107.154a.154.154 0 0 1-.165.117m.562 2.533c-.06.185-.273.269-.594.165-.386-.121-.736-.596-.736-.596s.565-.164.893-.06c.33.106.495.305.437.49m.917.458c.02.173-.141.322-.476.356-.402.04-.916-.22-.916-.22s.452-.344.795-.38c.344-.034.575.07.597.244m.846.218c.066.14-.027.309-.295.432-.325.148-.827.075-.827.075s.28-.414.557-.541c.275-.126.497-.106.565.034m-2.396-1.557c-.114.113-.314.081-.527-.14-.26-.27-.361-.792-.361-.792s.506.133.726.363c.222.229.277.455.163.569m.139-.619c-.12-.022-.178-.173-.12-.427.07-.306.368-.626.368-.626s.117.408.055.669c-.06.262-.183.41-.303.384m-.16-1.458c-.12-.004-.203-.13-.192-.358.016-.277.247-.597.247-.597s.185.343.171.578c-.012.235-.106.383-.226.377m.339-.066c-.068-.063-.048-.18.084-.315.161-.162.469-.246.469-.246s-.08.3-.217.441c-.136.14-.267.18-.336.12m.59-1.028c-.06-.054-.043-.157.071-.277.138-.145.41-.218.41-.218s-.07.265-.188.388c-.118.124-.234.16-.293.107m-1.159 1.932c-.131.044-.272-.055-.353-.307-.1-.303.017-.744.017-.744s.341.292.424.552c.084.258.044.452-.088.5m.591-1.467c-.1-.05-.124-.189-.026-.38.118-.233.44-.42.44-.42s.027.363-.074.563c-.1.197-.238.288-.34.237m2.741 4.167c.15.103.427-.062.592-.36.195-.348.156-.876.156-.876s-.449.22-.668.515c-.22.294-.25.604-.08.721m1.109-.453c.182.036.45-.21.525-.565.075-.356-.06-.92-.06-.92s-.488.422-.607.78c-.118.356-.037.658.142.705m-.311.262a.115.115 0 0 0 .144.066.11.11 0 0 0 .07-.14.114.114 0 0 0-.147-.064.11.11 0 0 0-.067.139m1.309-.904c.178 0 .31-.164.31-.471 0-.372-.317-.81-.317-.81s-.3.447-.3.764c0 .316.128.517.307.517m-.38.485c.042.05.118.057.172.015a.11.11 0 0 0 .014-.164.126.126 0 0 0-.171-.014.11.11 0 0 0-.015.163m.784-.635c.045.025.099.01.125-.032a.084.084 0 0 0-.034-.118c-.046-.024-.1-.013-.126.03a.086.086 0 0 0 .035.12m.432-1.053c.078.012.145-.034.156-.108a.14.14 0 0 0-.117-.153c-.077-.012-.145.034-.156.108-.01.072.04.14.117.153m-.255-.816a.13.13 0 0 0 .108-.154.15.15 0 0 0-.165-.117.13.13 0 0 0-.11.154.154.154 0 0 0 .166.117m-.561 2.533c.06.185.273.269.593.165.386-.121.738-.596.738-.596s-.566-.164-.897-.06c-.328.106-.492.305-.434.49m-.916.458c-.022.173.14.322.474.356.404.04.918-.22.918-.22s-.454-.344-.795-.38c-.345-.034-.575.07-.597.244m-.848.218c-.066.14.028.309.297.432.323.148.826.075.826.075s-.28-.414-.556-.541c-.277-.126-.5-.106-.567.034m2.396-1.557c.114.113.314.081.529-.14.259-.27.36-.792.36-.792s-.505.133-.726.363-.278.455-.162.569m-.141-.619c.12-.022.178-.173.12-.427-.07-.306-.366-.626-.366-.626s-.119.408-.057.669c.06.262.183.41.303.384m.161-1.458c.119-.004.203-.13.19-.358-.015-.277-.246-.597-.246-.597s-.183.343-.17.578c.011.235.105.383.226.377m-.34-.066c.069-.063.048-.18-.084-.315-.16-.162-.469-.246-.469-.246s.08.3.217.441c.135.14.268.18.336.12m-.588-1.028c.059-.054.042-.157-.072-.277-.14-.145-.41-.218-.41-.218s.068.265.187.388c.118.124.234.16.295.107m1.159 1.932c.13.044.271-.055.352-.307.1-.303-.018-.744-.018-.744s-.34.292-.423.552c-.085.258-.044.452.089.5m-.593-1.467c.1-.05.125-.189.028-.38-.119-.233-.44-.42-.44-.42s-.028.363.073.563c.1.197.237.288.339.237" style="fill:#8f8f8f;fill-opacity:1;fill-rule:nonzero;stroke:none;stroke-width:.352778" transform="translate(-49.765 -47)scale(.42191)"/><path d="m239.518 127.855-1.224-.366c-.832-.27-2.129-.687-2.129-1.763 0-1.028 1.174-1.542 2.056-1.542.937 0 1.841.316 2.617.814l2.32-3.388c-1.627-.883-3.818-1.439-5.623-1.439-3.695 0-6.362 2.446-6.362 6.192 0 3.572 1.983 4.356 4.992 5.211 1.028.294 2.912.76 2.912 2.105 0 1.298-1.199 1.86-2.325 1.86-1.41 0-2.655-.634-3.74-1.48l-2.42 3.536c1.854 1.26 4.067 2.007 6.331 2.007 1.86 0 3.794-.514 5.238-1.738 1.468-1.249 1.909-3.132 1.909-4.968 0-2.985-1.982-4.283-4.552-5.04m29.019 4.38 1.983-5.872h.048l1.958 5.873zm4.65-11.575h-5.237l-6.572 17.085-6.183-7.857 6.916-9.22h-5.753l-6.124 8.939v-8.94h-4.812v18.443h4.812v-8.955l6.465 8.955h4.155v.003h5.09l1.272-3.207h6.607l1.2 3.207h5.114zm-48.94 11.282h-.049l-8.786-11.282h-4.796v18.452h4.796v-11.306h.05l8.785 11.306h4.797V120.66h-4.797zm-20.405 7.17h4.797V120.66h-4.797zm-7.568-18.452h-4.796v18.452h10.548v-4.062h-5.752zm-16.296 14.415c-2.862 0-5.211-2.325-5.211-5.507 0-2.545 2.35-4.87 5.211-4.87 2.864 0 5.214 2.325 5.214 4.87 0 3.182-2.35 5.507-5.214 5.507m0-15.026c-5.31 0-10.204 3.915-10.204 9.494 0 5.971 4.282 10.181 10.204 10.181s10.206-4.21 10.206-10.18c0-5.58-4.895-9.495-10.206-9.495m-19.517 8.882h-.464v-4.6h.464c1.567 0 3.328.294 3.328 2.3 0 2.007-1.76 2.3-3.328 2.3m8.32-2.593c0-3.94-2.765-5.678-6.411-5.678h-7.17v18.452h4.797v-7.097h.048l5.11 7.097h5.39l-5.8-7.562c2.618-.465 4.037-2.667 4.037-5.212m-25.908 5.898 1.982-5.873h.05l1.958 5.873zm-.587-11.576-6.552 17.034-6.143-7.806 6.916-9.22h-5.753l-6.124 8.939v-8.94h-4.811v18.443h4.81v-8.955l6.466 8.955h4.094v.003h5.09l1.273-3.207h6.608l1.198 3.207h5.114l-6.95-18.452z" style="clip-rule:nonzero;fill:#26abe8;fill-opacity:1;fill-rule:nonzero;stroke:none;stroke-width:.352778" transform="translate(-49.765 -47)scale(.42191)"/><g clip-path="url(#a)" transform="translate(.13 .132)scale(.14884)"><path d="M88.418 92.266h-.434v-4.293h.434c1.465 0 3.11.273 3.11 2.148 0 1.871-1.645 2.145-3.11 2.145m7.77-2.418c0-3.68-2.583-5.301-5.985-5.301h-6.695v17.226h4.476v-6.628h.047l4.77 6.628h5.031l-5.414-7.062c2.445-.434 3.77-2.488 3.77-4.863m11.035 1.37-1.141-.34c-.777-.253-1.984-.64-1.984-1.644 0-.96 1.093-1.437 1.918-1.437.875 0 1.714.293 2.437.758l2.168-3.16c-1.52-.825-3.562-1.344-5.246-1.344-3.445 0-5.934 2.285-5.934 5.777 0 3.332 1.848 4.063 4.657 4.863.957.274 2.715.707 2.715 1.961 0 1.211-1.118 1.735-2.168 1.735-1.317 0-2.477-.59-3.489-1.38l-2.258 3.298c1.727 1.175 3.793 1.87 5.907 1.87 1.734 0 3.539-.476 4.882-1.616 1.372-1.168 1.782-2.926 1.782-4.637 0-2.785-1.848-3.996-4.246-4.703m61.859 0-1.14-.34c-.778-.253-1.989-.64-1.989-1.644 0-.96 1.098-1.437 1.918-1.437.875 0 1.719.293 2.441.758l2.165-3.16c-1.516-.825-3.563-1.344-5.243-1.344-3.449 0-5.937 2.285-5.937 5.777 0 3.332 1.851 4.063 4.656 4.863.961.274 2.719.707 2.719 1.961 0 1.211-1.121 1.735-2.168 1.735-1.317 0-2.48-.59-3.488-1.38l-2.262 3.298c1.73 1.175 3.797 1.87 5.906 1.87 1.738 0 3.54-.476 4.887-1.616 1.371-1.168 1.781-2.926 1.781-4.637 0-2.785-1.848-3.996-4.246-4.703m14.18 0-1.145-.34c-.773-.253-1.984-.64-1.984-1.644 0-.96 1.094-1.437 1.918-1.437.875 0 1.719.293 2.441.758l2.164-3.16c-1.515-.825-3.562-1.344-5.246-1.344-3.445 0-5.933 2.285-5.933 5.777 0 3.332 1.847 4.063 4.656 4.863.957.274 2.715.707 2.715 1.961 0 1.211-1.118 1.735-2.168 1.735-1.313 0-2.477-.59-3.489-1.38l-2.257 3.298c1.73 1.175 3.793 1.87 5.906 1.87 1.734 0 3.539-.476 4.887-1.616 1.367-1.168 1.78-2.926 1.78-4.637 0-2.785-1.85-3.996-4.245-4.703m99.875 0-1.145-.34c-.773-.253-1.984-.64-1.984-1.644 0-.96 1.094-1.437 1.918-1.437.875 0 1.715.293 2.441.758l2.164-3.16c-1.52-.825-3.562-1.344-5.246-1.344-3.445 0-5.933 2.285-5.933 5.777 0 3.332 1.847 4.063 4.656 4.863.957.274 2.715.707 2.715 1.961 0 1.211-1.118 1.735-2.168 1.735-1.317 0-2.477-.59-3.489-1.38l-2.257 3.298c1.726 1.175 3.793 1.87 5.906 1.87 1.734 0 3.539-.476 4.887-1.616 1.367-1.168 1.777-2.926 1.777-4.637 0-2.785-1.848-3.996-4.242-4.703m-47.11-6.702h-5.367l-5.71 8.34v-8.34h-4.49v17.203h4.49v-8.352l6.03 8.352h5.368l-6.774-8.602zm66.141.02v3.792h3.703v13.445h4.48V88.328h3.704v-3.793zm-12.2 17.237h9.81v-3.796h-5.325v-2.973h5.05V91.21h-5.05v-2.883h5.324v-3.793h-9.808zm-22.073-8.164c0 2.243-.16 4.688-3.04 4.688-2.882 0-3.043-2.445-3.043-4.688v-9.074h-4.48v9.692c0 2.218.094 4.414 1.809 6.082 1.437 1.418 3.703 1.921 5.714 1.921s4.274-.503 5.715-1.921c1.715-1.668 1.809-3.864 1.809-6.082v-9.692h-4.484zm-18.434-2.421h-6.473v-6.653h-4.48v17.238h4.48v-7.066h6.473v7.066h4.48V84.535h-4.48zm-37.016 2.421c0 2.243-.16 4.688-3.039 4.688-2.883 0-3.043-2.445-3.043-4.688v-9.074h-4.48v9.692c0 2.218.094 4.414 1.808 6.082 1.442 1.418 3.704 1.921 5.715 1.921 2.012 0 4.278-.503 5.715-1.921 1.715-1.668 1.809-3.864 1.809-6.082v-9.692h-4.485zm-18.332 2.286c0 .96.047 2.539-1.277 2.539-.598 0-1.305-.778-1.809-1.465l-2.582 2.722c1.028 1.579 2.516 2.54 4.438 2.54 3.816 0 5.715-2.426 5.715-6.06V84.536h-4.485zm-46.527-7.567h3.7v13.445h4.484V88.328h3.703v-3.793h-11.887zm-12.2 13.445h9.81v-3.796h-5.329v-2.973h5.055V91.21h-5.055v-2.883h5.328v-3.793h-9.808zM121.02 88.328h3.703v13.445h4.48V88.328h3.707v-3.793h-11.89zm-6.926 13.445h4.48V84.535h-4.48zm-43.692 0h9.809v-3.796h-5.328v-2.973h5.05V91.21h-5.05v-2.883h5.328v-3.793h-9.809Zm-11.21-6.77-4.165-10.468h-4.87l7.25 17.238h3.476l7.36-17.238h-4.868Zm-15.63 6.77h4.481V84.535h-4.48Zm-7.972-6.699h-.047l-8.207-10.539h-4.48v17.238h4.48V91.211h.047l8.207 10.562h4.48V84.535h-4.48ZM14.984 93.61c0 2.243-.16 4.688-3.043 4.688-2.879 0-3.039-2.445-3.039-4.688v-9.074h-4.48v9.692c0 2.218.09 4.414 1.805 6.082 1.441 1.418 3.703 1.921 5.714 1.921 2.016 0 4.278-.503 5.72-1.921 1.714-1.668 1.804-3.864 1.804-6.082v-9.692h-4.48z" style="fill:#8f8f8f;fill-opacity:1;fill-rule:nonzero;stroke:none"/></g></svg>
