<svg xmlns="http://www.w3.org/2000/svg" width="287.993" height="347.23" viewBox="0 0 457.333 550.667"><path fill="#1f357a" d="M24.646 449.017c5.013 0 8.484-3.599 8.484-8.098v-65.042c0-6.297-3.213-9.64-8.098-10.925v-2.828c4.885 0 9.64.515 14.525.515s9.769-.515 14.654-.515v2.828c-5.27 1.413-6.942 4.499-6.942 11.312 0 3.856-.385 12.083-.385 23.65v44.475c2.827.515 5.27.772 13.625.772 22.109 0 26.094-3.984 29.307-12.211l4.628 2.313-5.527 18.124c-4.114-1.542-8.227-2.056-12.34-2.056H34.415c-3.213 0-6.555.514-9.769.514zm81.439-69.045c3.702 0 7.404.41 11.209.41 3.7 0 7.505-.41 11.208-.41v2.261c-4.627.616-5.76 3.702-5.76 10.283 0 9.768-.102 19.536-.102 29.304 0 13.779 6.376 23.547 21.696 23.547 8.328 0 18.92-4.833 18.92-16.452v-12.134c0-12.132-.925-24.265-.925-29.406 0-2.88-2.776-4.834-5.244-5.142l-.002-2.261c3.703 0 7.404.41 11.107.41 3.701 0 7.505-.41 11.207-.41v2.261c-3.394.103-4.832 4.114-4.832 7.61 0 3.906-.31 14.6-.31 28.173v22.416c0 5.758 1.131 8.74 5.656 9.048v2.262c-2.88 0-5.861-.411-8.74-.411s-5.758.411-8.637.411c.205-3.496.515-6.683.72-9.768-7.507 6.992-13.881 11.002-24.37 11.002-15.217 0-27.248-8.74-27.248-24.163V411.64c0-8.02-.514-15.115-.514-21.49 0-4.01-.72-7.3-5.039-7.917zm94.905 69.508c4.01-1.028 6.374-4.113 6.374-9.871l.308-60.872h4.32l50.28 55.32v-35.372c0-12.75-2.776-15.732-7.712-16.452v-2.261c3.393 0 6.787.41 10.18.41s6.89-.41 10.283-.41v2.261c-4.526.823-6.787 4.422-6.787 12.75l-.308 57.993h-3.496l-51.104-55.628.412 39.176c.103 8.02 2.57 11.722 7.505 12.956v2.262c-3.393 0-6.786-.411-10.18-.411s-6.682.411-10.076.411zm94.485 0c4.216-1.028 5.348-2.879 5.348-7.3v-29.923c0-9.048-1.03-17.069-1.03-22.106 0-4.319-1.541-7.302-5.346-8.33v-1.849c4.832 0 9.562.41 14.396.41 4.729 0 9.562-.41 14.394-.41 28.071 0 45.14 12.337 45.14 35.473 0 23.547-13.366 36.297-42.26 36.297-5.142 0-10.284-.411-15.321-.411-5.141 0-10.179.411-15.321.411zm16.349-2.673c4.833.616 8.843.822 12.75.822 19.64 0 29.511-12.03 29.511-31.772 0-18.612-12.956-31.773-31.156-31.773-3.29 0-6.478.205-10.59.41-.104 9.05-.515 17.275-.515 25.913zm74.543-9.049h3.908c2.776 7.815 9.15 10.9 16.864 10.9 6.99 0 13.366-5.656 13.366-12.853 0-21.696-35.062-8.329-35.062-36.194 0-13.264 11.618-20.874 23.752-20.874 6.682 0 14.909 2.468 18.302 4.73l1.028 11.002h-3.701c-1.645-6.786-8.843-11.413-15.527-11.413-7.712 0-13.881 5.141-13.881 13.059 0 18.097 35.063 7.609 35.063 34.445 0 13.675-11.003 22.416-24.06 22.416-6.891 0-13.882-.822-20.052-4.01z"/><g fill="#914a0f"><path d="M200.716 277.399v12.972c0 .654 2.955 1.781 2.955 1.781h-9.303s2.78-1.127 2.78-1.69v-10.94l-2.896.483-.044-.52zm59.623.286c-4.17.919-6.304 3.572-6.9 6.374 1.042-.552 1.966-.804 3.069-.804 3.04 0 5.067 1.768 5.067 4.362 0 2.848-2.444 4.847-5.931 4.847-3.844 0-6.437-2.412-6.437-6.017 0-4.502 4.4-9.043 11.058-9.043zm-4.784 6.672c-1.074 0-1.819.436-2.355.758-.06.298-.179 1.033-.179 2.204 0 1.608.208 4.296 2.474 4.296 2.234 0 2.265-2.091 2.265-3.722 0-1.469-.09-3.536-2.205-3.536m-14.775-6.672c-4.17.919-6.305 3.572-6.9 6.374 1.041-.552 1.965-.804 3.068-.804 3.04 0 5.067 1.768 5.067 4.362 0 2.848-2.444 4.847-5.93 4.847-3.845 0-6.437-2.412-6.437-6.017 0-4.502 4.4-9.043 11.059-9.043zm-4.785 6.672c-1.074 0-1.818.436-2.355.758-.059.298-.177 1.033-.177 2.204 0 1.608.208 4.296 2.473 4.296 2.235 0 2.264-2.091 2.264-3.722 0-1.469-.088-3.536-2.205-3.536m-14.91-6.672c-4.169.919-6.305 3.572-6.901 6.374 1.043-.552 1.967-.804 3.07-.804 3.04 0 5.066 1.768 5.066 4.362 0 2.848-2.444 4.847-5.93 4.847-3.845 0-6.438-2.412-6.438-6.017 0-4.502 4.401-9.043 11.059-9.043zm-4.785 6.672c-1.073 0-1.817.436-2.355.758-.06.298-.178 1.033-.178 2.204 0 1.608.209 4.296 2.473 4.296 2.236 0 2.265-2.091 2.265-3.722 0-1.469-.089-3.536-2.205-3.536M92.768 153.307c1.386.446 3.346 1.428 4.635 2.3-.205.408-.347.934-.448 1.552-.207 1.26.056 2.68-.274 4.69-.9 5.498-5.408 9.136-10.26 8.34-4.934-.809-8.052-5.973-7.111-11.712.457-2.788 1.855-4.43 1.943-4.968.036-.213-.07-1.25-.07-1.25l4.732.529s-4.78 3.125-5.202 5.7c-.63 3.833 1.831 6.963 6.068 7.657 4.316.71 8.125-1.696 8.753-5.53.406-2.467-2.766-7.308-2.766-7.308m44.168-70.079L126.834 93.72s.671-3.127-.288-4.05l-7.828-7.54c-1.155-1.111-4.02-.171-4.02-.171l6.388-6.636s-.727 3.184.193 4.07l8.063 7.764c.725.698 1.108.652 1.843-.11l2.394-2.487c1.262-1.31 1.326-6.039 1.326-6.039zm-8.228-15.268 6.72-5.43s-.907 2.898-.019 3.997l6.764 8.368c.838 1.036 3.879.778 3.879.778l-6.721 5.432s.745-2.838-.006-3.769l-6.832-8.453c-.887-1.099-3.785-.923-3.785-.923m22.593.021c.866 1.414 3.996 1.376 3.996 1.376l-5.606 3.435s1.034-2.577.452-3.527l-6.514-10.636c-.722-.034-2.72-.277-2.72-.277l4.774-2.924 15.498 4.08-4.285-6.997c-1.023-1.668-4.193-1.383-4.193-1.383l5.978-3.661s-1.394 2.509-.854 3.39l7.592 12.395-1.274.781-18.209-4.809zm98.752-23.111s2.638 4.723 4.738 5.169c1.754.37 3.32-.464 3.634-1.954.84-3.96-7.721-5.634-6.606-10.897.541-2.552 3.15-3.86 6.314-3.19 2.046.434 3.495 1.463 3.894 1.547.186.04.357.02.646-.169l.559.119-.408 4.413s-2.595-4.272-4.641-4.705c-1.488-.315-2.774.246-2.994 1.282-.517 2.446 3.799 3.832 6.146 7.44.858 1.322 1.042 2.554.772 3.83-.586 2.764-3.547 4.414-6.71 3.745-2.126-.45-3.886-1.712-4.365-1.815-.239-.049-.453.044-.648.308l-.69-.146zm21.875-6.747 8.187 2.762s-2.934.788-3.386 2.128l-3.44 10.194c-.426 1.262 1.42 3.692 1.42 3.692l-8.186-2.763s2.796-.892 3.178-2.024l3.476-10.299c.452-1.338-1.249-3.69-1.249-3.69m24.84 23.147-1.825 3.614c-2.15-.081-5.015-.615-7.102-1.668-6.136-3.099-7.368-8.013-5.016-12.67 2.242-4.438 7.556-5.863 12.723-3.254 2.497 1.26 4.01 3.09 4.835 3.505.364.184.606.186.886.052l.607.307-2.241 4.439-.971-.49c.595-2.805-.513-5.19-3.036-6.465-3.444-1.739-7.193-.221-9.177 3.707-2.008 3.978-1.006 8.198 2.366 9.901.922.465 2.063.737 2.914.679l1.69-3.347c.612-1.212-1.746-3.956-1.746-3.956l8.052 4.067s-2.395.464-2.959 1.58m12.556-5.406 7.09 4.938s-3.035-.06-3.843 1.098l-6.15 8.83c-.76 1.092.335 3.941.335 3.941l-7.09-4.939s2.933-.076 3.617-1.056l6.212-8.918c.806-1.16-.171-3.894-.171-3.894m25.331 47.323-9.151-11.33s3.017 1.055 4.053.218l8.456-6.828c1.247-1.008.672-3.967.672-3.967l5.788 7.167s-3.069-1.12-4.062-.317l-8.708 7.033c-.784.632-.786 1.017-.119 1.841l2.168 2.686c1.143 1.416 5.827 2.069 5.827 2.069zM322.58 88.57l-10.705-9.873s3.138.606 4.041-.374l7.368-7.99c1.087-1.178.088-4.022.088-4.022l6.77 6.244s-3.2-.659-4.065.281l-7.589 8.23c-.681.738-.627 1.12.152 1.84l2.536 2.338c1.339 1.233 6.068 1.196 6.068 1.196zm26.353 11.198c1.222-1.772 1.326-4.303 1.326-4.303l4.829 8.098s-3.15-1.727-4.137-.254l-5.37 7.97 10.291-.862c.99-.146 1.137-3.634 1.137-3.634l3.536 5.926s-2.764-1.133-5.066-.804l-15.892 1.33zm11.644 22.013-.018-.052-9.31 2.695c-1.725.501-2.78 3.36-2.78 3.36l-2.032-5.679s2.319 1.48 4.488.848l9.463-2.75c1.332-.39 2.33-2.766 2.33-2.766l1.93 5.398-8.961 8.832 12.456.94 1.968 5.501s-1.804-1.576-3.602-.79l-9.22 3.991c-2.104.896-2.725 3.515-2.725 3.515l-2.883-8.059s1.858 2.047 3.522 1.454c.409-.148.809-.32 1.184-.483l8.87-3.837-.017-.051-14.995-1.1-.22-.613zm1.743 60.676c-1.656-.069-3.368 2.554-3.368 2.554l.272-6.571s1.563 2.295 2.676 2.341l12.461.515c.432-.58 1.746-2.103 1.746-2.103l-.231 5.592-12.023 10.598 8.199.34c1.955.08 3.484-2.712 3.484-2.712l-.29 7.004s-1.307-2.556-2.34-2.599l-14.523-.6.061-1.493 14.139-12.442zm11.71 23.064-1.685 8.474s-1.16-2.807-2.545-3.082l-10.553-2.101c-1.306-.26-3.478 1.885-3.478 1.885l1.686-8.474s1.245 2.658 2.417 2.892l10.66 2.12c1.385.276 3.499-1.714 3.499-1.714m-17.55 45.782 2.712-5.296-5.441-2.786-2.005 3.918c-.683 1.329.316 3.672.316 3.672l-4.812-2.464s2.397-.391 3.35-2.252l1.82-3.556-4.353-2.23c-1.04-.532-1.356-.449-1.716.251l-2.068 4.04c-.804 1.572.573 4.963.573 4.963l-3.649-2.235 7.456-14.559s.025 3.646 1.21 4.252l9.65 4.942c1.307.669 3.91-.959 3.91-.959l-6.823 13.327-3.631-1.555s2.932-.361 3.501-1.473m-28.041 21.482s-5.401-.333-6.91 1.194c-1.26 1.276-1.403 3.044-.32 4.113 2.878 2.847 8.913-3.453 12.74.33 1.854 1.833 1.545 4.735-.729 7.035-1.469 1.488-3.118 2.152-3.404 2.442-.134.134-.609 1.04-.609 1.04l-3.493-2.727s4.996.124 6.466-1.364c1.07-1.081 1.292-2.467.538-3.212-1.778-1.756-5.276 1.127-9.58 1.152-1.576.01-2.712-.503-3.64-1.419-2.01-1.986-1.799-5.369.474-7.669 1.527-1.545 3.54-2.345 3.884-2.693.171-.174.208-.406.091-.712l.497-.502zm-5.707 21.767-6.808 5.321s.954-2.882.084-3.996l-6.626-8.477c-.822-1.048-3.866-.84-3.866-.84l6.807-5.323s-.79 2.827-.055 3.768l6.694 8.563c.87 1.113 3.77.984 3.77.984m-74.377 33.381-8.595.886s2.342-1.935 2.196-3.34l-1.1-10.704c-.137-1.324-2.826-2.768-2.826-2.768l8.596-.884s-2.174 1.97-2.052 3.16l1.113 10.812c.145 1.405 2.668 2.838 2.668 2.838M231.233 317.1s-3.505-4.123-5.65-4.152c-1.795-.023-3.167 1.1-3.188 2.621-.055 4.048 8.669 4.028 8.597 9.408-.035 2.608-2.341 4.399-5.575 4.356-2.092-.028-3.712-.757-4.12-.762-.19-.003-1.172.284-1.172.284l-.458-4.41s3.376 3.687 5.468 3.715c1.521.02 2.673-.78 2.686-1.839.034-2.5-4.469-3.021-7.472-6.105-1.098-1.13-1.518-2.303-1.501-3.607.037-2.826 2.621-5.018 5.855-4.976 2.173.028 4.145.924 4.633.931.245.004 1.284-.417 1.284-.417zm-47.201-6.101 1.067-3.906c2.124-.35 5.038-.4 7.292.216 6.632 1.811 8.821 6.38 7.446 11.412-1.31 4.798-6.234 7.256-11.817 5.731-2.7-.737-4.547-2.227-5.437-2.47-.394-.107-1.535-.054-1.535-.054l1.31-4.796s2.589 5.27 5.314 6.015c3.723 1.016 7.093-1.219 8.252-5.464 1.175-4.3-.652-8.235-4.296-9.23-.996-.272-2.168-.31-2.99-.084l-.987 3.618c-.579 2.358 2.5 3.528 2.5 3.528l-8.703-2.378s2.256-.933 2.584-2.138m-53.55-35.851-3.339 3.5 6.488 6.188 3.376-3.539c.993-1.041.329-3.966.329-3.966l6.312 6.021s-2.953-.488-3.89.495l-7.465 7.825c-.938.983-.312 3.908-.312 3.908l-6.311-6.02s2.86.624 3.91-.477l2.944-3.087-6.488-6.19-2.888 3.029c-1.05 1.101-.407 3.929-.407 3.929l-6.291-6.001s2.917.604 3.93-.458l7.426-7.785c.976-1.023.31-3.985.31-3.985l6.29 6.001s-2.911-.45-3.924.612M83.79 207.852l.007.053 9.668-.678c1.792-.13 3.425-2.703 3.425-2.703l.792 5.979s-1.955-1.932-4.209-1.771l-9.83.701c-1.383.102-2.857 2.216-2.857 2.216l-.754-5.684 10.616-6.753-11.981-3.536-.769-5.79s1.434 1.92 3.355 1.527l9.854-1.965c2.245-.435 3.402-2.863 3.402-2.863l1.126 8.484s-1.387-2.392-3.137-2.16c-.432.058-.858.142-1.259.222l-9.48 1.888.007.054 14.43 4.226.086.646zm287.613-48.653c1.869-1.068 3.058-3.303 3.058-3.303l.846 9.39s-2.091-2.922-3.62-2.02l-7.38 4.242 8.945 4.073c.955.298 2.39-2.56 2.39-2.56l.617 6.874s-2-2.22-4.219-2.922l-13.945-6.14zm-4.168 61.237c2.134-.281 4.082-1.899 4.082-1.899l-2.777 9.011s-.827-3.496-2.583-3.241l-8.438 1.13 6.737 7.159c.77.636 3.181-1.465 3.181-1.465l-2.033 6.596s-1.01-2.812-2.797-4.302l-10.58-10.965zm-277.11 10.819c-1.56 1.482-2.184 3.937-2.184 3.937l-3.059-8.919s2.727 2.339 3.997 1.1l6.156-5.881-9.66-1.823c-.997-.06-1.709 3.058-1.709 3.058l-2.239-6.53s2.472 1.682 4.794 1.834l15.008 2.636zm59.905 59.748c.805-1.163-.715-4.264-.715-4.264l8.041 5.568s-3.423-.355-4.243.829l-7.516 10.963 2.636 1.825c1.72 1.19 5.154-.332 5.154-.332l-2.791 3.348-14.208-9.836 1.985-3.905s-.216 3.749 1.504 4.94l2.636 1.825zm107.115 20.921c-.321-1.376-3.642-2.33-3.642-2.33l9.525-2.227s-2.559 2.3-2.232 3.702l2.98 12.531 3.121-.73c2.038-.477 3.212-4.043 3.212-4.043l.612 4.316-16.828 3.936-1.562-4.095s2.633 2.677 4.672 2.2l3.121-.73zm37.43-14.659c-.711-1.221-4.166-1.158-4.166-1.158l8.452-4.923s-1.77 2.95-1.046 4.195l6.74 11.454 2.77-1.612c1.808-1.054 1.886-4.809 1.886-4.809l1.849 3.948-14.933 8.697-2.695-3.456s3.304 1.787 5.112.734l2.77-1.614zm67.497-146.18a2.668 2.668 0 1 1 5.336.043 2.668 2.668 0 0 1-5.336-.043M206.648 318.907a2.67 2.67 0 1 1 5.34.043 2.67 2.67 0 0 1-5.34-.043M84.078 179.576a2.669 2.669 0 1 1 5.338.041 2.669 2.669 0 0 1-5.338-.041m23.902-76.317c-3.32-2.411-4.149-5.802-2.12-8.594 2.426-3.341 7.001-2.705 10.541-.133 3.034 2.203 4.634 5.548 2.415 8.604-2.252 3.1-6.637 3.172-10.836.123m-1.324 4.041c3.693 2.683 9.065 2.085 12.738-2.972 3.815-5.253 2.508-10.804-1.405-13.647-4.111-2.986-9.354-1.824-12.692 2.77-3.56 4.904-2.994 10.688 1.36 13.849m70.8-56.281-5.352 1.689.243-7.895zm3.411-2.17 4.764-1.806c1.961-.731 4.627.102 4.627.102l-3.74-4.306s-.259 2.358-1.659 2.88l-5.005 2.032-4.404-5.379 7.241-2.408c1.17-.436 4.104.619 4.104.619l-3.13-2.926-15.391 5.288s1.946.522 1.61 3.158l-.218 11.573c-.23 2.028-1.468 4.103-1.468 4.103l5.856-2.182s-2.538-1.054-2.386-2.358l.294-3.32 6.43-1.962 3.614 4.432 14.23-5.454-3.014-3.306s1.053 2.442-.602 3.058l-7.572 2.958zm-76.438 75.203c1.256.584 4.008-1.401 4.008-1.401l-4.011 8.622s-.15-3.157-1.58-3.822l-9.73-4.527c-1.182-.55-3.99 1.17-3.99 1.17.499-1.267.886-2.226 1.282-3.27.543-1.427 1.295-3.233 1.707-4.12 1.686-3.623 3.07-5.375 4.875-6.033 1.191-.435 2.3-.368 3.358.125 1.873.87 2.72 2.913 2.27 5.49 2.112-.995 4.46-.951 7.022-1.886 1.48-.54 3.927-2.128 3.927-2.128-.227.553-.342.799-.686 1.539-1.422 3.053-2.45 4.104-4.146 4.722-1.805.659-5.056.884-7.145 1.831l-.906 1.945zm-4.779-2.224.447-.961c1.387-2.98 1.278-5.128-1.358-6.355-2.61-1.216-4.476.344-5.587 2.733l-.596 1.282zm-5.154 23.091 2.32 1.902c1.015.822 3.323-1.724 3.323-1.724l-2.115 7.134s-.683-2.771-2.072-3.907l-12.99-11.01 17.09-2.65c1.706-.265 3.727-1.841 3.727-1.841l-2.594 8.749s-.66-3.263-1.933-3.048l-3.008.499zm-5.49-4.695 4.644 3.807 1.404-4.738zm18.197 102.659c1.225-.65 1.298-4.043 1.298-4.043l4.462 8.399s-2.608-1.784-4-1.044l-9.478 5.036c-1.152.612-1.472 3.889-1.472 3.889-.71-1.161-1.242-2.048-1.836-2.993-.81-1.294-1.8-2.983-2.26-3.846-1.873-3.528-2.437-5.689-1.875-7.526.372-1.212 1.092-2.058 2.124-2.606 1.823-.968 3.964-.413 5.75 1.499.478-2.284 1.927-4.132 2.726-6.74.46-1.507.668-4.417.668-4.417.305.516.432.756.814 1.476 1.581 2.974 1.8 4.428 1.27 6.154-.561 1.838-2.34 4.567-2.845 6.804l1.007 1.896zm-4.564 2.289-.498-.936c-1.543-2.903-3.323-4.11-5.89-2.747-2.544 1.351-2.422 3.779-1.186 6.107l.663 1.248zm3.285 22.935c-3.38-4.564-2.912-9.914 1.17-12.939 3.887-2.879 9.574-2.457 13.439 2.76 3.72 5.023 2.677 10.325-.991 13.041-4.324 3.203-10.011 2.006-13.618-2.862m13.298-9.986c-2.248-3.034-5.919-2.513-8.932-.282-3.516 2.604-5.497 6.777-3.039 10.096 2.054 2.772 5.537 3 8.833.558 4.17-3.089 5.418-7.293 3.138-10.372m44.794 57.652c-5.15-2.39-7.3-7.31-5.16-11.921 2.036-4.385 7.231-6.737 13.122-4.004 5.669 2.63 7.289 7.787 5.368 11.928-2.266 4.88-7.832 6.55-13.33 3.997m6.903-15.128c-3.425-1.59-6.401.624-7.98 4.026-1.841 3.968-1.585 8.58 2.161 10.318 3.13 1.454 6.296-.013 8.024-3.734 2.184-4.708 1.27-8.998-2.205-10.61m166.315-42.255c-1.108-.83-4.211.546-4.211.546l5.703-7.61s-.504 3.12.757 4.065l8.588 6.437c1.044.781 4.147-.323 4.147-.323-.75 1.135-1.326 1.995-1.93 2.935-.825 1.284-1.932 2.897-2.518 3.68-2.396 3.196-4.112 4.627-6.015 4.899-1.256.178-2.325-.114-3.261-.815-1.652-1.237-2.06-3.412-1.088-5.84-2.272.537-4.56.012-7.26.399-1.56.222-4.283 1.273-4.283 1.273.339-.495.5-.712.99-1.364 2.02-2.697 3.242-3.512 5.03-3.768 1.901-.273 5.13.177 7.368-.319l1.288-1.717zm4.14 3.24-.636.85c-1.972 2.63-2.308 4.755.018 6.499 2.306 1.728 4.451.585 6.032-1.524l.847-1.131zm-58.651 44.185.064-3.002c.02-1.305-3.407-1.549-3.407-1.549l6.916-2.74s-1.758 2.248-1.793 4.041l-.643 17.016-12.634-11.806c-1.262-1.179-3.748-1.796-3.748-1.796l8.482-3.36s-2.158 2.533-1.204 3.4l2.25 2.06zm-.304 7.214.13-6.002-4.595 1.821zM228.843 70.19c-.74-1.954-2.703-3.437-2.703-3.437l9.135.619s-3.12 1.561-2.49 3.164l2.948 7.724L241 70.299c.43-.87-2.092-2.68-2.092-2.68l6.685.453s-2.433 1.58-3.442 3.6l-8.011 12.443zM153.82 98.11c-1.861-.953-4.31-.733-4.31-.733l7.185-5.674s-1.264 3.252.28 4.014l7.37 3.747-1.442-9.437c-.267-.934-3.351-.582-3.351-.582l5.26-4.153s-.744 2.805-.135 4.981l2.419 14.598zm140.84-5.031c.63-1.992.01-4.371.01-4.371l6.782 6.15s-3.416-.71-3.915.94l-2.542 8.342 9.133-3.435c.876-.416.021-3.4.021-3.4l4.963 4.503s-2.89-.27-4.935.69l-14 4.79zm-112.003-1.712c.583 1.242 3.928 1.478 3.928 1.478l-8.598 4.036s1.968-2.701 1.373-3.966l-5.535-11.66-2.818 1.321c-1.84.864-2.238 4.49-2.238 4.49l-1.449-3.978 15.19-7.128 2.311 3.573s-3.042-2.012-4.881-1.148l-2.819 1.323zm68.982-18.324-.052-.016-3.272 8.825c-.604 1.636 1.018 4.11 1.018 4.11l-5.606-1.694s2.493-.955 3.252-3.013l3.318-8.976c.466-1.264-.814-3.415-.814-3.415l5.329 1.61 1.72 12.097 7.928-9.183 5.43 1.641s-2.273.499-2.695 2.356l-2.21 9.503c-.514 2.16 1.17 4.157 1.17 4.157l-7.956-2.405s2.672-.267 3.168-1.908c.121-.404.218-.816.308-1.203l2.128-9.141-.051-.016-9.519 11.07-.606-.182zm65.025 40.137-3.553-4.556-4.682 3.652 2.63 3.37c.892 1.143 3.364 1.223 3.364 1.223l-4.14 3.23s.637-2.271-.612-3.872l-2.386-3.059-3.745 2.92c-.895.699-.952 1.01-.48 1.615l2.71 3.474c1.054 1.352 4.603 1.527 4.603 1.527l-3.46 2.299-9.769-12.524s3.22 1.469 4.24.674l8.301-6.476c1.123-.874.756-3.834.756-3.834l8.942 11.464-2.855 2.56s.883-2.73.136-3.687M213.59 81.45c.14 1.34 3.167 2.642 3.167 2.642l-9.184.957s2.555-1.698 2.396-3.221l-1.081-10.364c-.13-1.26-2.964-2.743-2.964-2.743 1.303-.216 2.295-.372 3.363-.562 1.458-.259 3.34-.534 4.285-.632 3.857-.403 6.008-.123 7.457 1.052.956.776 1.455 1.732 1.572 2.861.208 1.993-1.07 3.719-3.444 4.63 1.883 1.262 3.018 3.24 5.075 4.909 1.19.964 3.733 2.209 3.733 2.209-.574.088-.837.115-1.625.197-3.255.339-4.641.006-6.004-1.098-1.448-1.175-3.257-3.772-5.088-5.04l-2.073.216zm-.434-5.07 1.023-.107c3.176-.332 4.912-1.494 4.618-4.302-.29-2.783-2.518-3.558-5.065-3.292l-1.365.142zm-83.743 45.715c.757-1.211 1.657-2.578 2.277-3.592.696-1.124 1.231-1.975 1.977-3.03 3.044-4.312 5.012-5.958 7.733-6.428 1.95-.334 3.973.092 5.805 1.386 1.962 1.384 3.079 3.464 3.414 5.412.324 1.876.16 4.441-2.959 8.86l-4.839 6.856s.294-2.796-.934-3.664l-8.322-5.874c-1.53-1.08-4.152.074-4.152.074m14.423 2.72c1.443 1.018 1.79.94 2.961-.72 3.424-4.851.987-8.444-1.578-10.255-1.79-1.263-3.848-1.779-5.502-1.493-1.802.31-3.318 1.405-4.869 3.604-.41.581-.724 1.07-1.08 1.757zm-12.563 19.717 2.052 2.072c.896.893 3.382-1.333 3.382-1.333l-2.756 6.678s-.383-2.745-1.612-3.981l-11.444-11.936 16.772-.85c1.673-.083 3.784-1.403 3.784-1.403l-3.382 8.19s-.312-3.217-1.561-3.136l-2.956.18zm-4.831-5.083 4.102 4.142 1.831-4.435zm158.042-57.862c4.839 2.644 6.608 7.55 4.243 11.88-2.252 4.121-7.436 6.069-12.97 3.045-5.325-2.91-6.568-8.01-4.442-11.899 2.505-4.584 8.006-5.848 13.169-3.026m-7.65 14.22c3.218 1.76 6.24-.198 7.987-3.392 2.038-3.727 2.083-8.212-1.437-10.136-2.94-1.607-6.101-.388-8.012 3.109-2.417 4.421-1.803 8.636 1.461 10.419"/><path d="M284.957 108.679c-5.558-4.551-3.68-3.888-5.198-8.696s-.48-11.624-1.559-12.387 2.412-1.035 3.597 9.264 3.16 11.819 3.16 11.819"/><path d="M146.883 316.89c-46.759-27.614-78.19-78.537-78.19-136.66 0-87.449 71.143-158.594 158.591-158.594s158.593 71.145 158.593 158.593-71.145 158.592-158.593 158.592c-28.937 0-56.09-7.79-79.472-21.386l-2.559-1.387-1.812 2.612 2.594 1.688c23.898 13.912 51.66 21.885 81.249 21.885 89.33 0 162.005-72.674 162.005-162.004S316.615 18.224 227.284 18.224 65.28 90.9 65.28 180.229c0 59.355 32.086 111.356 79.823 139.572l1.964.992 1.546-2.773z"/><path d="M163.779 283.233c-34.437-21.316-57.513-59.613-57.513-103.004 0-56.189 38.725-103.72 90.763-117.184l.938-2.781c-53.983 13.195-94.164 61.976-94.164 119.965 0 44.343 23.494 83.302 58.689 105.08l1.883 1.023 1.122-1.968z"/><path d="M163.635 286.008c18.598 11.233 40.382 17.703 63.649 17.703 68.088 0 123.481-55.395 123.481-123.482 0-68.088-55.393-123.481-123.481-123.481-7.893 0-15.617.744-23.103 2.167l-.402 2.59a121 121 0 0 1 23.505-2.294c66.633 0 121.019 54.385 121.019 121.018 0 66.632-54.386 120.843-121.019 120.843-22.87 0-44.279-6.388-62.533-17.472l-1.86-1.061-1.868 1.649zm62.398-238.661a7.17 7.17 0 0 1-5.59-3.15"/><path d="m227.836 37.457 4.14-3.997a7.17 7.17 0 0 1 2.673 5.835l-5.737.472 5.143 2.724a7.1 7.1 0 0 1-1.911 2.785c-.836.75-1.8 1.27-2.812 1.56l-2.283-5.333-1.016 5.844a7.17 7.17 0 0 1-5.59-3.15l4.378-3.929-5.588.888a7.1 7.1 0 0 1-.09-3.376 7.1 7.1 0 0 1 1.357-2.915l4.808 2.903-2.533-4.828a7.14 7.14 0 0 1 3.182-1.13 7.15 7.15 0 0 1 3.192.39zm58.899 109.298c-1.056-.023-2.519-.966-2.927-2.267s.773-2.144.773-2.144q.061.078.134.147l.144.166.008-.042c.244.172.584.03.917.016.75-.034.893-.322.864-1.007-.03-.687-.62-1.301-1.341-1.097-.638.182-1.642.328-2.195-.05-.203-.138-.24-.761-.079-1.284.052-.306.339-.948.332-1.109-.021-.472-.588-.808-1.102-.787-.515.023-.992.44-.972.912.029.666.454.931.742 1.26.444.506.287.902.128 1.158-.116.188-1.393.621-1.393.621l.027.052a1.4 1.4 0 0 0-.3-.019c-.748.034-1.268.391-1.238 1.076.03.686.434 1.167 1.182 1.134a1.39 1.39 0 0 0 1.118-.632s1.107.842.958 1.917c-.148 1.057-.228 1.917-2.223 2.539-1.633.509-2.641-.467-2.641-.467s-.482 1.417-1.952 1.25c-2.251-.258-2.655-2.97-2.655-2.97s.93.033 1.399-1.175c.396-1.02-.282-1.65-1.386-1.798-.666-.09-1.512.941-2.441.542-.93-.397.483-2.217-.732-2.909-1.121-.637-1.767.819-1.767.819s1.715 1.773 3.955 5.002c1.79 2.584 4.3 5.658 4.3 5.658l-1.276.854s-1.735-2.696-4.477-6.398c-2.34-3.158-4.163-5.126-4.163-5.126s-.07-.265.581-.934c.83-.851 2.094-2.026 3.612-1.34s.751 3.068.751 3.068.819-.903 2.179-.72c1.473.198 2.773 1.558 2.538 2.849-.333 1.833-1.462 2.29-1.462 2.29s-.171.714 1.23.57c.854-.088 1.423-1.352 1.423-1.352.063-.021 2.116 1.887 3.228.436.105-.139.17-.31.256-.47a2.5 2.5 0 0 1-.537.069c-1.404.016-2.56-1.134-2.58-2.568s1.102-2.612 2.508-2.63c.528-.005.15-.036.872.098-.564-.306-1.276-.912-1.29-1.942-.017-1.202 1.267-2.429 2.446-2.442 1.177-.015 2.665 1.07 2.682 2.273.011.757-.405 1.355-.721 1.699.316-.344.797-.532 1.535-.542 1.405-.016 2.561 1.134 2.581 2.57.02 1.434-1.104 2.612-2.51 2.628-.114.001-.223-.016-.333-.031l.059.059c.496.429 1.121.614 1.66.713 1.721.312 1.921-1.041 1.921-1.041s.834.782 1.647.514c1.34-.438 1.061-1.264 1.061-1.264s-1.238.182-2.29-1.358c-.742-1.083-.672-2.299.593-3.08 1.165-.722 2.736-.295 2.736-.295s-1.46-1.712-.353-2.956c1.108-1.247 2.702-.684 3.806-.245.868.345 1.416.658 1.416.658s-1.158 1.952-2.008 5.791a451 451 0 0 1-1.753 7.668l-1.361-.372s.768-4.319 1.549-7.499c.87-3.544 1.687-4.732 1.687-4.732s-1.362-1.212-2.124-.174c-.828 1.128 1.076 1.994.39 2.737s-1.917-.005-2.488.348c-.948.585-.862.961-.309 1.741.57.804 1.701.488 1.701.488s.882 2.74-1.068 3.891c-1.276.753-2.46-.203-2.46-.203s-.398 1.239-2.722 1.19"/><path d="M274.784 151.536c-.157-1.367 4.02-2.955 9.328-3.545 5.31-.592 9.74.036 9.896 1.402s-4.02 2.952-9.33 3.544c-5.307.592-9.738-.036-9.894-1.401m8.913.081c3.23-.34 5.388-.937 5.243-1.798-.093-.551-2.74-.728-5.97-.388s-5.795 1.064-5.727 1.617c.066.553 3.224.908 6.454.57m36.108-9.65c-1.054-.023-2.518-.965-2.926-2.265-.407-1.303.773-2.146.773-2.146.04.054.085.1.133.147.086.096.144.167.144.167l.008-.043c.244.172.584.03.918.016.748-.033.893-.32.862-1.007-.029-.686-.618-1.301-1.34-1.096-.638.18-1.641.327-2.194-.049-.204-.14-.24-.763-.079-1.284.05-.308.339-.95.332-1.11-.021-.473-.588-.809-1.103-.786-.514.021-.992.439-.972.912.03.664.455.93.743 1.259.444.505.287.902.128 1.157-.117.187-1.393.621-1.393.621l.025.052a1.4 1.4 0 0 0-.299-.018c-.748.032-1.268.39-1.238 1.076s.434 1.166 1.182 1.133a1.38 1.38 0 0 0 1.119-.632s1.107.843.957 1.917c-.148 1.059-.228 1.918-2.222 2.539-1.634.51-2.642-.467-2.642-.467s-.481 1.418-1.952 1.25c-2.25-.256-2.654-2.97-2.654-2.97s.93.035 1.398-1.174c.398-1.02-.281-1.651-1.385-1.799-.665-.09-1.513.943-2.443.544-.928-.399.484-2.219-.732-2.91-1.12-.638-1.765.818-1.765.818s1.715 1.773 3.955 5.003c1.79 2.584 4.3 5.657 4.3 5.657l-1.276.855s-1.735-2.695-4.478-6.399c-2.34-3.157-4.162-5.125-4.162-5.125s-.071-.266.581-.935c.83-.85 2.093-2.025 3.612-1.34 1.519.687.75 3.068.75 3.068s.82-.903 2.18-.72c1.471.199 2.773 1.559 2.538 2.85-.333 1.833-1.464 2.29-1.464 2.29s-.17.713 1.232.57c.853-.089 1.423-1.351 1.423-1.351.064-.023 2.116 1.885 3.228.434.105-.138.169-.31.256-.468q-.26.061-.536.067c-1.407.016-2.562-1.133-2.582-2.57-.02-1.434 1.103-2.61 2.508-2.627.528-.006.151-.036.871.097-.563-.305-1.273-.912-1.288-1.941-.017-1.203 1.267-2.43 2.445-2.443s2.666 1.07 2.683 2.273c.01.758-.407 1.355-.721 1.699.314-.344.797-.532 1.533-.54 1.407-.017 2.563 1.133 2.583 2.568s-1.104 2.612-2.51 2.628c-.114.001-.222-.016-.333-.03.02.02.041.043.059.058.494.43 1.12.615 1.66.713 1.721.312 1.921-1.041 1.921-1.041s.832.783 1.647.516c1.34-.44 1.061-1.265 1.061-1.265s-1.24.181-2.292-1.359c-.74-1.083-.67-2.297.595-3.079 1.166-.721 2.736-.294 2.736-.294s-1.46-1.714-.352-2.958c1.106-1.245 2.701-.684 3.805-.244.868.344 1.416.658 1.416.658s-1.16 1.953-2.008 5.79c-1.103 4.975-1.753 7.668-1.753 7.668l-1.363-.372s.77-4.318 1.55-7.498c.871-3.543 1.687-4.732 1.687-4.732s-1.361-1.212-2.124-.175c-.828 1.128 1.078 1.995.391 2.737-.685.743-1.917-.005-2.488.348-.948.587-.863.962-.31 1.742.57.805 1.702.488 1.702.488s.881 2.74-1.068 3.89c-1.276.754-2.46-.202-2.46-.202s-.399 1.238-2.723 1.189"/><path d="M307.855 146.748c-.158-1.365 4.02-2.952 9.328-3.544 5.309-.592 9.738.036 9.896 1.403.156 1.365-4.022 2.953-9.33 3.544-5.309.592-9.738-.036-9.894-1.403m8.913.083c3.23-.34 5.39-.938 5.243-1.799-.094-.55-2.74-.727-5.971-.388-3.23.34-5.793 1.064-5.727 1.617.067.555 3.224.908 6.455.57m-10.638 17.71c-1.057-.022-2.52-.965-2.927-2.265s.773-2.144.773-2.144q.06.078.133.145c.086.096.144.168.144.168l.008-.044c.244.172.584.031.918.016.748-.032.893-.32.862-1.005-.029-.687-.618-1.301-1.338-1.097-.64.181-1.643.328-2.196-.05-.204-.138-.24-.762-.079-1.284.05-.306.339-.949.332-1.11-.021-.472-.588-.808-1.103-.786s-.992.44-.972.912c.03.664.455.931.743 1.26.444.506.287.902.128 1.158-.116.186-1.393.621-1.393.621l.026.05a1.6 1.6 0 0 0-.301-.018c-.748.033-1.267.39-1.237 1.076.03.687.434 1.167 1.182 1.135a1.38 1.38 0 0 0 1.119-.634s1.107.844.957 1.918c-.148 1.058-.228 1.918-2.222 2.54-1.635.509-2.642-.468-2.642-.468s-.481 1.417-1.953 1.249c-2.25-.256-2.653-2.97-2.653-2.97s.93.035 1.4-1.173c.394-1.021-.282-1.65-1.387-1.798-.665-.091-1.512.941-2.441.542s.482-2.218-.732-2.909c-1.12-.637-1.767.817-1.767.817s1.715 1.774 3.955 5.003c1.79 2.585 4.3 5.657 4.3 5.657l-1.276.856s-1.735-2.696-4.478-6.398c-2.34-3.159-4.162-5.126-4.162-5.126s-.071-.265.581-.936c.83-.849 2.093-2.025 3.612-1.338 1.519.685.75 3.066.75 3.066s.82-.902 2.18-.718c1.471.197 2.773 1.557 2.538 2.848-.333 1.834-1.463 2.292-1.463 2.292s-.172.712 1.232.568c.852-.087 1.422-1.351 1.422-1.351.062-.021 2.116 1.887 3.228.436.105-.139.17-.31.254-.47a2.4 2.4 0 0 1-.534.067c-1.406.018-2.562-1.133-2.582-2.568s1.103-2.612 2.508-2.628c.528-.006.151-.036.872.098-.564-.306-1.276-.912-1.289-1.942-.017-1.202 1.267-2.429 2.445-2.444 1.179-.013 2.666 1.072 2.682 2.275.01.756-.404 1.355-.72 1.699.316-.344.797-.532 1.534-.542 1.406-.016 2.56 1.134 2.582 2.568.02 1.436-1.104 2.612-2.51 2.63-.113.001-.222-.018-.333-.031.02.02.041.044.059.059.494.428 1.12.613 1.661.712 1.719.313 1.92-1.042 1.92-1.042s.832.784 1.647.516c1.34-.44 1.061-1.264 1.061-1.264s-1.24.18-2.292-1.358c-.74-1.083-.67-2.299.595-3.08 1.165-.722 2.736-.295 2.736-.295s-1.46-1.712-.354-2.957c1.108-1.246 2.703-.683 3.807-.244.868.345 1.416.658 1.416.658s-1.159 1.952-2.008 5.79c-1.101 4.974-1.753 7.668-1.753 7.668l-1.362-.372s.768-4.319 1.55-7.498c.87-3.544 1.686-4.732 1.686-4.732s-1.361-1.213-2.124-.174c-.828 1.126 1.076 1.993.391 2.736-.687.742-1.916-.006-2.488.348-.95.586-.863.961-.31 1.741.57.805 1.702.49 1.702.49s.881 2.738-1.068 3.889c-1.276.753-2.46-.203-2.46-.203s-.399 1.239-2.723 1.19"/><path d="M294.179 169.323c-.156-1.367 4.02-2.954 9.328-3.544 5.309-.594 9.74.036 9.896 1.401.156 1.367-4.02 2.953-9.33 3.545-5.308.591-9.738-.037-9.894-1.402m8.913.081c3.23-.339 5.39-.936 5.243-1.797-.094-.552-2.742-.728-5.971-.388-3.23.338-5.795 1.062-5.727 1.617.067.553 3.224.908 6.455.568M238.203 135.6c-4.307 4.779-1.482 11.641-2.467 17.707-1.703 4.938-6.895 8.057-8.443 13.068-.38 2.914-.73 6.976 1.315 9.138.143-.385-.245-.605-.33-.908-.847-5.941 1.003-10.18 6.167-15.225 7.874-8.89-1.336-16.084 6.131-22.781zm18.349 56.096c3.59-.096 5.955-.557 9.497-1.48 3.476-1.048 6.275-2.028 9.495-3.147 6.95-2.148 10.84-3.8 18.1-3.917l.879.003c2.064.021 3.908.354 5.758.916.924.281 2.146 1.14 3.115 1.688 4.63 4.017 4.947 6.273 10.79 9.889 2.625 1 5.11 3.784 7.189 4.34-.864-.83-1.778-1.23-3.631-3.141-2.753-2.416-7.47-8.554-12.592-12.392-2.795-1.608-5.803-2.598-9.097-2.892-6.374-1.052-13.735.786-19.18 2.997-5.844 1.91-7.904 2.285-14.086 3.297-2.265.468-3.937.203-5.861-.32-.788-6.292-3.035-5.056-2.212-12.488 2.436-8.864 1.47-16.474-1.544-23.426.699-2.466.91-6.064-1.132-8.074-1.728-1.712-6.401-2.122-7.313.96.524 2.432 3.713.952 5.272 2.058 1.848.485 1.704 2.706 1.404 3.905-.439 3.604-4.61 5.459-7.343 6.143 1.05 2.098 5.225.73 6.575-.506 1.541 3.323 2.36 3.763 2.921 7.867.345 7.176-1.723 6.855-4.42 11.463-1.236 2.472-1.141 5.636.75 10.564-.526-7.492.449-7.943 2.546-11.314 0 0-.75 3.072-.675 5.994.091 3.482 1.912 4.494 2.043 7.622-.615 2.77-.619 3.69-2.416 5.938-3.275 4.314-9.065 3.821-11.388 14.834 4.27-6.293 5.244-7.941 9.215-10.189 5.32-2.248 6.137-4.01 7.341-7.192m-40.362-36.355c1.949 1.4 2.382 3.092 4.029 4.654-.772-.204-5.44-3.664-7.964-2.674-3.586.326-8.351 3.548-11.498.194-2.133-.908-3.584-4.55-3.949-6.758 2.001 3.387 5.533 6.81 10.097 5.924 2.392-.516 3.698-.838 5.764-.741 1.07-.028 2.698.112 4.01 1.295-1.539-1.519-3.448-2.643-5.808-2.643-5.283.112-10.79 2.472-14.063-3.835 3.05 2.374 9.345 2.615 14.59 2.532 1.758.211 3.59.774 4.793 2.052m-8.107-8.936c-.359.851-1.323 1.947-.69 2.771l1.479-1.875c-.315-.296-.627-.518-.79-.896m3.344 2.128c.552.596.8 1.278.969 1.962.692.134.89-1.018 1.424-1.108zm.97 4.09c-.5-1.515-.941-3.02-2.556-3.36-1.629-.874-3.125 3.218-3.672-.055-.661-1.893 1.555-3.307-.542-4.88-1.724-2.623.824-3.221.098-6.04-.132-2.06-.473-4.748 2.392-4.879 4.331-1.033 8.756-1.068 12.867.224 1.176-1.048 1.533-1.612 1.716-2.318 0 0 1.937-.23 3.21.296 1.274.524 2.72 1.325 2.72 1.325-1.242.157-3.375.379-3.225 2.101.824 2.024 2.746-.81 7.896 2.53.394.436 1.144.705 1.311 1.997-2.435-1.092-3.724-.708-5.723-1.61-1.606-.53-2.08-.575-3.709-.294-.617.113-3.147 1.936-3.053.624 0 0 0-.655-.355-2.01-.395-1.235-.957-1.111-2.061-1.48-5.244-1.33-7.942-.88-10.863-.374-1.124.281-1.645 1.919-1.153 3.204.997 1.987 1.357 1.664 2.426 1.61.9-.525 1.41-1.849 2.934-1.965 1.13.072 2.065.022 2.404 1.236l.017.687c-.405-.907-1.627-.501-2.245-.22-.28.28-.507.561-.28.899.4.677.872.358 1.488.496-.544.942-3.064 1.233-4.712 1.042-.598-.078-.652.81-.954.971-.59.78-.222 1.49.03 2.324 2.517 3.033 6.78 3.264 10.046 5.393.854.435 1.551 1.903 1.799 2.584-1.548-.722-1.924 1.678-1.91 2.136l.687-.421c.511-.179 1.827-.835 1.896-.928.864.819.563 2.136.796 3.188.358-.927.142-1.913.667-3.039 1.123 3.898 3.352 10.808-2.341 19.723-2.923 5.993-2.567 7.241-2.248 15.359-3.971-8.391-.967-12.612-.132-17.804.056-.458.056-1.132-.562-1.58.194 2.221-.281 3.652-1.966 5.956-2.739 3.36-3.147 7.865-1.63 11.181 1.292 3.745 2.322 5.23 1.892 9.14-.6 3.747-1.573 5.993-.225 10.939-3.033-5.956-2.085-7.943-1.936-11.4.125-2.92-.51-5.804-2.25-8.068l1.04.886c-1.013 6.894-10.453 7.567-6.969 16.895 1.199 2.099 3.896 6.181 4.046 8.13-2-3.387-4.426-3.629-6.127-7.253-4.535-.872-8.135 2.427-12.528 3.787-2.517.719-5.113 1.91-9.384-1.797 7.98 2.921 13.495-2.299 18.563-4.27 2.878-1.286 1.698-3.365 2.08-5.177.924-5.452 6.074-5.228 7.617-10.47.116-4.414-.557-7.111.79-10.033 1.35-2.922 3.463-2.118 3.755-5.836 1.26-4.313-5.118-4.733-3.87-10.061.749.999 2.166 1.644 3.413 2.25 2.185 1.065 4.596 2.845 6.124 4.563-.175-.837-1.839-3.456-2.697-4.12l-2.172-1.649c.206-.847 1.218-1.33 2.045-1.913-.241 2.453 2.77 3.596 3.957 5.092.827-3.384-.112-7.03-.957-10.066 0 0-1.15-.156-1.824.819-.973-2.324-.312-3.513.025-5.204.028-.897-.774-.34-1.224-.265-.824.449-1.133.71-1.133.71l-1.201-2.032c-.983.408-2.079 1.574-2.358 2.574"/><path d="M249.05 148.981c.258 1.063-.246 2.223-.833 3.155-.365.623-1.05.716-1.58.96.052-.919 2.012-1.965.834-3.156l-2.107-1.625c.817-.863 3.185-.927 3.687.666m-34.501 13.42c-.534.066-.993.064-1.5-.292-1.933-.865.223-1.661.35-2.658.707.669.59 2.048 1.15 2.95m7.94 21.507c.106 3.89-.263 6.664-1.029 8.936-.8 2.367-.994 3-2.802 5.921 1.502-3.621 2.01-6.32 2.516-10.482.382-3.683.249-9.04 1.733-12.03l1.264-3.596c-1.527 6.062-1.53 8.743-1.683 11.251m-47.317 40.659c.955-1.179 1.545-.875 2.079-1.067.666.67.462 1.45 1.494 1.94 1.502.733 3.603-.755 4.654-1.47 0 0 2.88 1.89 4.528 1.89s2.246-1.648 3.745-1.648 2.397 1.872 2.397 1.872 1.506-.139 9.44-1.423c7.867-1.273 5.994 3.82 5.994 3.82s2.978.644 6.224-2.853c2.397-2.58 4.864-6.136 5.538-9.583s.826-16.482.826-16.482-2.174 5.844-2.474 9.216c-.3 3.37-.898 7.416-3.82 11.686-.644.942-3.146 2.023-3.146 2.023.246.043-.862-1.964-1.799-2.697-1.368-1.067-2.547-1.199-2.547-1.199s-5.844 3.97-8.017 3.821.15-3.821.15-3.821-6.593 2.472-9.965 3.447c-3.37.973-4.008-.731-4.008-.731-1.665.58-5.136 2.07-7.192 1.35-1.881-1.07-2.753-2.08-3.596-.957l-1.91 2.08c-1.855-4.272 3.097-5.84 4.534-7.333l-3.156-.35c-1.309-.482-1.904-1.84-1.656-2.874-1.757.044-3.396.941-4.778 1.147.268-3.522 4.568-1.999 6.261-4.27.445-.61 1.648-1.141 2.98-.388 0 0-3.915-2.492-3.624-3.577 1.012-3.764 7.355 1.913 8.844 2.733-.472-.709-1.033-1.046-1.596-1.946-2.656-5.756-9.495-4.719-11.912.113.327.565 2.53-1.217 2.755.281a22 22 0 0 0 1.229 1.788c-1.444.823-2.907.922-3.984 1.414-4.101 1.462-4.213 6.912-4.213 6.912s4.148-.767 5.501-1.311a6 6 0 0 0 .567-.205c.618 2.134 2.585.673.281 4.718-1.24 2.148 1.068 6.126 1.068 6.126s1.404-.619 2.304-2.192m55.065-30.455c-1.01 1.63-4.669 8.333-5.057 14.385-1.216-5.472.113-9.89 4.439-17.25 6.181-9.103 2.93-17.972 3.316-20.735 4.832 16.632-.87 20.493-2.698 23.6"/><path d="M210.403 203.608c.224 1.236.898 3.072 2.136 5.507.886 1.552 2.021 4.382.898 10.001-1.237-7.753-2.024-7.867-3.337-10.687-1.092-2.112-2.05-5.601-1.383-8.529.15-.888 1.422-3.188 2.135-3.708-.941 1.647-1.139 5.183-.45 7.416m17.138 10.395c-2.135 3.146-3.764 5.169-5 6.237 1.124-8.821 6.63-10.113 8.99-20.901 0 4.101-1.845 12.008-3.99 14.664m36.973 12.307c1.164.311 2.351.63 3.203 1.067-1.39-.498-4.356-.994-5.315-1.065a6.3 6.3 0 0 1-1.73-.05c-4.059-.273-8.638-1.387-11.76-.253-5.103 2.143-10.659 6.318-11.666 9.192-2.705 5.703-9.442.979-13.938 6.372-1.18-1.268.525-3.296 3.053-4.869 1.885-.968 6.565.432 8.347-1.71 1.061-1.125-1.406-3.778-4.495-2.498-4.028 1.561-4.059 3.621-6.38 4.957.153-2.833 2.847-6.518 6.681-6.868 2.051-.513 3.992.658 6.275.215 2.404-1.593 3.765-2.383 7.16-4.097 2.072-1.107 3.743-1.424 6.293-1.799 5.032-.516 9.518.844 14.272 1.405m-48.183-63.013s-.458-.05-1.538-.405c-1.192-.39-2.575-1.014-2.768-1.072-.579-.176-.9-.295-.9-.295s.245-.388.627-.399 1.856.332 3.146.935 1.942 1.159 1.942 1.159zm34.398-23.163s-.15.524.225 1.498.674 1.724.674 1.724-4.795.149-4.42-.526c.374-.673.749-1.273.524-1.722s-.824-1.274-.824-1.274zm-27.944 13.484c-.544-1.566-.975-2.472-4.196-4.194-3.221-1.724-5.844-2.248-6.968-2.696-1.124-.451-2.923-.975-2.697-.826.225.151 6.444 3.671 7.641 4.196 1.199.524 2.923 1.199 3.521 1.798.6.6.751.6 1.05 1.424s0 1.873.524 2.921c.525 1.05.974 1.05.974 1.05s.824-1.725.151-3.673m-8.556-11.398c1.8 0 2.732.133 4.092.593s1.839 2.596 2.776 3.776c0 0-3.31-3.559-5.967-3.447-.448.02-1.764-.924-.901-.922m-1.647 1.937c.976-.24 1.682.05 2.536.347.856.294 1.294 1.029 2.102 2.128l-.784-.375s.168.004-.963-.587c-1.285-.673-1.688-.594-2.193-.862-.506-.267-1.167-.536-.698-.651m29.531-4.173s-2.135 1.91-2.36 5.281c-.225 3.372.563 7.417 1.124 11.239.563 3.821.112 6.63-1.461 9.328-1.199 2.056-2.248 4.944-2.135 7.978.137 3.712 2.941 7.323 2.941 7.323s-2.398-4.683-1.5-9.065c.9-4.383 3.484-6.967 3.822-10.114s-.14-6.226-.992-9.946c-1.236-5.394-1.236-8.878.561-12.024"/><path d="M238.123 194.693s2.397-3.821 2.472-7.268-2.172-6.892-2.847-10.488c-.675-3.597-.824-4.196-.075-6.818.75-2.622 2.996-3.971 2.996-3.971s-1.797 3.447-1.872 5.62-.301 3.476 1.048 7.565c1.35 4.091 2.772 8.092 1.799 11.015-.975 2.921-2.323 4.495-3.296 5.768-.975 1.275-1.575 1.348-.225-1.423"/><path d="M231.573 220.897c-.505.371-1.109.772-1.841 1.216-.619.375-1.573.544-1.573.544s.88-1.03 2.996-3.99c3.372-5.019 3.185-10.279 4.345-15.508.953-3.838 4.047-8.316 5.17-10.339s.411-8.541.411-8.541c-.224 11.013-6.068 10.564-7.529 19.254-.41 4.85-2.097 9.964-6.012 14.798-2.977 4.101-8.353 8.446-13.69 10.525 6.142 1.199 10.338-.524 15.731-.75 1.275 0 3.747.075 5.395.451 1.124.524 1.499-.825 4.795-2.548 2.397-1.198 4.166-1.984 6.297-2.644 2.905-.708 5.227-1.314 7.376-.989-.417-.236 8.719-.383 7.397-1.255-.513-2.05-3.753-.233-2.789-1.405-3.297 1.573-3.877.412-7.81 1.199 0 0-3.15.374-5.62.337 0 0-1.64-.064-2.753-.561-2.173-.975-1.949-2.998-1.949-2.998 0-1.124-.003-1.844.15-3.297.151-1.423-.28-3.877-.28-3.877s-3.315 7.474-8.217 10.378m73.34-23.469s-4.718-5.508-9.777-6.744c-5.056-1.236-14.496.225-20.228 3.147-5.73 2.922-7.979 7.081-11.013 12.474 0 0-1.358 1.9-2.098 4.12-.977 2.935-1.049 4.196.638 4.983.869.407 4.944-1.573 4.944-1.573-.936-1.311-4.308-.638-4.308-.638s1.61-2.172 3.296-3.07c1.686-.9 3.934-.45 3.934-.45l-1.91-1.349s-.112-1.348 1.797-5.619c1.91-4.27 3.821-7.641 11.239-9.552s11.125-2.36 15.62-.225c4.496 2.136 7.866 4.496 7.866 4.496m-4.683 28.656s-2.397-1.499-5.243-2.623c-2.514-.992-5.912-2.066-5.912-2.066s8.093-1.411 12.58-2.428c2.809-.636 4.126-1.014 5.844-1.874 1.797-.898 2.472-1.798 2.472-1.798s1.012-.448 2.472-4.344c1.168-3.114-.462-8.602.225-9.515 1.348-1.799 10.123.495 13.935 6.443 2.809 4.382.337 11.574.337 11.574s2.51-.973 2.81-7.529c.349-7.643-8.375-11.936-8.375-11.936s5.302 1.073 8.598 6.617c3.298 5.544 1.275 12.362-3.37 18.355-4.646 5.995-15.059 5.844-19.255 4.945 0 0 2.09 2.371 2.548 4.271.973 4.045-.375 6.368-1.948 7.267-1.353.773-8.915 1.273-11.313 1.348s-3.371 0-6.892.3-7.336-.45-8.991-.45c-.9 0-1.648.3-3.896.824-3.508.819-3.447-.074-3.447-.074s.6-1.724-3.894-1.05c-3.114.467-5.546.45-5.546.45s-2.472 1.498-6.892.674-4.794-3.596-4.794-3.596 3.37 1.574 6.968 1.499c3.596-.075 5.394-2.097 5.394-2.097s.942 1.433 4.57.224c2.022-.674 2.921-1.423 2.921-1.423s7.085.439 7.792.524c2.472.299 7.867.75 7.867.75s.598 0 5.093.298c3.084.205 5.439.41 5.62-.373.168-.731-2.248-1.667-2.248-1.667s4.27.543 6.368.617c1.544.055 2.848-.225 3.672-.749s.973-2.997.075-3.97c-1.171-1.269-.784-1.169-2.36-1.911-3.82-1.798-3.259-2.586-3.259-2.586s-1.079-1.438 1.348-.336c1.236.562-.224-1.573-.224-1.573s-.563-.563-1.65-1.012m16.26-21.052s.523 8.016-1.8 11.763c-2.322 3.745-7.94 8.314-7.94 8.314 6.143 2.399 17.231-.897 19.029-7.041 1.724-5.89-.952-10.975-3.596-12.587-3.072-1.873-5.694-.449-5.694-.449"/><path d="M283.336 219.453s.675.338 2.024.675c.995.25 5.393 1.91 5.393 1.91s1.799.225 2.76-.82c1.43-1.554-3.865.135-3.62-1.577.074-.525-.937-1.198-.937-1.198s-1.573-.338-2.81-.226c-2.473.226-2.81 1.236-2.81 1.236m-38.04 1.911s4.364-.15 8.71-1.348 5.169-2.248 7.08-2.81c1.44-.423 4.362-.245 4.362-.245s-.803.282-1.03 1.482c-.223 1.198.227 2.097.227 2.097s1.571-.603 2.771-.375c1.201.228 1.536.974 1.536.974s-1.236 1.948.412 2.473 3.708.527 7.117 1.685 5.47 1.498 8.092 2.023 5.507 1.461 5.507 1.461.412.375-.563.899c-.973.525 2.586 1.573 2.586 1.573s.337.226-2.136 0c-2.076-.188-2.402-.065-5.019-.598-4.047-.824-5.32-.824-5.32-.824s-1.648-.3-3.745-.375a125 125 0 0 1-8.766-.675c-3.896-.449-6.893-1.124-9.065-1.948-2.173-.824-4.795 0-4.795 0s-.974-1.049-2.997-.224c-2.023.824-2.884 2.959-2.884 2.959s1.01-.563 2.06-.563c1.048 0 1.723.3 1.723.3s.598 1.124-.375 2.023c-.975.9-2.697 1.648-2.697 1.648s-.075-.524-4.196-.524-4.57-.6-5.994 1.424c-1.422 2.023-.748-3.296-.748-3.296s.974-1.575 6.518-4.196c5.544-2.623 9.964-2.323 12.062-2.397 2.098-.075 4.795.149 7.492.598 1.7.284 5.994 1.799 5.994 1.799s-1.987-1.744-5.844-3.147c-3.296-1.198-12.138-1.124-16.483-.15s-5.993.074-5.544-.599 3.952-1.124 3.952-1.124"/><path d="M247.563 229.456s1.948-.75 3.296-.225c.532.206.749.3 1.125.75.373.448 1.273 1.198 1.273 1.198s-4.721.374-3.746 2.621c.973 2.25 3.521 1.873 3.521 1.873s-1.35.6-1.724 2.024c-.375 1.423.975 2.172.975 2.172l3.821 1.499-2.323.824s-1.573-.675-1.948.3c-.374.973-.525 1.967-.525 1.967s-1.573-1.592-1.797-3.691c-.226-2.097 1.348-3.67 1.348-3.67s-1.186-1.014-2.166.093c-.981 1.105-1.205 2.322-1.205 2.322s-1.65-1.517-1.948-3.614c-.3-2.099 1.348-3.596 1.348-3.596zm-34.576-51.021c-1.236 8.204-4.159 11.913-4.944 14.722 0 0-.675-1.536-2.36-2.66-1.556-1.037-4.271.599-4.271.599s-2.472-3.221-8.09-5.581c-4.594-1.928-4.046 2.061-4.046 2.061l-5.245-5.77c-1.946-2.14-3.971-1.235-5.77-.674-1.797.561-7.078-.224-7.078-.224s-4.047-.337-4.047-4.159c0-2.7 2.921-3.708 2.921-3.708s-2.472-1.461-2.246-4.27 3.258-2.698 3.258-2.698-2.248-1.797-2.134-3.258c.112-1.462 2.472-3.822 4.157-4.046 1.687-.225 7.668 3.028 10.452 3.708 2.528.618 1.383 3.882 5.877 5.714 1.912.777 5.248 1.59 9.407 1.59 4.157 0 5.619 1.574 10.339 2.698 4.718 1.124 5.169-.786 5.169-.786s-.907 3.808-1.35 6.742m-37.635-18.287c-1.545-.648-2.617-.384-3.89.644-.435.852-.422 2.604.582 2.96 3.215.544 2.737-2.06 5.959-1.688a9.1 9.1 0 0 1-2.651-1.916m-3.308 13.417c-1.205.315-2.98 1.863-2.741 3.742.586 1.633.981 2.048 2.946 2.308.956-.224 1.691-.396 1.743-1.067s-.45-.412-.075-.787c1.198-1.049 2.322-.797 3.371-.824-1.573-1.573-2.341-1.517-3.072-2.022-1.943-1.73-.645-2.65.224-3.372.576-.342 2.641-.15 3.66.309l-3.36-3.98c-1.516-.956-4.033-1.315-4.767.844-.14.56-.236 2.128.422 2.527 1.124 1.198 1.724 1.498 1.649 2.322m37.459 11.163s-.692-2.959.376-5.544c1.066-2.584 3.221-4.495 3.221-4.495-2.336 1.335-3.404.071-9.36-1.67-5.956-1.743-9.07-1.214-11.43-1.383-2.36-.168-7.867-3.427-8.71-4.157s-.677-1.399-1.217-3.13c-.375-1.197-2.023-1.722-3.147-1.497s-1.499 1.048-1.499 1.048-.617.15-1.797.376c-1.181.224-1.873 1.723-1.873 1.723s1.048-.487 2.004-.375c.954.112 1.697.901 1.697.901.075 2.623-.216 2.696.832 4.495 1.395 2.392 4.381 5.017 4.381 5.017 2.944 1.976 6.894 3.596 7.568 3.896.459.206 2.836 1.35 4.944 2.098 2.323.824 4.271 3.372 4.271 3.372s.021-2.583 3.596-1.424c2.772.9 6.143.749 6.143.749m37.143-28.038s.851 4.486.056 6.518c-1.517 3.877-3.722 4.71-4.382 8.41-.788 4.4.598 9.44 1.348 11.987.749 2.547 1.573 5.6.674 7.698s-2.622 4.289-3.821 6.836-1.967 5.862-1.967 5.862 1.818-4.064 3.016-5.862c1.499-2.248 3.759-4.947 4.571-7.267 1.965-5.62-.975-9.215-1.575-12.437-.741-3.987.307-7.331 2.474-10.039 2.097-2.623 2.621-4.644 3.07-7.192.54-3.057.526-5.695.526-5.695zm-91.888 115.555s89.74-2.272 112.671-4.356c6.167-.56 17.072-.898 23.857-1.573s16.854-1.123 16.854-1.123-3.134 1.467-10.794 2.14c-8.722.768-25.048 2.748-32.586 2.748-9.203 0-39.86 2.214-49.043 2.664-37.768 1.846-60.959-.5-60.959-.5"/><path d="M207.256 52.945 184.219 155.51s-.114 1.294.561 1.574c.675.281 1.163.394 1.91.842.843.507 1.518 1.182 1.518 1.182s-1.743-.058-3.765-.731c-1.903-.635-2.248-1.855-2.248-1.855l23.412-103.277c.75-4.42 2.322-13.71 2.548-16.032.225-2.323-.299-1.799-1.199-.675-.899 1.124-3.745 8.242-5.095 14.31 0 0-22.476 94.249-22.925 96.872-.45 2.621-.168 3.857-1.405 5.937-1.279 2.152-2.435 2.565-3.932 2.416-1.122-.112-2.679-.17-2.979.73-.205.618.75 1.031 2.023 1.18s2.904.111 4.326-.28c1.63-.45 2.304-.675 2.304-.675s.423.902.843 1.292c.787.73 1.517 1.349 2.416 1.742.801.351 3.072.994 4.495.918s1.724.749 1.948 1.349c.225.599 1.372 1.248 2.848.524.992-.487 1.104-2.341.149-3.184-1.145-1.012-2.772.112-3.072-.412-.299-.525 1.161-2.061 3.353-1.273 1.851.665 2.951 2.329 2.135 4.776-.843 2.528-3.615 2.49-5.112 2.266-1.5-.225-2.324-1.349-2.848-1.498-.524-.151-1.648-.226-1.648-.226s-9.89-3.97-10.713-4.12c-.824-.15-2.922.224-3.672.374s-1.274.974-3.147.674c-1.035-.165-4.399-1.465-3.37-4.55.749-2.248 2.303-3.203 4.663-2.81 1.211.202 1.292 1.348 2.36 1.516 1.392.222 2.416.076 2.866-1.348.449-1.422 24.573-97.545 24.573-97.545 3.447-11.388 6.07-18.356 8.392-21.277s3.375-5.459 2.996 1.049c-.375 6.443-1.023 10.872-2.472 17.681m-39.67 104.64c.723 0 1.311-.552 1.311-1.233 0-.68-.588-1.23-1.312-1.23s-1.31.55-1.31 1.23c0 .681.586 1.233 1.31 1.233m51.808 53.214s.45-7.417 3.371-16.07c1.205-3.569 3.747-7.754 4.27-11.35.602-4.12-.56-9.216-.337-11.687.224-2.473.451-4.833.451-4.833h1.573s-.674 5.619-.226 7.979c.45 2.36 1.197 6.697.338 9.777-1.349 4.832-3.986 8.087-5.02 12.1-1.273 4.944-2.097 10.563-2.173 15.808z"/><path d="M162.921 156.94c.835 0 1.511-.64 1.511-1.43s-.676-1.43-1.51-1.43-1.51.64-1.51 1.43.676 1.43 1.51 1.43m10.957 33.292c1.097 0 1.986-.855 1.986-1.907s-.889-1.908-1.986-1.908-1.986.855-1.986 1.908.888 1.907 1.986 1.907"/><path d="M171.63 180.345s.563-.393-.054.282c-.619.673-1.78 2.004-1.48 3.501.299 1.5 1.48 3.297 3.952 3.579s4.495-.787 5.001-3.035-.225-3.09-.844-3.708c-.617-.619-3.145.224-3.145.224 1.067.73 1.572 1.799 1.46 2.867-.112 1.066-1.124 1.628-2.08 1.46-.955-.168-2.001-.934-1.628-2.191.45-1.517 2.021-2.136 2.021-2.136s-.054-.673.451-1.01-3.653.167-3.653.167m23.959-15.557c1.122 0 2.031-.933 2.031-2.085 0-1.154-.909-2.087-2.032-2.087s-2.032.933-2.032 2.087c0 1.152.91 2.085 2.032 2.085m-9.997 61.673s2.428 5.223 4.825 8.37 4.046 5.544 5.544 8.092c1.499 2.546 6.014 9.544 9.61 14.338s9.989 11.987 9.989 11.987-8.36-13.14-10.908-16.587c-2.547-3.445-4.944-7.492-7.343-10.637-2.396-3.147-10.218-14.215-11.717-15.563m21.271-.245s9.889 11.987 14.834 17.83c4.944 5.845 7.492 10.49 9.888 13.337 2.399 2.846 9.384 10.956 9.384 10.956s-3.389-7.66-7.585-12.156c-3.837-4.111-7.043-9.29-10.19-13.035-3.146-3.747-7.94-10.19-10.038-11.988-2.099-1.799-5.244-5.095-6.293-4.944m31.485 9.532s12.305 15.303 14.403 17.401c2.097 2.098 8.69 11.388 8.69 11.388s7.174 7.174 2.454.43c-1.147-1.636-7.267-9.439-9.964-12.886s-5.844-7.042-8.391-10.038c-2.815-3.312-6.743-5.695-7.192-6.295m30.211 6.931s1.948 3.746 4.045 5.694c2.099 1.948 6.144 6.592 7.492 8.242 1.35 1.648 9.301 8.47 9.301 8.47s-3.157-4.425-5.405-6.673c-2.247-2.248-4.644-4.645-6.443-6.743-1.797-2.097-7.792-8.09-8.99-8.99m21.901-.76s6.107 6.496 9.112 9.961c3.007 3.465 10.019 9.3 10.019 9.3s-1.503-3.383-3.694-5.385c-2.189-2-6.446-6.61-8.193-8.78-1.747-2.172-4.38-4.774-4.38-4.774z"/><path d="M191.177 257.439s9.596-1.012 13.932-1.236c4.339-.226 19.519-.451 25.156-.451 5.639 0 28.192-1.797 35.999-2.023 7.807-.224 20.601-1.797 23.637-1.797s29.474-.581 29.474-.581-4.096 1.249-12.29 1.748c-1.745.106-18.701 1.529-21.304 1.529s-10.246.17-10.246.17-7.464.73-11.223.505-10.987.861-10.987.861-3.542.039-8.096.488c-4.554.45-12.794 0-13.662.224-.868.225-7.211.919-12.776.993-5.567.075-10.572-.093-11.223-.318s-5.06.225-7.663.225-8.728-.337-8.728-.337m55.487-16.895h-14.685c-2.547 0-11.35.71-11.35.71s-7.829-.26-11.874-.26c-4.047 0-21.952 1.049-21.952 1.049s5.844.673 22.025.224c3.941-.11 11.95 0 13.599 0s9.088-.084 11.35-.224c12.699-.788 12.887-1.499 12.887-1.499m-29.014-11.369s-12.305.168-17.25.393c-4.944.225-14.61.225-14.61.225s2.923-.73 7.643-.956 8.986-.064 11.687-.225c4.72-.28 12.53.563 12.53.563m-79.049-42.518a.74.74 0 0 0-.628.067l-.225.028a.4.4 0 0 0-.215.243l-.037.16c-.393.636-.636 1.517-.093 2.134.561.627 1.685.571 1.648 1.76l-.028.142.094-.45-.076.15c-.102.205-.197.412-.3.618l-.093.355a.8.8 0 0 0 .056.684l.048.075c.487 1.133 1.676 1.64 2.761 2.05-.318.572-.71 1.115-.805 1.79l-.028.328a.9.9 0 0 0 .15.542l.122.179c.345.777 1.217 1.076 1.863 1.583.188.149.057.44-.159.814-.552.964-.093 2.079.759 2.744.542.422 1.254.599 1.545 1.208.403.871-.328 1.732-.225 2.698.15 1.282 1.153 2.386 2.501 2.386.093 0 .261.142.243.198-.187.74-.758 1.329-.655 2.162.15 1.303 1.301 1.706 2.163 2.362-.168.328.186.682-.263.992-.317 1.517.779 3.202 2.445 3.314.15.011.356.274.674.291.141.075.3.019.376-.121a.274.274 0 0 0-.132-.366c-.618-.758-1.518-1.348-1.63-2.406.731-1.48.243-3.419-1.478-3.99-.076-.029-.151-.214-.114-.29.412-.974.806-2.06.263-3.063-.404-.74-1.237-1.105-2.108-1.245-.065-.01-.121-.29-.103-.459.114-.917.412-1.743.198-2.697-.282-1.283-1.322-1.995-2.38-2.519-.066-.028-.187.047-.29.084.946-1.657.318-3.943-1.648-4.439l-.376-.458.16.542.056-.337c.423-1.039.844-2.33-.261-3.221-.61-.496-1.424-.496-2.015-.984l-.28-.543.094.516.112-.328c0 .019-.01.027-.01.047l.254-.478a.8.8 0 0 0 .093-.422l-.028-.366c-.15-1.169-1.105-1.948-2.276-2.19-.336-.066-.299-.562-.224-.89l.13-.458-.13.186.29-.15c-.271-.392.15-.271.271-.374a.11.11 0 0 0 .066-.121.106.106 0 0 0-.122-.067m10.039-2.022c-.215-.075-.183.172-.38.285l-.224.028a.4.4 0 0 0-.215.244l-.037.159c-.393.637-.637 1.517-.095 2.134.563.628 1.439.354 1.402 1.542l-.03.14.095-.448-.075.149c-.102.205-.197.412-.3.617l-.093.356a.8.8 0 0 0 .055.684l.048.075c.486 1.133 1.676 1.639 2.761 2.05-.317.573-.71 1.115-.804 1.79l-.03.328a.93.93 0 0 0 .151.543l.122.178c.346.778 1.217 1.076 1.864 1.583.188.15.056.44-.16.813-.552.966-.094 2.08.758 2.746.544.421 1.256.598 1.547 1.208.401.87-.328 1.732-.227 2.697.151 1.283 1.154 2.387 2.502 2.387.094 0 .262.141.244.197-.188.74-.759 1.33-.656 2.163.149 1.302 1.301 1.705 2.164 2.36-.17.329.186.684-.263.993-.319 1.517.777 3.203 2.444 3.315.15.01.356.272.675.29a.271.271 0 1 0 .242-.486c-.617-.759-1.516-1.348-1.628-2.407.73-1.48.243-3.419-1.48-3.99-.074-.027-.15-.215-.113-.29.413-.973.805-2.06.263-3.063-.403-.738-1.236-1.105-2.107-1.245-.065-.01-.123-.29-.104-.459.113-.918.413-1.741.197-2.697-.281-1.283-1.32-1.995-2.38-2.519-.064-.028-.186.047-.289.084.947-1.657.319-3.942-1.648-4.438l-.375-.459.159.543.057-.338c.422-1.038.842-2.332-.262-3.221-.608-.496-1.424-.496-2.014-.983l-.281-.544.093.516.114-.329c0 .02-.01.03-.01.048l.252-.479a.8.8 0 0 0 .095-.421l-.028-.365c-.15-1.171-.857-1.728-2.03-1.972-.335-.066-.3-.562-.223-.888l.13-.46-.13.186.289-.149c-.27-.393.15-.272.273-.375a.11.11 0 0 0 .064-.121c-.018-.047-.312-.295-.369-.285m9.221-1.17c-1.15 1.302-.468 3.484 1.144 4.036.646.712-.101.936-.325 1.666l-.037.178a.8.8 0 0 0 .112.412l.037.076c.215.851.843 1.526 1.695 1.854l.29.018-.244-.205-.018-.048c.516.29 1.17.843.89 1.368-.824 1.535-.066 3.25 1.376 3.923l.151.076-.423-.384.384.43c.226.066.394.244.422.535.037.347-.112.645-.28 1.02-.666 1.49.692 2.847 1.957 3.69a.59.59 0 0 1 .253.6c-.234 1.32-.872 2.78.394 3.717.833.628 1.385 1.292 1.76 2.21a.44.44 0 0 0 .468.412.44.44 0 0 0 .421-.458c.365-.891.3-2.051-.412-2.744a4.7 4.7 0 0 0-1.461-.992c-.168-.076-.3-.582-.196-.863.421-1.17.477-2.565-.366-3.503-.468-.514-1.189-.71-1.564-1.329-.598-.984.216-2.013.112-3.072-.018-.281-.14-.524-.317-.74l.121.103a1 1 0 0 0-.412-.383l-.468-.253c-.646-.234-1.237-.712-1.405-1.376-.244-.966.58-1.902.084-2.876l-.037-.243a.9.9 0 0 0-.496-.31l-.254-.131c.067-.01.122-.028.188-.038-.253-.224-.665-.168-.844-.505l-.401-.403.112.412v-.337c-.207.037-.253-.177-.225-.243.432-1.32.204-2.293-1.136-3.033-.656-.365-.478-1.256-.206-1.892a.461.461 0 1 0-.844-.375m-28.653 4.925c-1.152 1.302-.468 3.483 1.143 4.037.646.712-.029 1.516-.254 2.246l-.037.179a.8.8 0 0 0 .112.412l.038.075c.215.853.843 1.526 1.696 1.854l.29.019-.244-.207-.02-.046c.516.29 1.172.844.89 1.368-.824 1.534-.065 3.249 1.378 3.922l.15.076-.422-.384.384.431c.225.065.393.244.421.533.038.347-.112.647-.281 1.022-.664 1.489.693 2.846 1.957 3.689.198.132.3.365.254.6-.235 1.32-.871 2.781.393 3.717.833.628 1.387 1.294 1.761 2.211a.44.44 0 0 0 .467.412.44.44 0 0 0 .423-.459c.365-.889.298-2.05-.412-2.745a4.8 4.8 0 0 0-1.462-.992c-.169-.075-.3-.58-.197-.861.421-1.171.479-2.566-.364-3.503-.47-.515-1.19-.712-1.565-1.33-.599-.983.216-2.013.113-3.071-.019-.28-.141-.524-.319-.74l.122.104a1 1 0 0 0-.412-.384l-.468-.254c-.647-.234-1.236-.712-1.404-1.376-.245-.965.58-1.901.084-2.876l-.038-.242a.9.9 0 0 0-.496-.311l-.254-.13c.066-.01.122-.027.188-.038-.253-.224-.665-.168-.843-.505l-.402-.403.112.412v-.337c-.206.037-.253-.178-.225-.243.43-1.321.131-2.876-1.208-3.616-.655-.365-.478-1.255-.206-1.89a.46.46 0 1 0-.843-.375"/><path d="M138.985 213.657c-.244.89.122 1.76.946 2.294.346.225.449.788.533 1.265-.073-.112-.159-.235-.233-.347-.047.188-.103.384-.15.571l-.122.337a.8.8 0 0 0-.008.45l.082.272c.395 1.04 1.378 1.638 2.183 2.322a.814.814 0 0 0 1.143-.074.81.81 0 0 0-.075-1.143c-.477-.44-.984-.852-1.47-1.273l-.273-.526-.018.487.084-.252c.6-1.256-.094-3.081-1.526-3.24-.13-.019-.338.233-.581-.17-.187-.3-.233-.655-.328-.991a.11.11 0 0 0-.103-.084.11.11 0 0 0-.084.102m7.043 12.999-.337-.085.037-.196a.4.4 0 0 0-.244.084l-.252.262c-1.115 1.283-.01 2.743.552 3.98.037.094-.224.394-.57.618-.92.6-.985 2.052-.189 2.782.562.524 1.434 1.039 1.106 1.826-.394.937-1.462 1.554-1.396 2.697.046.796.628 1.357 1.012 2.013.637 1.058-.692 1.911-.966 2.978-.214.88.16 1.892 1.031 2.324.505 1.132-.955 1.778-1.19 2.8l-.074.121a.87.87 0 0 0-.103.459l.038.337c.037.356.233.637.43.917.319.459 1.002.731.936 1.284-.112.992-.842 1.695-1.704 2.21a.774.774 0 0 0-.225 1.077.784.784 0 0 0 1.087.216c1.442-.628 2.462-1.912 2.556-3.503.046-.928-.571-1.724-1.274-2.276l-.158-.384-.103.468.177-.449c.478-.928 1.283-1.733 1.264-2.828-.018-.965-.598-1.761-1.141-2.51.692-1.02 1.16-2.163 1.076-3.438-.065-1.01-1.19-1.516-1.18-2.453.01-.656.74-1.104.937-1.788.394-1.35-.525-2.483-.721-3.738.43-.673.824-1.469.477-2.341-.374-.936-1.452-1.592-1.057-2.79l.121-.273-.253.086.103-.028c.074-.039.15-.084.225-.122a.317.317 0 0 0 .01-.45.315.315 0 0 0-.451-.018zm9.645-.731c-.374-.113-.758.056-1.012.327-1.254 1.359-.598 3.081.404 4.459.094.13.066.477-.046.637-.919 1.207-1.434 2.528-.91 3.97.263.731.88 1.189 1.264 1.854.114.197.047.477-.121.637-1.424 1.339-1.676 3.652-.056 4.898.272.684.13 1.424-.505 1.798l-.198.234a.9.9 0 0 0-.186.412l-.047.318c-.207 1.264.468 2.286 1.152 3.334.112.169.112.544-.019.656-1.012.965-2.014 2.089-1.64 3.549.028.497.45.872.947.844a.9.9 0 0 0 .843-.956c-.01-.281-.131-.617-.038-.815.431-.937 1.47-1.469 1.667-2.584.207-1.153-.44-1.958-1.087-2.857-.168-.252-.13-.59-.112-.899l.028-.318-.186.412.14-.207c1.02-.72 1.254-2.032.926-3.192-.214-.77-.926-1.19-1.133-1.93-.317-1.2.505-2.107.815-3.222.056-.215.046-.44-.019-.655-.28-.926-.72-1.808-.57-2.762.14-.891.851-1.564.993-2.502.196-1.376-.778-2.256-1.49-3.333-.422-.647-.169-1.357.271-1.939.057-.018.076-.074.047-.121-.019-.057-.074-.075-.122-.047m9.272-1.358c-.384 0-.76.066-1.049.46-1.377 1.853-.103 3.989.796 5.684-.263.272-.299.693-.543.926-1.48 1.443-.797 4.027.458 5.339l.066-.085v-.008l.028.065c.179.233.394.459.263.833-.347 1.04-1.245 1.807-1.273 2.931-.03.824.401 1.49.785 2.21.244.46.628 1.105.253 1.46-1.722 1.613-.514 3.991.534 5.48.046.983-.29 1.966-.974 2.687a.563.563 0 0 0-.13.796.57.57 0 0 0 .796.142c.552-.17 1.068-.432 1.441-.91 1.115-1.385.993-3.437-.205-4.776-.974-1.085.037-2.192.14-3.352.093-1.077-.524-2.07-1.199-3.025-.317-.45-.375-.992-.168-1.517.45-1.115 1.357-2.172 1.076-3.466l.067-.074a.8.8 0 0 0-.459-.459l.028-.14c-.15-.74-.684-1.517-.244-2.267l-.281.252c1.292-.852 2.116-2.602 1.498-4.092-.656-1.582-2.753-3.044-1.592-4.906.047-.039.066-.104.038-.15-.038-.048-.103-.066-.15-.038m10.9 2.856c-.993-.046-1.338 1.077-1.413 1.873-.085.89.365 1.61.899 2.341.141.188.224.47.158.666-.261.889-1.17 1.48-1.264 2.425-.121 1.303.787 2.425 1.704 3.259l.207.141-.375-.468.028.075c.084 1.15-1.189 1.778-1.517 2.828-.403 1.292.58 2.285 1.245 3.333.058.085.076.244.03.31-.675.86-1.34 1.694-1.238 2.809.114 1.312 1.199 2.078 1.808 3.137-.084 1.34-.44 2.632-1.724 3.335a.26.26 0 0 0-.065.365c.076.12.244.159.367.075.822-.507 1.76-.834 2.377-1.622.75-.954 1.217-2.246.525-3.389-.43-.712-1.03-1.199-1.47-1.892-.122-.187-.15-.515-.038-.684.487-.712.947-1.367 1.087-2.2.159-1.03-.703-1.657-1.219-2.481-.14-.216-.242-.45-.093-.656.853-1.18 1.939-2.398 1.555-3.887l.056-.065a.88.88 0 0 0-.375-.468l-.047-.114c-.308-.412-.196-1.057-.945-1.226.796-.974 1.835-2.04 1.564-3.446-.205-1.03-.852-1.724-1.573-2.445-.487-.496-.206-1.16-.066-1.76a.12.12 0 0 0-.009-.177.12.12 0 0 0-.179.008"/><path d="M132.425 258.148s7.466-.533 11.674-1.047c4.606-.562 13.573-.04 21.516-.34 8.624-.325 19.846-1.35 19.846-1.35s.967-8.424.068-13.819c-.898-5.393-.3-17.081-.3-17.081s1.798 7.042 2.099 11.388c.299 4.345.748 10.04 1.048 12.736s.15 2.548.599 5.394.525 6.626.525 6.626-4.976 1.733-8.445 1.524c-3.467-.208-12.158-.807-16.204-.059-4.046.75-6.892 1.199-12.436.899-5.544-.299-10.939-.15-11.839.6-.899.749-2.995-2.098-2.995-2.098s8.091-1.198 12.736-.898c4.644.298 14.964-.566 17.962-.864 2.996-.3 8.232.656 10.806.413 6.175-.58 7.043-2.097 7.043-2.097s-4.915-.282-11.357.018-11.704.667-16.65.667c-4.944 0-12.652.033-15.649.332-2.997.301-7.325.833-7.325.833z"/><path d="M155.673 262.72s.466 2.216.871 4.36c.855 4.52 6.117 8.519 6.117 8.519l2.811.898-.787-2.022s-4.842-4.096-5.576-7.15c-.382-1.592-.064-4.605-.064-4.605zm24.78-1.348s.276 2.41 1.132 5.83c.899 3.597 6.608 8.237 6.108 7.451.787 1.238 2.524 2.06 2.524 2.06l1.635-.149-.653-1.863s-5.568-4.606-6.559-6.888c-2.248-5.169-.476-5.165-1.212-6.557-.472-.89-2.975.116-2.975.116m-63.963-75.291.338.97s7.941-1.799 12.81-2.622c4.87-.824 6.818-.674 14.76-2.322s18.13-2.547 18.13-2.547 4.047 8.016 5.77 11.912c1.723 3.895 6.742 13.035 6.742 13.035s-1.048-6.743-2.472-8.915c-1.423-2.173-4.495-8.316-5.544-10.864-1.05-2.547-3.25-8.548-3.25-8.548s-5.922 1.603-6.34 1.656-.525-.224-.525-.224.151-3.223-.3-4.645c-.448-1.424-6.142-10.415-6.142-10.415l-2.172-1.423.898 3.22s3.522 4.946 4.346 7.344.824 6.592.824 6.592l-22.177 4.046s-1.649-5.244-3.73-9.03c-.67-1.217-4.886-3.182-5.335-3.781-.45-.6-1.199-1.648-1.199-1.648l-1.199-.824s-.85 2.55 0 3.67c1.649 2.173 3.896 1.949 5.32 4.046 2.568 3.785 3.072 7.941 3.072 7.941l-11.164 2.472z"/><path d="m161.852 182.059.599-1.05s-4.608.563-6.518.674c-1.91.113-9.284 1.501-13.105 2.4-3.821.9-10.788 1.237-14.947 2.024s-11.631 2.977-11.631 2.977 4.81 9.58 6.271 14.299c1.461 4.721 2.141 12.432 4.608 16.969 2.81 5.17 7.866 5.957 7.866 5.957s4.56-2.08 10.284-2.528c5.73-.45 11.125-2.586 16.406-3.034 5.283-.45 9.554-2.136 9.554-2.136s-2.53-2.079-6.012-1.292c-3.484.786-12.216 3.28-14.218 3.652-2.416.449-7.36.956-9.608 1.629-1.702.512-5.45 1.236-5.45 1.236s-4.158-.843-6.574-7.136c-2.222-5.785-2.304-8.035-5.057-14.047-2.116-4.621-5.485-12.782-5.485-12.782s4.439-1.068 7.36-1.743c2.923-.673 3.485-.112 11.464-1.797 7.978-1.686 15.502-3.074 19.173-3.599 1.375-.196 4.832-.6 5.02-.673"/><path d="M135.932 225.71s-.59 4.794-.45 7.94c.3 6.743 3.147 10.94 2.398 15.435-.75 4.495-3.221 9.139-3.221 9.139l-1.574-.899s2.248-6.142 1.948-9.589-1.948-10.039-1.798-13.635 1.049-8.092 1.049-8.092zm108.985-106.233c1.039-.625 1.739-1.746 1.739-3.038 0-1.971-1.613-3.57-3.604-3.57s-3.605 1.599-3.605 3.57c0 .345.065.672.157.988-.672-.463-2.073-.631-3.512-.18-1.437.45-2.863 1.441-2.863 3.712s1.086 3.974 3.38 3.974c.235 0-.224.036 0 0-.142.175.04-.13 0 0-.27.879-1.494 2.24-3.442 1.698-2.911-.812-2.528-3.57-2.528-3.57s-2.718 1.967-4.566.843c-2.213-1.344-.988-2.213-.988-2.213 2.834.324 4.996-2.872 4.091-5.199-.88-2.259-3.717-3.497-5.836-2.452 0 0 .4-2.633-3.847-3.185-3.053-.395-5.056 3.621-4.182 5.494.444.954.749 1.187 3.496 5.87 2.748 4.682 3.56 7.417 3.56 7.417.044.17.117.505.117.928 0 .599.15.973.15.973s3.97.412 13.035 3.559 15.208 6.556 15.208 6.556.075-.3.151-.824q.025-.182.06-.361c.136-.616 1.984-2.504 3.912-3.724 5.985-3.788 8.39-4.694 11.399-6.383 1.989-1.117 1.248-4.803-.687-5.744-3.799-1.845-5.07.359-5.07.359-1.286-1.772-4.413-1.996-6.377-.536-2.024 1.504-1.84 5.048.798 6.014 0 0 .061.806-2.392 1.396-2.247.542-2.923-2.802-2.923-2.802s-1.747 1.972-5.275 1.08c-1.089-.278-2.137-1.475-1.732-3.571.723 1.208 1.551 1.032 2.831.947 2.021-.136 3.55-1.494 3.55-3.766 0-1.806-1.325-3.49-2.96-4.042m0 0a4.3 4.3 0 0 0-1.245-.218m-22.941 4.678c-.82-2.095-3.97-6.727-4.543-8.18-.49-1.246 1.148-3.014 2.747-2.498 1.465.474 1.735 3.362 1.735 3.362s1.661-2.146 4.025-.82c1.579.886 1.232 2.369.412 3.25-1.012 1.087-3.501.307-3.501.307s-1.872 2.896 2.261 5.764c3.06 2.123 4.808-.061 4.808-.061s.187 2.121 2.497 2.746c1.096.296 3.703 1.894 5.994-2.434.518-.98.758-2.687.422-2.755-.338-.067-.737-.02-1.28-.02-1.089 0-1.973-.835-1.973-1.867 0-1.03.737-2.021 1.828-2.021.55 0 1.047.213 1.404.556l.01-.065s1.153 1.521 2.61-.139c.567-.645.016-2.255.016-2.255l.004-.005a1.6 1.6 0 0 1-.119-.581c0-.898.77-1.624 1.719-1.624.948 0 1.717.726 1.717 1.624 0 .701-.472 1.292-1.13 1.52-.292.284-.827.885-.947 1.581-.29 1.704 2.232 1.808 2.232 1.808l-.072.119c.033-.002.067-.01.1-.01 1.09 0 1.975.836 1.975 1.866 0 1.032-.888 1.965-1.975 1.866-1.335-.121-2.076-1.473-2.817-1.338 0 0-4.05 5.18 1.26 7.516 3.054 1.344 5.166-.074 5.166-.074s1.291 2.291 3.864 2.382c3.796.134 5.704-3.974 5.704-3.974s-2.58-.446-2.882-1.772c-.246-1.074.24-2.434 2.084-2.47 2.76-.054 3.462 2.504 3.462 2.504s.75-1.486 2.234-1.723c1.528-.245 2.716 1.92 1.624 2.684-.979.684-6.108 3.543-8.674 5.252-2.992 1.996-3.42 2.2-4.688 3.28-.71.607-1.218 1.39-1.608 1.65l-1.576-.6s.076 0-2.846-1.2-3.296-1.423-3.296-1.423-1.548-.752-4.919-1.951c-3.372-1.199-5.987-2.077-5.987-2.077s.416.357-2.581-.618c-2.996-.973-2.77-.898-2.77-.898l-1.666-.407-.133-.268s-.855-2.763-1.931-5.51m4.905 12.819c.47.126 2.427 1.603 3.331 2.582.999 1.081 1.915 2.829 1.915 2.829s-2.187-.936-5.036.021c-2.604.874-3.622.063-3.706-.936-.082-1 .75-1.914.75-1.914s-.774 1.216.706 1.601c1.438.375 2.187-.156 2.187-.156s-1.563-.193-1.687-1.061c-.124-.874.479-1.374 1.062-1.623 0 0-.608-.424-2.435.093-1.395.396-1.436 1.603-1.685 1.936s-.362.122-.25-.916c.187-1.737-.312-3.829 4.848-2.456m13.196-29.134c1.294 0 2.342-1.06 2.342-2.368s-1.048-2.368-2.342-2.368-2.34 1.06-2.34 2.368 1.047 2.368 2.34 2.368"/><path d="M223.559 109.085c0-1.942 1.6-3.516 3.573-3.516s3.572 1.574 3.572 3.516-1.6 3.516-3.572 3.516c-1.973 0-3.573-1.574-3.573-3.516m3.573 1.527c.913 0 1.653-.683 1.653-1.527s-.74-1.528-1.653-1.528c-.915 0-1.656.684-1.656 1.528s.741 1.527 1.656 1.527m4.035-4.042c0-1.589 1.321-2.875 2.95-2.875 1.631 0 2.952 1.286 2.952 2.874 0 1.587-1.321 2.874-2.952 2.874-1.629 0-2.95-1.287-2.95-2.874m2.938 1.169c.666 0 1.204-.512 1.204-1.146 0-.632-.538-1.144-1.204-1.144s-1.204.512-1.204 1.144c0 .634.539 1.146 1.204 1.146m10.483-14.211s-.583.582-1 1.664c-.416 1.082-.416 2.581-.416 2.581s4.301-.672 4.496.333c.195 1.004-.5 1.692-.5 1.692l2.567.886s-.154-1.746.429-1.912c.584-.167 3.581 2.497 3.581 2.497s.748-.167 1.498-1.75c.657-1.385-.167-2.497-.167-2.497s-4.245.834-4.245-.332 2.997-3.996 2.997-3.996-.843-1.202-2.295-1.6c-1.826-.5-2.2-.148-2.2-.148s-.166 4.912-.833 4.995-3.912-2.413-3.912-2.413"/><path d="M224.833 113.896s2.796-2.527 7.996-4.51 8.196-1.925 9.871-2.391c1.673-.468 3.179-.774 3.179-.774s1.449 2.61.444 2.923c-1.006.315-2.576-.299-5.495-.104-2.917.193-5.521 1.465-8.712 2.83s-4.484 3.745-4.484 3.745zm26.091-2.941c-1.112-.659-1.473-2.106-.805-3.231.666-1.124 2.109-1.501 3.221-.843 1.11.66 1.472 2.107.805 3.231-.666 1.125-2.109 1.503-3.221.843"/><path d="M260.19 125.84s-1.22-5.164-4.513-9.65c-3.292-4.486-5.841-6.063-6.993-7.365-1.153-1.301-2.25-2.373-2.25-2.373s-2.634 1.405-1.96 2.215c.674.808 2.326 1.145 4.671 2.892 2.347 1.745 3.844 4.228 5.784 7.105s1.976 6.381 1.976 6.381z"/><path d="M259.157 122.393c-1.697-1.008-2.269-3.177-1.278-4.848.99-1.669 3.169-2.208 4.866-1.201 1.696 1.005 2.27 3.176 1.279 4.847-.99 1.669-3.17 2.208-4.867 1.202m1.75-1.497c.914 0 1.654-.684 1.654-1.528s-.74-1.528-1.654-1.528-1.655.684-1.655 1.528.741 1.528 1.655 1.528m-17.623-17.215a3.884 3.884 0 1 1 3.884 3.885 3.884 3.884 0 0 1-3.884-3.885m3.884 1.946c1.083 0 1.96-.871 1.96-1.946a1.95 1.95 0 0 0-1.96-1.944 1.953 1.953 0 0 0-1.959 1.944c0 1.075.878 1.946 1.959 1.946m8.093 10.025c-1.401-.832-1.882-2.613-1.072-3.979.808-1.365 2.603-1.797 4.004-.966 1.403.832 1.883 2.613 1.074 3.978-.81 1.364-2.603 1.798-4.006.967m1.467-1.341c.665 0 1.204-.514 1.204-1.144 0-.634-.539-1.146-1.204-1.146s-1.204.512-1.204 1.146c0 .63.539 1.144 1.204 1.144m-18.829 18.522c.813 0 1.276-.877 1.276-1.593 0-.715-.659-1.295-1.472-1.295s-1.471.58-1.471 1.295c0 .716.853 1.593 1.667 1.593"/></g><path fill="#1f357a" d="M24.436 479.157c1.92 0 3.84.213 5.812.213 1.92 0 3.893-.213 5.812-.213v1.173c-2.4.32-2.985 1.92-2.985 5.333 0 5.066-.054 10.131-.054 15.197 0 7.146 3.307 12.211 11.252 12.211 4.319 0 9.81-2.506 9.81-8.531v-6.293c0-6.292-.479-12.584-.479-15.25 0-1.494-1.44-2.507-2.72-2.667v-1.173c1.92 0 3.84.213 5.76.213s3.892-.213 5.812-.213v1.173c-1.76.053-2.506 2.133-2.506 3.946 0 2.027-.16 7.572-.16 14.611v11.625c0 2.986.586 4.532 2.933 4.692v1.174c-1.493 0-3.04-.214-4.533-.214s-2.986.214-4.48.214c.108-1.813.268-3.467.374-5.066-3.892 3.625-7.199 5.706-12.638 5.706-7.892 0-14.13-4.533-14.13-12.532v-8.905c0-4.16-.267-7.839-.267-11.145 0-2.08-.374-3.785-2.613-4.106zm49.22 36.047c2.08-.533 3.307-2.133 3.307-5.119l.16-31.568h2.239l26.075 28.689v-18.344c0-6.612-1.44-8.158-3.999-8.532v-1.173c1.76 0 3.52.213 5.28.213s3.573-.213 5.332-.213v1.173c-2.346.427-3.52 2.293-3.52 6.613l-.16 30.075h-1.813l-26.502-28.85.214 20.318c.053 4.158 1.333 6.079 3.892 6.718v1.174c-1.76 0-3.52-.214-5.279-.214-1.76 0-3.466.214-5.226.214zm61.214-34.874c-1.972.32-2.185 1.706-2.185 3.573 0 5.172-.214 11.465-.214 17.117v10.345c0 1.76.587 3.786 2.614 3.84v1.173c-1.814 0-3.68-.214-5.493-.214-1.866 0-3.679.214-5.493.214v-1.174c1.707-.053 2.667-1.546 2.667-3.839v-7.679c0-6.399-.48-15.783-.48-19.143 0-2.186-.213-3.946-2.4-4.213v-1.173c1.813 0 3.627.213 5.493.213 1.813 0 3.679-.213 5.492-.213zm26.5 36.688-14.717-32.369c-.586-1.333-1.76-3.519-3.838-4.319v-1.173c2.025 0 4.052.213 6.078.213 1.972 0 3.999-.213 6.026-.213v1.173c-1.014.214-1.974.693-1.974 1.92 0 .48.16 1.386.96 3.306l9.759 23.303 8.319-21.757c.586-1.493.745-2.72.745-3.519 0-2.08-.692-2.932-2.772-3.253v-1.173c1.813 0 3.625.213 5.439.213s3.626-.213 5.438-.213v1.173c-2.185.32-3.412 2.133-4.478 4.8l-12.638 31.888zm26.666-2.027c2.079-.213 3.092-1.493 3.092-3.253v-9.011c0-7.252-.427-14.878-.427-19.623 0-1.334-1.013-2.24-2.665-2.56v-1.174h21.063c1.44 0 3.252-.533 4.213-.853 0 1.387-.215 2.666-.215 4 0 1.332.215 2.613.215 3.946h-2.028c-.905-2.56-2.185-4.533-5.119-4.533h-9.332v14.185h8.052c3.094 0 4.107-.268 5.387-2.88h1.707c0 1.546-.215 3.093-.215 4.639 0 1.6.215 3.146.215 4.692h-1.815c-1.172-3.679-2.185-3.892-5.279-3.892h-8.052v14.93h9.066c3.946 0 5.385-.64 7.785-3.999l1.653.853-1.866 6.56c-1.654-.64-3.307-.854-5.012-.854h-20.423zm38.771.213c1.813-.426 2.666-1.28 2.666-3.093v-13.704c0-4.586-.268-9.171-.268-13.704 0-2.506-.265-3.84-2.985-4.373v-1.173c1.707 0 3.465.213 5.173.213 1.599 0 3.199-.213 7.198-.213 9.598 0 14.292 4.8 14.292 10.559 0 5.385-4.907 8.851-9.652 10.024l10.772 12.478c.798.96 2.612 2.72 4.052 2.986v1.174c-1.76 0-3.574-.214-5.334-.214-1.758 0-3.518.214-5.278.214v-1.174c.374-.053.533-.267.586-.64 0-.48-.16-.96-.8-1.706l-8.852-10.345c-.798-.906-1.918-2.293-3.198-2.293v10.559c0 2.24.266 3.839 2.985 4.425v1.174c-1.919 0-3.785-.214-5.705-.214s-3.732.214-5.652.214zm8.372-16.637c.8.053 1.438.16 2.078.16 4.907 0 9.119-3.306 9.119-8.372 0-4.906-2.24-9.278-8.052-9.278-1.385 0-2.879.16-2.879 1.493zm30.714 10.558h2.026c1.44 4.054 4.745 5.653 8.745 5.653 3.627 0 6.932-2.933 6.932-6.666 0-11.252-18.183-4.32-18.183-18.77 0-6.879 6.026-10.825 12.318-10.825 3.466 0 7.732 1.28 9.492 2.453l.533 5.705h-1.92c-.852-3.519-4.585-5.918-8.052-5.918-4 0-7.199 2.666-7.199 6.772 0 9.385 18.184 3.946 18.184 17.864 0 7.092-5.706 11.625-12.478 11.625-3.572 0-7.199-.427-10.398-2.08zm46.283-28.795c-1.972.32-2.185 1.706-2.185 3.573 0 5.172-.215 11.465-.215 17.117v10.345c0 1.76.588 3.786 2.615 3.84v1.173c-1.814 0-3.68-.214-5.494-.214-1.866 0-3.678.214-5.492.214v-1.174c1.707-.053 2.666-1.546 2.666-3.839v-7.679c0-6.399-.48-15.783-.48-19.143 0-2.186-.212-3.946-2.399-4.213v-1.173c1.813 0 3.625.213 5.492.213 1.813 0 3.68-.213 5.492-.213zm42.444 5.706h-2.025c-.534-3.146-2.134-4.106-5.174-4.106h-6.718c0 4.586-.267 10.451-.267 16.85v11.359c0 3.306 1.013 4.319 3.36 5.065v1.174c-2.08 0-4.107-.214-6.132-.214-2.028 0-4.053.214-6.133.214v-1.174c2.453-.8 3.2-1.972 3.2-5.065v-8.372c0-7.679-.427-15.251-.534-19.837H327c-3.04 0-4.639.96-5.172 4.106H319.8v-7.52c2.027.535 4.105.854 6.185.854h23.57c1.493 0 3.838-.319 5.065-.853zm6.823 28.955c2.08-.213 3.093-1.493 3.093-3.253v-9.011c0-7.252-.427-14.878-.427-19.623 0-1.334-1.013-2.24-2.666-2.56v-1.174h21.062c1.44 0 3.254-.533 4.214-.853 0 1.387-.214 2.666-.214 4 0 1.332.214 2.613.214 3.946h-2.027c-.907-2.56-2.187-4.533-5.119-4.533h-9.332v14.185h8.052c3.092 0 4.106-.268 5.386-2.88h1.706c0 1.546-.213 3.093-.213 4.639 0 1.6.213 3.146.213 4.692h-1.813c-1.173-3.679-2.187-3.892-5.279-3.892h-8.052v14.93h9.066c3.945 0 5.385-.64 7.784-3.999l1.654.853-1.866 6.56c-1.654-.64-3.307-.854-5.012-.854h-20.424zm68.845-28.955h-2.027c-.533-3.146-2.132-4.106-5.172-4.106h-6.718c0 4.586-.267 10.451-.267 16.85v11.359c0 3.306 1.013 4.319 3.36 5.065v1.174c-2.08 0-4.107-.214-6.133-.214s-4.052.214-6.132.214v-1.174c2.453-.8 3.2-1.972 3.2-5.065v-8.372c0-7.679-.427-15.251-.534-19.837h-7.198c-3.04 0-4.639.96-5.174 4.106h-2.025v-7.52c2.025.535 4.105.854 6.185.854h23.57c1.493 0 3.838-.319 5.065-.853z"/></svg>
