<?xml version="1.0" encoding="UTF-8" standalone="no"?>
<!-- Created with Inkscape (http://www.inkscape.org/) -->

<svg
   xmlns:dc="http://purl.org/dc/elements/1.1/"
   xmlns:cc="http://creativecommons.org/ns#"
   xmlns:rdf="http://www.w3.org/1999/02/22-rdf-syntax-ns#"
   xmlns:svg="http://www.w3.org/2000/svg"
   xmlns="http://www.w3.org/2000/svg"
   xmlns:sodipodi="http://sodipodi.sourceforge.net/DTD/sodipodi-0.dtd"
   xmlns:inkscape="http://www.inkscape.org/namespaces/inkscape"
   id="svg3004"
   version="1.1"
   inkscape:version="0.48.2 r9819"
   width="308.75"
   height="82.5"
   xml:space="preserve"
   sodipodi:docname="logo-sodersjukhuset-farg.eps.pdf"><metadata
     id="metadata3010"><rdf:RDF><cc:Work
         rdf:about=""><dc:format>image/svg+xml</dc:format><dc:type
           rdf:resource="http://purl.org/dc/dcmitype/StillImage" /><dc:title></dc:title></cc:Work></rdf:RDF></metadata><defs
     id="defs3008"><clipPath
       clipPathUnits="userSpaceOnUse"
       id="clipPath3018"><path
         d="m 0,65.819 246.019,0 0,-65.759 L 0,0.06 0,65.819 z"
         id="path3020" /></clipPath></defs><sodipodi:namedview
     pagecolor="#ffffff"
     bordercolor="#666666"
     borderopacity="1"
     objecttolerance="10"
     gridtolerance="10"
     guidetolerance="10"
     inkscape:pageopacity="0"
     inkscape:pageshadow="2"
     inkscape:window-width="1280"
     inkscape:window-height="752"
     id="namedview3006"
     showgrid="false"
     inkscape:zoom="2.3967611"
     inkscape:cx="172.59769"
     inkscape:cy="51.198304"
     inkscape:window-x="0"
     inkscape:window-y="0"
     inkscape:window-maximized="1"
     inkscape:current-layer="g3012" /><g
     id="g3012"
     inkscape:groupmode="layer"
     inkscape:label="logo-sodersjukhuset-farg.eps"
     transform="matrix(1.25,0,0,-1.25,0,82.5)"><g
       id="g3014"><g
         id="g3016"
         clip-path="url(#clipPath3018)"><path
           d="m 9.406,12.283 c -0.756,0.63 -1.721,1.049 -2.729,1.049 -0.756,0 -1.764,-0.44 -1.764,-1.322 0,-0.924 1.112,-1.281 1.826,-1.512 l 1.05,-0.315 C 9.994,9.532 11.694,8.419 11.694,5.858 11.694,4.283 11.316,2.667 10.057,1.596 8.818,0.546 7.159,0.105 5.563,0.105 3.569,0.105 1.616,0.777 0,1.911 L 1.764,5.228 C 2.792,4.325 4.01,3.59 5.417,3.59 6.383,3.59 7.411,4.073 7.411,5.186 7.411,6.341 5.795,6.74 4.913,6.992 2.33,7.726 0.63,8.398 0.63,11.464 c 0,3.212 2.288,5.312 5.459,5.312 1.596,0 3.548,-0.504 4.955,-1.302 L 9.406,12.283"
           style="fill:#656263;fill-opacity:1;fill-rule:nonzero;stroke:none"
           id="path3022" /><path
           d="m 20.575,8.713 c 0,-2.729 2.016,-4.724 4.473,-4.724 2.456,0 4.472,1.995 4.472,4.724 0,2.184 -2.016,4.179 -4.472,4.179 -2.457,0 -4.473,-1.995 -4.473,-4.179 z M 33.803,8.734 C 33.803,3.611 30.129,0 25.048,0 c -5.081,0 -8.756,3.611 -8.756,8.734 0,4.787 4.199,8.147 8.756,8.147 4.555,0 8.755,-3.36 8.755,-8.147"
           style="fill:#656263;fill-opacity:1;fill-rule:nonzero;stroke:none"
           id="path3024" /></g></g><path
       d="m 44.133,4.01 0.924,0 c 2.457,0 4.556,1.344 4.556,4.43 0,2.835 -1.869,4.431 -4.514,4.431 l -0.966,0 0,-8.861 z m -4.115,12.346 5.836,0 c 4.41,0 8.042,-3.464 8.042,-7.916 0,-4.451 -3.653,-7.915 -8.042,-7.915 l -5.836,0 0,15.831"
       style="fill:#656263;fill-opacity:1;fill-rule:nonzero;stroke:none"
       id="path3026" /><path
       d="m 63.623,12.871 0,-2.646 4.641,0 0,-3.485 -4.641,0 0,-2.73 4.893,0 0,-3.485 -9.008,0 0,15.831 9.008,0 0,-3.485 -4.893,0"
       style="fill:#656263;fill-opacity:1;fill-rule:nonzero;stroke:none"
       id="path3028" /><path
       d="m 79.6,9.259 0.398,0 c 1.344,0 2.856,0.252 2.856,1.974 0,1.722 -1.512,1.973 -2.856,1.973 l -0.398,0 0,-3.947 z m 9.048,-8.734 -5.123,0 -3.883,6.089 -0.042,0 0,-6.089 -4.116,0 0,15.831 6.152,0 c 3.129,0 5.501,-1.491 5.501,-4.871 0,-2.184 -1.218,-4.073 -3.464,-4.472 l 4.975,-6.488"
       style="fill:#656263;fill-opacity:1;fill-rule:nonzero;stroke:none"
       id="path3030" /><path
       d="m 101.68,12.283 c -0.756,0.63 -1.722,1.049 -2.73,1.049 -0.756,0 -1.764,-0.44 -1.764,-1.322 0,-0.924 1.114,-1.281 1.828,-1.512 l 1.049,-0.315 c 2.205,-0.651 3.906,-1.764 3.906,-4.325 0,-1.575 -0.378,-3.191 -1.638,-4.262 -1.239,-1.05 -2.897,-1.491 -4.493,-1.491 -1.995,0 -3.947,0.672 -5.565,1.806 l 1.764,3.317 C 95.066,4.325 96.284,3.59 97.69,3.59 c 0.966,0 1.996,0.483 1.996,1.596 0,1.155 -1.618,1.554 -2.5,1.806 -2.582,0.734 -4.283,1.406 -4.283,4.472 0,3.212 2.289,5.312 5.459,5.312 1.596,0 3.549,-0.504 4.955,-1.302 l -1.637,-3.191"
       style="fill:#656263;fill-opacity:1;fill-rule:nonzero;stroke:none"
       id="path3032" /><path
       d="m 117.837,16.356 0,-10.687 c 0,-3.338 -1.742,-5.564 -5.249,-5.564 -1.764,0 -3.129,0.882 -4.073,2.331 l 2.372,2.498 c 0.462,-0.63 1.113,-1.344 1.659,-1.344 1.218,0 1.176,1.449 1.176,2.331 l 0,10.435 4.115,0"
       style="fill:#656263;fill-opacity:1;fill-rule:nonzero;stroke:none"
       id="path3034" /><path
       d="m 138.139,16.356 0,-8.902 c 0,-2.037 -0.084,-4.053 -1.66,-5.585 -1.322,-1.302 -3.4,-1.764 -5.248,-1.764 -1.848,0 -3.926,0.462 -5.249,1.764 -1.575,1.532 -1.659,3.548 -1.659,5.585 l 0,8.902 4.115,0 0,-8.335 c 0,-2.058 0.147,-4.305 2.793,-4.305 2.645,0 2.792,2.247 2.792,4.305 l 0,8.335 4.116,0"
       style="fill:#656263;fill-opacity:1;fill-rule:nonzero;stroke:none"
       id="path3036" /><path
       d="m 154.019,16.356 5.101,0 -6.299,-7.496 6.867,-8.335 -5.334,0 -5.312,6.866 -0.042,0 0,-6.866 -4.115,0 0,15.831 4.115,0 0,-6.53 0.042,0 4.977,6.53"
       style="fill:#656263;fill-opacity:1;fill-rule:nonzero;stroke:none"
       id="path3038" /><path
       d="m 174.312,10.246 0,6.11 4.115,0 0,-15.831 -4.115,0 0,6.488 -5.942,0 0,-6.488 -4.116,0 0,15.831 4.116,0 0,-6.11 5.942,0"
       style="fill:#656263;fill-opacity:1;fill-rule:nonzero;stroke:none"
       id="path3040" /><path
       d="m 198.304,16.356 0,-8.902 c 0,-2.037 -0.084,-4.053 -1.659,-5.585 -1.324,-1.302 -3.402,-1.764 -5.249,-1.764 -1.848,0 -3.926,0.462 -5.25,1.764 -1.575,1.532 -1.659,3.548 -1.659,5.585 l 0,8.902 4.117,0 0,-8.335 c 0,-2.058 0.146,-4.305 2.792,-4.305 2.645,0 2.792,2.247 2.792,4.305 l 0,8.335 4.116,0"
       style="fill:#656263;fill-opacity:1;fill-rule:nonzero;stroke:none"
       id="path3042" /><path
       d="m 213.009,12.283 c -0.755,0.63 -1.722,1.049 -2.73,1.049 -0.755,0 -1.762,-0.44 -1.762,-1.322 0,-0.924 1.112,-1.281 1.826,-1.512 l 1.05,-0.315 c 2.204,-0.651 3.905,-1.764 3.905,-4.325 0,-1.575 -0.378,-3.191 -1.638,-4.262 -1.239,-1.05 -2.897,-1.491 -4.493,-1.491 -1.994,0 -3.947,0.672 -5.563,1.806 l 1.762,3.317 c 1.03,-0.903 2.247,-1.638 3.655,-1.638 0.964,0 1.994,0.483 1.994,1.596 0,1.155 -1.618,1.554 -2.498,1.806 -2.583,0.734 -4.284,1.406 -4.284,4.472 0,3.212 2.288,5.312 5.458,5.312 1.596,0 3.549,-0.504 4.955,-1.302 l -1.637,-3.191"
       style="fill:#656263;fill-opacity:1;fill-rule:nonzero;stroke:none"
       id="path3044" /><path
       d="m 225.117,12.871 0,-2.646 4.64,0 0,-3.485 -4.64,0 0,-2.73 4.892,0 0,-3.485 -9.007,0 0,15.831 9.007,0 0,-3.485 -4.892,0"
       style="fill:#656263;fill-opacity:1;fill-rule:nonzero;stroke:none"
       id="path3046" /><path
       d="m 242.617,0.525 -4.114,0 0,12.346 -3.402,0 0,3.485 10.918,0 0,-3.485 -3.402,0 0,-12.346"
       style="fill:#656263;fill-opacity:1;fill-rule:nonzero;stroke:none"
       id="path3048" /><path
       d="m 19.148,16.248 c 0,-0.708 -0.574,-1.282 -1.282,-1.282 -0.709,0 -1.283,0.574 -1.283,1.282 0,0.709 0.574,1.284 1.283,1.284 0.708,0 1.282,-0.575 1.282,-1.284"
       style="fill:#656263;fill-opacity:1;fill-rule:nonzero;stroke:none"
       id="path3050" /><path
       d="m 33.491,16.248 c 0,-0.708 -0.574,-1.282 -1.282,-1.282 -0.709,0 -1.283,0.574 -1.283,1.282 0,0.709 0.574,1.284 1.283,1.284 0.708,0 1.282,-0.575 1.282,-1.284"
       style="fill:#656263;fill-opacity:1;fill-rule:nonzero;stroke:none"
       id="path3052" /><path
       d="m 99.109,54.413 c -1.428,1.191 -3.254,1.983 -5.158,1.983 -1.429,0 -3.334,-0.833 -3.334,-2.5 0,-1.746 2.104,-2.42 3.453,-2.856 l 1.984,-0.595 c 4.167,-1.231 7.381,-3.333 7.381,-8.175 0,-2.976 -0.714,-6.031 -3.095,-8.055 -2.341,-1.984 -5.476,-2.817 -8.491,-2.817 -3.771,0 -7.46,1.269 -10.516,3.412 l 3.333,6.27 c 1.944,-1.707 4.246,-3.095 6.904,-3.095 1.825,0 3.77,0.913 3.77,3.015 0,2.183 -3.056,2.937 -4.723,3.413 -4.88,1.388 -8.094,2.658 -8.094,8.452 0,6.071 4.326,10.039 10.317,10.039 3.015,0 6.706,-0.952 9.364,-2.46 l -3.095,-6.031"
       style="fill:#861810;fill-opacity:1;fill-rule:nonzero;stroke:none"
       id="path3054" /><path
       d="m 122.709,38.547 c 4.644,0 8.452,3.77 8.452,8.93 0,4.126 -3.808,7.895 -8.452,7.895 -0.132,0 -0.259,-0.013 -0.39,-0.019 l 0,-16.786 c 0.131,-0.005 0.258,-0.02 0.39,-0.02"
       style="fill:#861810;fill-opacity:1;fill-rule:nonzero;stroke:none"
       id="path3056" /><path
       d="m 114.309,47.477 c 0,4.009 3.599,7.67 8.061,7.876 l 0,7.541 c -8.458,-0.189 -16.157,-6.468 -16.157,-15.378 0,-9.549 6.761,-16.305 16.157,-16.49 l 0,7.541 c -4.462,0.206 -8.061,3.896 -8.061,8.91"
       style="fill:#861810;fill-opacity:1;fill-rule:nonzero;stroke:none"
       id="path3058" /><path
       d="m 111.144,62.293 c 0,-1.449 -1.176,-2.625 -2.625,-2.625 -1.451,0 -2.625,1.176 -2.625,2.625 0,1.451 1.174,2.625 2.625,2.625 1.449,0 2.625,-1.174 2.625,-2.625"
       style="fill:#861810;fill-opacity:1;fill-rule:nonzero;stroke:none"
       id="path3060" /><path
       d="m 160.655,34.055 c -2.342,-1.984 -5.476,-2.817 -8.492,-2.817 -3.769,0 -7.46,1.269 -10.516,3.412 l 3.334,6.269 c 1.944,-1.706 4.246,-3.094 6.905,-3.094 1.825,0 3.768,0.913 3.768,3.015 0,2.182 -3.054,2.936 -4.72,3.412 -4.882,1.389 -8.096,2.659 -8.096,8.453 0,6.071 4.325,10.039 10.316,10.039 3.017,0 6.707,-0.953 9.367,-2.46 l -3.096,-6.032 c -1.429,1.191 -3.254,1.984 -5.158,1.984 -1.429,0 -3.333,-0.833 -3.333,-2.5 0,-1.746 2.102,-2.42 3.452,-2.856 l 1.984,-0.595 c 4.166,-1.231 7.38,-3.333 7.38,-8.175 0,-2.976 -0.714,-6.031 -3.095,-8.055 z m -23.328,25.613 c -1.449,0 -2.625,1.176 -2.625,2.625 0,1.451 1.176,2.625 2.625,2.625 1.45,0 2.625,-1.174 2.625,-2.625 0,-1.449 -1.175,-2.625 -2.625,-2.625 z m 2.785,6.151 -17.671,0 0,-2.894 c 0.132,0.003 0.261,0.017 0.392,0.017 8.609,0 16.546,-6.348 16.546,-15.396 0,-9.682 -6.943,-16.507 -16.546,-16.507 -0.133,0 -0.259,0.015 -0.392,0.018 l 0,-2.954 42.585,0 0,37.716 -24.914,0"
       style="fill:#861810;fill-opacity:1;fill-rule:nonzero;stroke:none"
       id="path3062" /></g></svg>
